<svg width="514" height="115" viewBox="0 0 514 115" fill="none" xmlns="http://www.w3.org/2000/svg">
<g filter="url(#filter0_b_5_2434)">
<rect width="513.423" height="114.737" rx="33.7865" fill="#4E8CDB"/>
<rect x="1.46898" y="1.46898" width="510.485" height="111.799" rx="32.3175" stroke="white" stroke-width="2.93796"/>
<path d="M74.458 47.8427C74.2565 46.0543 73.4253 44.6689 71.9644 43.6866C70.5034 42.6916 68.6647 42.1942 66.4481 42.1942C64.8612 42.1942 63.4884 42.4461 62.3298 42.9498C61.1711 43.441 60.2706 44.1211 59.6283 44.9901C58.9986 45.8465 58.6837 46.8225 58.6837 47.9182C58.6837 48.8376 58.8979 49.6311 59.3261 50.2985C59.7669 50.966 60.3399 51.5265 61.0452 51.9799C61.763 52.4207 62.5313 52.7922 63.3499 53.0945C64.1685 53.3841 64.9557 53.6234 65.7113 53.8123L69.4896 54.7947C70.7238 55.0969 71.9895 55.5063 73.2868 56.0226C74.584 56.539 75.7867 57.2191 76.895 58.0629C78.0033 58.9067 78.8975 59.952 79.5776 61.1988C80.2702 62.4457 80.6166 63.9381 80.6166 65.6761C80.6166 67.8675 80.0498 69.8133 78.9164 71.5135C77.7955 73.2137 76.1645 74.555 74.0235 75.5374C71.8951 76.5197 69.3196 77.0109 66.297 77.0109C63.4003 77.0109 60.894 76.5512 58.7782 75.6318C56.6624 74.7125 55.0062 73.4089 53.8098 71.7213C52.6133 70.0211 51.9521 68.006 51.8262 65.6761H57.6825C57.7959 67.0741 58.2492 68.239 59.0427 69.171C59.8487 70.0904 60.8751 70.7768 62.122 71.2301C63.3814 71.6709 64.7605 71.8913 66.2592 71.8913C67.909 71.8913 69.3762 71.6332 70.6609 71.1168C71.9581 70.5878 72.9782 69.8574 73.7213 68.9254C74.4643 67.9808 74.8358 66.8788 74.8358 65.6194C74.8358 64.4733 74.5084 63.5351 73.8535 62.8046C73.2112 62.0741 72.3359 61.4696 71.2276 60.991C70.1319 60.5125 68.8914 60.0906 67.506 59.7253L62.9343 58.4785C59.8361 57.6347 57.3802 56.3942 55.5667 54.7569C53.7657 53.1197 52.8652 50.9534 52.8652 48.2583C52.8652 46.0291 53.4697 44.0833 54.6788 42.4209C55.8878 40.7584 57.5251 39.4675 59.5905 38.5481C61.656 37.6162 63.9859 37.1502 66.5803 37.1502C69.1999 37.1502 71.511 37.6099 73.5134 38.5292C75.5285 39.4486 77.1154 40.7143 78.2741 42.3264C79.4327 43.9259 80.0373 45.7646 80.0876 47.8427H74.458ZM85.6842 42.7042V37.6791H115.627V42.7042H103.555V76.3686H97.7369V42.7042H85.6842ZM120.94 76.3686H114.744L128.667 37.6791H135.411L149.334 76.3686H143.137L132.199 44.7067H131.897L120.94 76.3686ZM121.979 61.2177H142.08V66.1295H121.979V61.2177ZM154.921 76.3686V37.6791H168.712C171.709 37.6791 174.196 38.1955 176.174 39.2282C178.164 40.261 179.65 41.6904 180.632 43.5166C181.614 45.3301 182.106 47.4271 182.106 49.8074C182.106 52.1751 181.608 54.2594 180.613 56.0604C179.631 57.8488 178.145 59.2404 176.155 60.2354C174.177 61.2303 171.69 61.7278 168.693 61.7278H158.246V56.7027H168.164C170.053 56.7027 171.589 56.4319 172.773 55.8904C173.97 55.3488 174.845 54.5617 175.399 53.529C175.953 52.4962 176.23 51.2557 176.23 49.8074C176.23 48.3464 175.947 47.0807 175.38 46.0102C174.826 44.9397 173.951 44.1211 172.754 43.5543C171.57 42.975 170.015 42.6853 168.088 42.6853H160.758V76.3686H154.921ZM174.02 58.913L183.579 76.3686H176.929L167.559 58.913H174.02ZM187.301 42.7042V37.6791H217.243V42.7042H205.172V76.3686H199.353V42.7042H187.301ZM269.166 37.6791V76.3686H263.801L244.135 47.9938H243.776V76.3686H237.939V37.6791H243.342L263.027 66.0917H263.386V37.6791H269.166ZM311.289 57.0239C311.289 61.1548 310.534 64.7063 309.022 67.6786C307.511 70.6382 305.439 72.9178 302.807 74.5172C300.187 76.1041 297.209 76.8975 293.871 76.8975C290.521 76.8975 287.53 76.1041 284.898 74.5172C282.278 72.9178 280.213 70.6319 278.702 67.6597C277.19 64.6874 276.435 61.1422 276.435 57.0239C276.435 52.893 277.19 49.3477 278.702 46.388C280.213 43.4158 282.278 41.1363 284.898 39.5494C287.53 37.9499 290.521 37.1502 293.871 37.1502C297.209 37.1502 300.187 37.9499 302.807 39.5494C305.439 41.1363 307.511 43.4158 309.022 46.388C310.534 49.3477 311.289 52.893 311.289 57.0239ZM305.508 57.0239C305.508 53.8753 304.998 51.2242 303.978 49.0706C302.971 46.9044 301.585 45.2672 299.822 44.1589C298.072 43.038 296.088 42.4775 293.871 42.4775C291.642 42.4775 289.652 43.038 287.902 44.1589C286.151 45.2672 284.766 46.9044 283.746 49.0706C282.738 51.2242 282.234 53.8753 282.234 57.0239C282.234 60.1724 282.738 62.8298 283.746 64.996C284.766 67.1496 286.151 68.7869 287.902 69.9078C289.652 71.016 291.642 71.5702 293.871 71.5702C296.088 71.5702 298.072 71.016 299.822 69.9078C301.585 68.7869 302.971 67.1496 303.978 64.996C304.998 62.8298 305.508 60.1724 305.508 57.0239ZM325.675 76.3686L314.945 37.6791H321.084L328.622 67.6408H328.981L336.821 37.6791H342.904L350.744 67.6597H351.103L358.621 37.6791H364.78L354.031 76.3686H348.156L340.014 47.3893H339.711L331.569 76.3686H325.675Z" fill="white"/>
<path d="M420.668 79.1934L442.493 57.3685L420.668 35.5437" stroke="white" stroke-width="6.13823" stroke-linecap="round" stroke-linejoin="round"/>
</g>
<defs>
<filter id="filter0_b_5_2434" x="-81.8431" y="-81.8431" width="677.11" height="278.423" filterUnits="userSpaceOnUse" color-interpolation-filters="sRGB">
<feFlood flood-opacity="0" result="BackgroundImageFix"/>
<feGaussianBlur in="BackgroundImageFix" stdDeviation="40.9215"/>
<feComposite in2="SourceAlpha" operator="in" result="effect1_backgroundBlur_5_2434"/>
<feBlend mode="normal" in="SourceGraphic" in2="effect1_backgroundBlur_5_2434" result="shape"/>
</filter>
</defs>
</svg>
