<svg width="52" height="52" viewBox="0 0 52 52" fill="none" xmlns="http://www.w3.org/2000/svg">
<rect x="1" y="1" width="50" height="50" rx="25" fill="white"/>
<rect x="1" y="1" width="50" height="50" rx="25" stroke="#4E8CDB" stroke-width="2"/>
<path d="M19 36C18.45 36 17.979 35.8043 17.587 35.413C17.1957 35.021 17 34.55 17 34V20H19V34H30V36H19ZM23 32C22.45 32 21.9793 31.8043 21.588 31.413C21.196 31.021 21 30.55 21 30V18C21 17.45 21.196 16.979 21.588 16.587C21.9793 16.1957 22.45 16 23 16H32C32.55 16 33.021 16.1957 33.413 16.587C33.8043 16.979 34 17.45 34 18V30C34 30.55 33.8043 31.021 33.413 31.413C33.021 31.8043 32.55 32 32 32H23ZM23 30H32V18H23V30Z" fill="#07003D"/>
</svg>
