<svg width="181" height="101" viewBox="0 0 181 101" fill="none" xmlns="http://www.w3.org/2000/svg">
<path d="M1.89063 20V7.9141H9.22974V9.26282H3.43202V13.7819H8.30141V15.1306H3.43202V20H1.89063ZM13.6764 20.1752C12.6955 20.1752 11.9248 20.0058 11.3643 19.6672C10.8155 19.3286 10.4302 18.8206 10.2083 18.1433C9.98643 17.4544 9.8755 16.5786 9.8755 15.516C9.8755 14.5117 9.99811 13.6826 10.2433 13.0287C10.4886 12.3631 10.8914 11.8727 11.4519 11.5574C12.0124 11.2304 12.7539 11.0669 13.6764 11.0669C14.6106 11.0669 15.3579 11.2304 15.9184 11.5574C16.479 11.8727 16.8818 12.3631 17.127 13.0287C17.3723 13.6826 17.4949 14.5117 17.4949 15.516C17.4949 16.5786 17.3781 17.4544 17.1446 18.1433C16.9227 18.8206 16.5373 19.3286 15.9885 19.6672C15.4397 20.0058 14.669 20.1752 13.6764 20.1752ZM13.6764 18.8965C14.3303 18.8965 14.8208 18.7856 15.1478 18.5637C15.4747 18.3302 15.6907 17.9623 15.7958 17.4602C15.9009 16.9581 15.9535 16.31 15.9535 15.516C15.9535 14.7336 15.8834 14.1089 15.7433 13.6418C15.6148 13.1747 15.3871 12.8419 15.0602 12.6434C14.7332 12.4449 14.272 12.3456 13.6764 12.3456C13.0926 12.3456 12.6313 12.4449 12.2927 12.6434C11.9657 12.8419 11.7322 13.1747 11.592 13.6418C11.4636 14.1089 11.3994 14.7336 11.3994 15.516C11.3994 16.31 11.4519 16.9581 11.557 17.4602C11.6621 17.9623 11.8781 18.3302 12.2051 18.5637C12.5321 18.7856 13.0225 18.8965 13.6764 18.8965ZM18.9968 20V7.45869H20.4857V20H18.9968ZM22.4624 20V7.45869H23.9512V20H22.4624ZM29.2559 20.1752C28.275 20.1752 27.5043 20.0058 26.9438 19.6672C26.395 19.3286 26.0096 18.8206 25.7878 18.1433C25.5659 17.4544 25.455 16.5786 25.455 15.516C25.455 14.5117 25.5776 13.6826 25.8228 13.0287C26.068 12.3631 26.4709 11.8727 27.0314 11.5574C27.5919 11.2304 28.3334 11.0669 29.2559 11.0669C30.1901 11.0669 30.9374 11.2304 31.4979 11.5574C32.0584 11.8727 32.4613 12.3631 32.7065 13.0287C32.9517 13.6826 33.0743 14.5117 33.0743 15.516C33.0743 16.5786 32.9576 17.4544 32.724 18.1433C32.5022 18.8206 32.1168 19.3286 31.568 19.6672C31.0192 20.0058 30.2485 20.1752 29.2559 20.1752ZM29.2559 18.8965C29.9098 18.8965 30.4003 18.7856 30.7272 18.5637C31.0542 18.3302 31.2702 17.9623 31.3753 17.4602C31.4804 16.9581 31.533 16.31 31.533 15.516C31.533 14.7336 31.4629 14.1089 31.3228 13.6418C31.1943 13.1747 30.9666 12.8419 30.6396 12.6434C30.3127 12.4449 29.8514 12.3456 29.2559 12.3456C28.672 12.3456 28.2108 12.4449 27.8722 12.6434C27.5452 12.8419 27.3116 13.1747 27.1715 13.6418C27.0431 14.1089 26.9788 14.7336 26.9788 15.516C26.9788 16.31 27.0314 16.9581 27.1365 17.4602C27.2416 17.9623 27.4576 18.3302 27.7846 18.5637C28.1115 18.7856 28.602 18.8965 29.2559 18.8965ZM35.8024 20L33.7881 11.2421H35.312L36.941 18.7213H37.2387L39.2005 11.4173H40.7244L42.7036 18.7213H43.0014L44.6304 11.2421H46.1367L44.1224 20H41.6877L39.9537 13.379L38.2196 20H35.8024ZM54.7961 20.1752C53.897 20.1752 53.1263 20.0467 52.484 19.7898C51.8535 19.5329 51.3689 19.1184 51.0302 18.5462C50.6916 17.974 50.5223 17.215 50.5223 16.2691V7.9141H52.0636V16.3217C52.0636 17.2092 52.303 17.8514 52.7818 18.2484C53.2606 18.6338 53.932 18.8264 54.7961 18.8264C55.7069 18.8264 56.4017 18.6338 56.8805 18.2484C57.3709 17.8514 57.6162 17.2092 57.6162 16.3217V7.9141H59.1575V16.2691C59.1575 17.2033 58.9882 17.9623 58.6496 18.5462C58.3109 19.1184 57.8147 19.5329 57.1607 19.7898C56.5185 20.0467 55.7303 20.1752 54.7961 20.1752ZM63.8348 20.1752C63.5546 20.1752 63.2159 20.1576 62.8189 20.1226C62.4335 20.0876 62.054 20.0467 61.6804 20C61.3067 19.9416 60.9739 19.8891 60.682 19.8424L60.7695 18.5812C61.0615 18.6163 61.3884 18.6571 61.7504 18.7038C62.1241 18.7505 62.4861 18.7914 62.8364 18.8264C63.1867 18.8498 63.4728 18.8615 63.6947 18.8615C64.1501 18.8615 64.5296 18.8206 64.8332 18.7389C65.1368 18.6571 65.3645 18.517 65.5163 18.3185C65.6798 18.12 65.7615 17.8339 65.7615 17.4602C65.7615 17.18 65.6973 16.9639 65.5689 16.8121C65.4521 16.6603 65.2302 16.5319 64.9033 16.4268C64.588 16.3217 64.1209 16.2283 63.502 16.1465C62.8481 16.0414 62.2993 15.9071 61.8555 15.7437C61.4235 15.5802 61.1023 15.3408 60.8922 15.0255C60.6936 14.7102 60.5944 14.2607 60.5944 13.6768C60.5944 13.0112 60.7462 12.4916 61.0498 12.1179C61.3534 11.7325 61.7504 11.464 62.2409 11.3122C62.7313 11.1487 63.2451 11.0669 63.7823 11.0669C64.1209 11.0669 64.4887 11.0845 64.8858 11.1195C65.2828 11.1545 65.6681 11.2012 66.0418 11.2596C66.4155 11.3063 66.7366 11.353 67.0052 11.3997L66.9701 12.6609C66.6899 12.6142 66.3571 12.5733 65.9717 12.5383C65.5981 12.4916 65.2244 12.4565 64.8507 12.4332C64.4771 12.3981 64.1501 12.3806 63.8698 12.3806C63.5312 12.3806 63.2276 12.4157 62.959 12.4857C62.6904 12.5558 62.4744 12.6842 62.3109 12.8711C62.1591 13.0462 62.0832 13.2915 62.0832 13.6067C62.0832 13.852 62.1416 14.0505 62.2584 14.2023C62.3752 14.3541 62.5912 14.4825 62.9065 14.5876C63.2218 14.681 63.683 14.7803 64.2902 14.8854C65.0142 15.0022 65.5922 15.1481 66.0243 15.3233C66.468 15.4984 66.7891 15.7495 66.9876 16.0765C67.1862 16.3917 67.2854 16.8355 67.2854 17.4077C67.2854 18.4469 66.976 19.1709 66.3571 19.5796C65.7499 19.9766 64.9091 20.1752 63.8348 20.1752Z" fill="white"/>
<rect opacity="0.1" y="51.4526" width="49.2632" height="49.2632" rx="10.9474" fill="white"/>
<path d="M27.5592 69.3196H29.5578V65.8384C29.213 65.7909 28.0272 65.6842 26.6461 65.6842C23.7644 65.6842 21.7904 67.4969 21.7904 70.8286V73.8947H18.6105V77.7865H21.7904V87.5789H25.6892V77.7874H28.7405L29.2249 73.8956H25.6883V71.2144C25.6892 70.0896 25.992 69.3196 27.5592 69.3196Z" fill="white"/>
<rect opacity="0.1" x="65.6842" y="51.4526" width="49.2632" height="49.2632" rx="10.9474" fill="white"/>
<path d="M100.265 71.3544C100.012 70.4164 99.2727 69.6771 98.3349 69.4245C96.6215 68.9556 89.7681 68.9556 89.7681 68.9556C89.7681 68.9556 82.9148 68.9556 81.2015 69.4066C80.2817 69.659 79.5242 70.4166 79.2718 71.3544C78.8209 73.0676 78.8209 76.6206 78.8209 76.6206C78.8209 76.6206 78.8209 80.1914 79.2718 81.8868C79.5243 82.8245 80.2637 83.564 81.2016 83.8166C82.9329 84.2855 89.7682 84.2855 89.7682 84.2855C89.7682 84.2855 96.6215 84.2855 98.3349 83.8345C99.2728 83.5821 100.012 82.8426 100.265 81.9048C100.716 80.1914 100.716 76.6386 100.716 76.6386C100.716 76.6386 100.734 73.0676 100.265 71.3544Z" fill="white"/>
<path d="M87.5852 79.9032L93.2842 76.6208L87.5852 73.3384V79.9032Z" fill="#2E2E3E"/>
<rect opacity="0.1" x="131.368" y="51.4526" width="49.2632" height="49.2632" rx="10.9474" fill="white"/>
<path d="M155.443 71.0158C152.31 71.0226 149.829 73.5559 149.836 76.6333C149.842 79.7412 152.361 82.2582 155.462 82.2496C158.567 82.2479 161.073 79.7335 161.069 76.6372C161.064 73.4859 158.527 71.0093 155.443 71.0158ZM155.449 80.2771C153.411 80.2732 151.829 78.6781 151.79 76.7198C151.748 74.6509 153.395 72.9896 155.446 72.9913C157.467 72.9866 159.093 74.6078 159.095 76.629C159.097 78.6485 157.468 80.2814 155.449 80.2771Z" fill="white"/>
<path d="M161.311 69.4891C160.577 69.4816 159.988 70.057 159.985 70.7848C159.983 71.5046 160.56 72.0934 161.276 72.1005C162.006 72.1078 162.593 71.5297 162.597 70.8014C162.601 70.0743 162.035 69.4967 161.311 69.4891Z" fill="white"/>
<path d="M166.384 74.0705C166.387 73.3518 166.355 72.6316 166.308 71.9143C166.253 71.0954 166.118 70.2973 165.817 69.5164C165.05 67.5235 163.578 66.4034 161.547 65.9566C160.403 65.7046 159.231 65.7154 158.067 65.7051C155.909 65.6864 153.75 65.6594 151.592 65.7313C150.549 65.7664 149.507 65.8173 148.51 66.1789C146.442 66.9297 145.224 68.413 144.763 70.5432C144.729 70.7005 144.7 70.8585 144.676 71.0171L144.676 71.0162C144.56 71.5093 144.542 72.0044 144.522 72.7758C144.512 73.1612 144.508 73.5421 144.506 73.8402C144.504 74.1889 144.506 74.4254 144.506 74.4254V80.4395C144.592 80.8058 144.562 81.1809 144.592 81.5515C144.744 83.4328 145.379 85.074 146.934 86.2558C147.794 86.9086 148.782 87.2444 149.836 87.4071C150.365 87.4884 150.898 87.5116 151.431 87.536C151.489 87.5386 151.562 87.5051 151.604 87.5789H159.258C159.313 87.4933 159.401 87.5377 159.471 87.5352C160.592 87.4953 161.701 87.3968 162.75 86.9517C163.994 86.4236 164.939 85.5678 165.566 84.3715C165.986 83.5682 166.211 82.7047 166.277 81.8032C166.303 81.4528 166.299 81.0987 166.322 80.7496C166.468 78.5236 166.375 76.2968 166.384 74.0705ZM157.422 87.5225C157.41 87.4907 157.393 87.4631 157.373 87.4373C157.393 87.4631 157.41 87.4905 157.423 87.5221C157.495 87.5264 157.568 87.5182 157.641 87.5122C157.568 87.5182 157.495 87.5268 157.422 87.5225ZM164.378 80.6625C164.358 81.356 164.314 82.0507 164.108 82.7215C163.674 84.1337 162.727 84.9993 161.299 85.3545C160.652 85.5152 159.991 85.5408 159.33 85.5678C158.113 85.6172 156.894 85.6086 155.676 85.6163C154.68 85.6099 153.683 85.6167 152.687 85.5935C151.728 85.5708 150.765 85.5845 149.815 85.403C148.476 85.1468 147.497 84.4303 146.95 83.1672C146.696 82.5803 146.598 81.9549 146.559 81.3206C146.49 80.1766 146.479 79.0316 146.477 77.8859V74.8838C146.482 74.1885 146.49 73.4939 146.514 72.799C146.544 71.9003 146.6 71.004 146.916 70.1538C147.039 69.8218 147.224 69.5074 147.457 69.2304C147.77 68.8572 148.123 68.5272 148.555 68.3001C149.018 68.0563 149.515 67.9018 150.036 67.8289C151.16 67.6712 152.293 67.6724 153.425 67.6662C155.419 67.6555 157.415 67.6315 159.409 67.7006C160.277 67.7306 161.142 67.7832 161.96 68.119C163.049 68.5662 163.744 69.3671 164.094 70.4847C164.305 71.1559 164.361 71.8479 164.381 72.5419C164.459 75.2483 164.456 77.9558 164.378 80.6625Z" fill="white"/>
</svg>
