<svg width="502" height="57" viewBox="0 0 502 57" fill="none" xmlns="http://www.w3.org/2000/svg">
<rect x="0.5" y="0.5" width="501" height="56" rx="22.5" stroke="#4E8CDB"/>
<g clip-path="url(#clip0_18_1925)">
<path d="M136.762 30.7121L135.857 34.0907L132.549 34.1607C131.561 32.3271 131 30.2293 131 28C131 25.8443 131.524 23.8114 132.454 22.0214H132.454L135.399 22.5613L136.689 25.4886C136.419 26.2757 136.272 27.1207 136.272 28C136.272 28.9543 136.445 29.8686 136.762 30.7121Z" fill="#FBBB00"/>
<path d="M156.773 25.5714C156.922 26.3578 157 27.17 157 28C157 28.9307 156.902 29.8386 156.716 30.7143C156.083 33.6943 154.429 36.2964 152.139 38.1378L152.138 38.1371L148.429 37.9479L147.904 34.6707C149.424 33.7793 150.611 32.3843 151.237 30.7143H144.286V25.5714H156.773Z" fill="#518EF8"/>
<path d="M152.138 38.1371L152.139 38.1378C149.911 39.9285 147.081 41 144 41C139.049 41 134.745 38.2329 132.549 34.1607L136.762 30.7122C137.86 33.6421 140.686 35.7279 144 35.7279C145.424 35.7279 146.759 35.3428 147.904 34.6707L152.138 38.1371Z" fill="#28B446"/>
<path d="M152.298 17.9928L148.086 21.4407C146.901 20.7 145.501 20.2721 144 20.2721C140.611 20.2721 137.732 22.4535 136.689 25.4886L132.454 22.0214H132.454C134.617 17.85 138.976 15 144 15C147.154 15 150.046 16.1236 152.298 17.9928Z" fill="#F14336"/>
</g>
<path d="M217.273 32.9668V34.5H210.164V32.9668H217.273ZM210.535 20.2812V34.5H208.65V20.2812H210.535ZM218.68 29.334V29.1094C218.68 28.3477 218.79 27.6413 219.012 26.9902C219.233 26.3327 219.552 25.763 219.969 25.2812C220.385 24.793 220.89 24.4154 221.482 24.1484C222.075 23.875 222.739 23.7383 223.475 23.7383C224.217 23.7383 224.884 23.875 225.477 24.1484C226.076 24.4154 226.583 24.793 227 25.2812C227.423 25.763 227.745 26.3327 227.967 26.9902C228.188 27.6413 228.299 28.3477 228.299 29.1094V29.334C228.299 30.0957 228.188 30.8021 227.967 31.4531C227.745 32.1042 227.423 32.6738 227 33.1621C226.583 33.6439 226.079 34.0215 225.486 34.2949C224.9 34.5618 224.236 34.6953 223.494 34.6953C222.752 34.6953 222.085 34.5618 221.492 34.2949C220.9 34.0215 220.392 33.6439 219.969 33.1621C219.552 32.6738 219.233 32.1042 219.012 31.4531C218.79 30.8021 218.68 30.0957 218.68 29.334ZM220.486 29.1094V29.334C220.486 29.8613 220.548 30.3594 220.672 30.8281C220.796 31.2904 220.981 31.7005 221.229 32.0586C221.482 32.4167 221.798 32.6999 222.176 32.9082C222.553 33.11 222.993 33.2109 223.494 33.2109C223.989 33.2109 224.422 33.11 224.793 32.9082C225.171 32.6999 225.483 32.4167 225.73 32.0586C225.978 31.7005 226.163 31.2904 226.287 30.8281C226.417 30.3594 226.482 29.8613 226.482 29.334V29.1094C226.482 28.5885 226.417 28.097 226.287 27.6348C226.163 27.166 225.975 26.7526 225.721 26.3945C225.473 26.0299 225.161 25.7435 224.783 25.5352C224.412 25.3268 223.976 25.2227 223.475 25.2227C222.98 25.2227 222.544 25.3268 222.166 25.5352C221.795 25.7435 221.482 26.0299 221.229 26.3945C220.981 26.7526 220.796 27.166 220.672 27.6348C220.548 28.097 220.486 28.5885 220.486 29.1094ZM237.41 23.9336H239.051V34.2754C239.051 35.2064 238.862 36.0007 238.484 36.6582C238.107 37.3158 237.579 37.8138 236.902 38.1523C236.232 38.4974 235.457 38.6699 234.578 38.6699C234.214 38.6699 233.784 38.6113 233.289 38.4941C232.801 38.3835 232.319 38.1914 231.844 37.918C231.375 37.651 230.981 37.2897 230.662 36.834L231.609 35.7598C232.052 36.2936 232.514 36.6647 232.996 36.873C233.484 37.0814 233.966 37.1855 234.441 37.1855C235.014 37.1855 235.509 37.0781 235.926 36.8633C236.342 36.6484 236.665 36.3294 236.893 35.9062C237.127 35.4896 237.244 34.9753 237.244 34.3633V26.2578L237.41 23.9336ZM230.135 29.334V29.1289C230.135 28.3216 230.229 27.5892 230.418 26.9316C230.613 26.2676 230.89 25.6979 231.248 25.2227C231.613 24.7474 232.052 24.3828 232.566 24.1289C233.081 23.8685 233.66 23.7383 234.305 23.7383C234.969 23.7383 235.548 23.8555 236.043 24.0898C236.544 24.3177 236.967 24.653 237.312 25.0957C237.664 25.5319 237.941 26.0592 238.143 26.6777C238.344 27.2962 238.484 27.9961 238.562 28.7773V29.6758C238.491 30.4505 238.351 31.1471 238.143 31.7656C237.941 32.3841 237.664 32.9115 237.312 33.3477C236.967 33.7839 236.544 34.1191 236.043 34.3535C235.542 34.5814 234.956 34.6953 234.285 34.6953C233.654 34.6953 233.081 34.5618 232.566 34.2949C232.059 34.028 231.622 33.6536 231.258 33.1719C230.893 32.6901 230.613 32.1237 230.418 31.4727C230.229 30.8151 230.135 30.1022 230.135 29.334ZM231.941 29.1289V29.334C231.941 29.8613 231.993 30.3561 232.098 30.8184C232.208 31.2806 232.374 31.6875 232.596 32.0391C232.824 32.3906 233.113 32.6673 233.465 32.8691C233.816 33.0645 234.236 33.1621 234.725 33.1621C235.324 33.1621 235.818 33.0352 236.209 32.7812C236.6 32.5273 236.909 32.1921 237.137 31.7754C237.371 31.3587 237.553 30.9062 237.684 30.418V28.0645C237.612 27.7064 237.501 27.3613 237.352 27.0293C237.208 26.6908 237.02 26.3913 236.785 26.1309C236.557 25.8639 236.274 25.6523 235.936 25.4961C235.597 25.3398 235.2 25.2617 234.744 25.2617C234.249 25.2617 233.823 25.3659 233.465 25.5742C233.113 25.776 232.824 26.056 232.596 26.4141C232.374 26.7656 232.208 27.1758 232.098 27.6445C231.993 28.1068 231.941 28.6016 231.941 29.1289ZM248.719 23.9336V34.5H246.902V23.9336H248.719ZM246.766 21.1309C246.766 20.8379 246.854 20.5905 247.029 20.3887C247.212 20.1868 247.479 20.0859 247.83 20.0859C248.175 20.0859 248.439 20.1868 248.621 20.3887C248.81 20.5905 248.904 20.8379 248.904 21.1309C248.904 21.4108 248.81 21.6517 248.621 21.8535C248.439 22.0488 248.175 22.1465 247.83 22.1465C247.479 22.1465 247.212 22.0488 247.029 21.8535C246.854 21.6517 246.766 21.4108 246.766 21.1309ZM253.426 26.1895V34.5H251.619V23.9336H253.328L253.426 26.1895ZM252.996 28.8164L252.244 28.7871C252.251 28.0645 252.358 27.3971 252.566 26.7852C252.775 26.1667 253.068 25.6296 253.445 25.1738C253.823 24.7181 254.272 24.3665 254.793 24.1191C255.32 23.8652 255.903 23.7383 256.541 23.7383C257.062 23.7383 257.531 23.8099 257.947 23.9531C258.364 24.0898 258.719 24.3112 259.012 24.6172C259.311 24.9232 259.539 25.3203 259.695 25.8086C259.852 26.2904 259.93 26.8796 259.93 27.5762V34.5H258.113V27.5566C258.113 27.0033 258.032 26.5605 257.869 26.2285C257.706 25.89 257.469 25.6458 257.156 25.4961C256.844 25.3398 256.46 25.2617 256.004 25.2617C255.555 25.2617 255.145 25.3561 254.773 25.5449C254.409 25.7337 254.093 25.9941 253.826 26.3262C253.566 26.6582 253.361 27.0391 253.211 27.4688C253.068 27.8919 252.996 28.3411 252.996 28.8164ZM270.311 32.625L273.025 23.9336H274.217L273.982 25.6621L271.219 34.5H270.057L270.311 32.625ZM268.484 23.9336L270.799 32.7227L270.965 34.5H269.744L266.678 23.9336H268.484ZM276.814 32.6543L279.021 23.9336H280.818L277.752 34.5H276.541L276.814 32.6543ZM274.48 23.9336L277.137 32.4785L277.439 34.5H276.287L273.445 25.6426L273.211 23.9336H274.48ZM284.637 23.9336V34.5H282.82V23.9336H284.637ZM282.684 21.1309C282.684 20.8379 282.771 20.5905 282.947 20.3887C283.13 20.1868 283.396 20.0859 283.748 20.0859C284.093 20.0859 284.357 20.1868 284.539 20.3887C284.728 20.5905 284.822 20.8379 284.822 21.1309C284.822 21.4108 284.728 21.6517 284.539 21.8535C284.357 22.0488 284.093 22.1465 283.748 22.1465C283.396 22.1465 283.13 22.0488 282.947 21.8535C282.771 21.6517 282.684 21.4108 282.684 21.1309ZM291.961 23.9336V25.3203H286.248V23.9336H291.961ZM288.182 21.3652H289.988V31.8828C289.988 32.2409 290.044 32.5111 290.154 32.6934C290.265 32.8757 290.408 32.9961 290.584 33.0547C290.76 33.1133 290.949 33.1426 291.15 33.1426C291.3 33.1426 291.456 33.1296 291.619 33.1035C291.788 33.071 291.915 33.0449 292 33.0254L292.01 34.5C291.867 34.5456 291.678 34.5879 291.443 34.627C291.215 34.6725 290.939 34.6953 290.613 34.6953C290.171 34.6953 289.764 34.6074 289.393 34.4316C289.021 34.2559 288.725 33.9629 288.504 33.5527C288.289 33.1361 288.182 32.5762 288.182 31.873V21.3652ZM295.887 19.5V34.5H294.08V19.5H295.887ZM295.457 28.8164L294.705 28.7871C294.712 28.0645 294.819 27.3971 295.027 26.7852C295.236 26.1667 295.529 25.6296 295.906 25.1738C296.284 24.7181 296.733 24.3665 297.254 24.1191C297.781 23.8652 298.364 23.7383 299.002 23.7383C299.523 23.7383 299.992 23.8099 300.408 23.9531C300.825 24.0898 301.18 24.3112 301.473 24.6172C301.772 24.9232 302 25.3203 302.156 25.8086C302.312 26.2904 302.391 26.8796 302.391 27.5762V34.5H300.574V27.5566C300.574 27.0033 300.493 26.5605 300.33 26.2285C300.167 25.89 299.93 25.6458 299.617 25.4961C299.305 25.3398 298.921 25.2617 298.465 25.2617C298.016 25.2617 297.605 25.3561 297.234 25.5449C296.87 25.7337 296.554 25.9941 296.287 26.3262C296.027 26.6582 295.822 27.0391 295.672 27.4688C295.529 27.8919 295.457 28.3411 295.457 28.8164ZM320.838 27.4199V32.625C320.662 32.8854 320.382 33.1784 319.998 33.5039C319.614 33.8229 319.083 34.1029 318.406 34.3438C317.736 34.5781 316.87 34.6953 315.809 34.6953C314.943 34.6953 314.145 34.5456 313.416 34.2461C312.693 33.9401 312.065 33.4974 311.531 32.918C311.004 32.332 310.594 31.6224 310.301 30.7891C310.014 29.9492 309.871 28.9987 309.871 27.9375V26.834C309.871 25.7728 309.995 24.8255 310.242 23.9922C310.496 23.1589 310.867 22.4525 311.355 21.873C311.844 21.2871 312.443 20.8444 313.152 20.5449C313.862 20.2389 314.676 20.0859 315.594 20.0859C316.681 20.0859 317.589 20.2747 318.318 20.6523C319.054 21.0234 319.627 21.5378 320.037 22.1953C320.454 22.8529 320.721 23.6016 320.838 24.4414H318.953C318.868 23.9271 318.699 23.4583 318.445 23.0352C318.198 22.612 317.843 22.2734 317.381 22.0195C316.919 21.7591 316.323 21.6289 315.594 21.6289C314.936 21.6289 314.367 21.7493 313.885 21.9902C313.403 22.2311 313.006 22.5762 312.693 23.0254C312.381 23.4746 312.146 24.0182 311.99 24.6562C311.84 25.2943 311.766 26.0137 311.766 26.8145V27.9375C311.766 28.7578 311.86 29.4902 312.049 30.1348C312.244 30.7793 312.521 31.3294 312.879 31.7852C313.237 32.2344 313.663 32.5762 314.158 32.8105C314.66 33.0449 315.213 33.1621 315.818 33.1621C316.489 33.1621 317.033 33.1068 317.449 32.9961C317.866 32.8789 318.191 32.7422 318.426 32.5859C318.66 32.4232 318.839 32.2702 318.963 32.127V28.9434H315.672V27.4199H320.838ZM323.211 29.334V29.1094C323.211 28.3477 323.322 27.6413 323.543 26.9902C323.764 26.3327 324.083 25.763 324.5 25.2812C324.917 24.793 325.421 24.4154 326.014 24.1484C326.606 23.875 327.27 23.7383 328.006 23.7383C328.748 23.7383 329.415 23.875 330.008 24.1484C330.607 24.4154 331.115 24.793 331.531 25.2812C331.954 25.763 332.277 26.3327 332.498 26.9902C332.719 27.6413 332.83 28.3477 332.83 29.1094V29.334C332.83 30.0957 332.719 30.8021 332.498 31.4531C332.277 32.1042 331.954 32.6738 331.531 33.1621C331.115 33.6439 330.61 34.0215 330.018 34.2949C329.432 34.5618 328.768 34.6953 328.025 34.6953C327.283 34.6953 326.616 34.5618 326.023 34.2949C325.431 34.0215 324.923 33.6439 324.5 33.1621C324.083 32.6738 323.764 32.1042 323.543 31.4531C323.322 30.8021 323.211 30.0957 323.211 29.334ZM325.018 29.1094V29.334C325.018 29.8613 325.079 30.3594 325.203 30.8281C325.327 31.2904 325.512 31.7005 325.76 32.0586C326.014 32.4167 326.329 32.6999 326.707 32.9082C327.085 33.11 327.524 33.2109 328.025 33.2109C328.52 33.2109 328.953 33.11 329.324 32.9082C329.702 32.6999 330.014 32.4167 330.262 32.0586C330.509 31.7005 330.695 31.2904 330.818 30.8281C330.949 30.3594 331.014 29.8613 331.014 29.334V29.1094C331.014 28.5885 330.949 28.097 330.818 27.6348C330.695 27.166 330.506 26.7526 330.252 26.3945C330.005 26.0299 329.692 25.7435 329.314 25.5352C328.943 25.3268 328.507 25.2227 328.006 25.2227C327.511 25.2227 327.075 25.3268 326.697 25.5352C326.326 25.7435 326.014 26.0299 325.76 26.3945C325.512 26.7526 325.327 27.166 325.203 27.6348C325.079 28.097 325.018 28.5885 325.018 29.1094ZM334.617 29.334V29.1094C334.617 28.3477 334.728 27.6413 334.949 26.9902C335.171 26.3327 335.49 25.763 335.906 25.2812C336.323 24.793 336.827 24.4154 337.42 24.1484C338.012 23.875 338.676 23.7383 339.412 23.7383C340.154 23.7383 340.822 23.875 341.414 24.1484C342.013 24.4154 342.521 24.793 342.938 25.2812C343.361 25.763 343.683 26.3327 343.904 26.9902C344.126 27.6413 344.236 28.3477 344.236 29.1094V29.334C344.236 30.0957 344.126 30.8021 343.904 31.4531C343.683 32.1042 343.361 32.6738 342.938 33.1621C342.521 33.6439 342.016 34.0215 341.424 34.2949C340.838 34.5618 340.174 34.6953 339.432 34.6953C338.689 34.6953 338.022 34.5618 337.43 34.2949C336.837 34.0215 336.329 33.6439 335.906 33.1621C335.49 32.6738 335.171 32.1042 334.949 31.4531C334.728 30.8021 334.617 30.0957 334.617 29.334ZM336.424 29.1094V29.334C336.424 29.8613 336.486 30.3594 336.609 30.8281C336.733 31.2904 336.919 31.7005 337.166 32.0586C337.42 32.4167 337.736 32.6999 338.113 32.9082C338.491 33.11 338.93 33.2109 339.432 33.2109C339.926 33.2109 340.359 33.11 340.73 32.9082C341.108 32.6999 341.421 32.4167 341.668 32.0586C341.915 31.7005 342.101 31.2904 342.225 30.8281C342.355 30.3594 342.42 29.8613 342.42 29.334V29.1094C342.42 28.5885 342.355 28.097 342.225 27.6348C342.101 27.166 341.912 26.7526 341.658 26.3945C341.411 26.0299 341.098 25.7435 340.721 25.5352C340.35 25.3268 339.913 25.2227 339.412 25.2227C338.917 25.2227 338.481 25.3268 338.104 25.5352C337.732 25.7435 337.42 26.0299 337.166 26.3945C336.919 26.7526 336.733 27.166 336.609 27.6348C336.486 28.097 336.424 28.5885 336.424 29.1094ZM353.348 23.9336H354.988V34.2754C354.988 35.2064 354.799 36.0007 354.422 36.6582C354.044 37.3158 353.517 37.8138 352.84 38.1523C352.169 38.4974 351.395 38.6699 350.516 38.6699C350.151 38.6699 349.721 38.6113 349.227 38.4941C348.738 38.3835 348.257 38.1914 347.781 37.918C347.312 37.651 346.919 37.2897 346.6 36.834L347.547 35.7598C347.99 36.2936 348.452 36.6647 348.934 36.873C349.422 37.0814 349.904 37.1855 350.379 37.1855C350.952 37.1855 351.447 37.0781 351.863 36.8633C352.28 36.6484 352.602 36.3294 352.83 35.9062C353.064 35.4896 353.182 34.9753 353.182 34.3633V26.2578L353.348 23.9336ZM346.072 29.334V29.1289C346.072 28.3216 346.167 27.5892 346.355 26.9316C346.551 26.2676 346.827 25.6979 347.186 25.2227C347.55 24.7474 347.99 24.3828 348.504 24.1289C349.018 23.8685 349.598 23.7383 350.242 23.7383C350.906 23.7383 351.486 23.8555 351.98 24.0898C352.482 24.3177 352.905 24.653 353.25 25.0957C353.602 25.5319 353.878 26.0592 354.08 26.6777C354.282 27.2962 354.422 27.9961 354.5 28.7773V29.6758C354.428 30.4505 354.288 31.1471 354.08 31.7656C353.878 32.3841 353.602 32.9115 353.25 33.3477C352.905 33.7839 352.482 34.1191 351.98 34.3535C351.479 34.5814 350.893 34.6953 350.223 34.6953C349.591 34.6953 349.018 34.5618 348.504 34.2949C347.996 34.028 347.56 33.6536 347.195 33.1719C346.831 32.6901 346.551 32.1237 346.355 31.4727C346.167 30.8151 346.072 30.1022 346.072 29.334ZM347.879 29.1289V29.334C347.879 29.8613 347.931 30.3561 348.035 30.8184C348.146 31.2806 348.312 31.6875 348.533 32.0391C348.761 32.3906 349.051 32.6673 349.402 32.8691C349.754 33.0645 350.174 33.1621 350.662 33.1621C351.261 33.1621 351.756 33.0352 352.146 32.7812C352.537 32.5273 352.846 32.1921 353.074 31.7754C353.309 31.3587 353.491 30.9062 353.621 30.418V28.0645C353.549 27.7064 353.439 27.3613 353.289 27.0293C353.146 26.6908 352.957 26.3913 352.723 26.1309C352.495 25.8639 352.212 25.6523 351.873 25.4961C351.535 25.3398 351.137 25.2617 350.682 25.2617C350.187 25.2617 349.76 25.3659 349.402 25.5742C349.051 25.776 348.761 26.056 348.533 26.4141C348.312 26.7656 348.146 27.1758 348.035 27.6445C347.931 28.1068 347.879 28.6016 347.879 29.1289ZM359.695 19.5V34.5H357.879V19.5H359.695ZM366.98 34.6953C366.245 34.6953 365.577 34.5716 364.979 34.3242C364.386 34.0703 363.875 33.7155 363.445 33.2598C363.022 32.804 362.697 32.2637 362.469 31.6387C362.241 31.0137 362.127 30.3301 362.127 29.5879V29.1777C362.127 28.3184 362.254 27.5534 362.508 26.8828C362.762 26.2057 363.107 25.6328 363.543 25.1641C363.979 24.6953 364.474 24.3405 365.027 24.0996C365.581 23.8587 366.154 23.7383 366.746 23.7383C367.501 23.7383 368.152 23.8685 368.699 24.1289C369.253 24.3893 369.705 24.7539 370.057 25.2227C370.408 25.6849 370.669 26.2318 370.838 26.8633C371.007 27.4883 371.092 28.1719 371.092 28.9141V29.7246H363.201V28.25H369.285V28.1133C369.259 27.6445 369.161 27.1888 368.992 26.7461C368.829 26.3034 368.569 25.9388 368.211 25.6523C367.853 25.3659 367.365 25.2227 366.746 25.2227C366.336 25.2227 365.958 25.3105 365.613 25.4863C365.268 25.6556 364.972 25.9095 364.725 26.248C364.477 26.5866 364.285 27 364.148 27.4883C364.012 27.9766 363.943 28.5397 363.943 29.1777V29.5879C363.943 30.0892 364.012 30.5612 364.148 31.0039C364.292 31.4401 364.497 31.8242 364.764 32.1562C365.037 32.4883 365.366 32.7487 365.75 32.9375C366.141 33.1263 366.583 33.2207 367.078 33.2207C367.716 33.2207 368.257 33.0905 368.699 32.8301C369.142 32.5697 369.529 32.2214 369.861 31.7852L370.955 32.6543C370.727 32.9993 370.438 33.3281 370.086 33.6406C369.734 33.9531 369.301 34.207 368.787 34.4023C368.279 34.5977 367.677 34.6953 366.98 34.6953Z" fill="#444545"/>
<defs>
<clipPath id="clip0_18_1925">
<rect width="26" height="26" fill="white" transform="translate(131 15)"/>
</clipPath>
</defs>
</svg>
