<svg width="502" height="57" viewBox="0 0 502 57" fill="none" xmlns="http://www.w3.org/2000/svg">
<rect x="0.5" y="0.5" width="501" height="56" rx="22.5" stroke="#4E8CDB"/>
<path d="M150.664 39.0371C149.372 40.3036 147.961 40.1036 146.602 39.5037C145.165 38.8904 143.846 38.8638 142.33 39.5037C140.431 40.3303 139.429 40.0903 138.295 39.0371C131.86 32.3313 132.809 22.1192 140.115 21.7459C141.895 21.8393 143.134 22.7325 144.176 22.8125C145.732 22.4925 147.222 21.5726 148.884 21.6926C150.875 21.8526 152.378 22.6525 153.367 24.0923C149.253 26.5853 150.229 32.0646 154 33.5978C153.248 35.5975 152.273 37.5839 150.651 39.0504L150.664 39.0371ZM144.044 21.666C143.846 18.693 146.233 16.24 148.976 16C149.358 19.4396 145.89 21.9992 144.044 21.666Z" fill="#B2B2B2"/>
<path d="M217.273 32.9668V34.5H210.164V32.9668H217.273ZM210.535 20.2812V34.5H208.65V20.2812H210.535ZM218.68 29.334V29.1094C218.68 28.3477 218.79 27.6413 219.012 26.9902C219.233 26.3327 219.552 25.763 219.969 25.2812C220.385 24.793 220.89 24.4154 221.482 24.1484C222.075 23.875 222.739 23.7383 223.475 23.7383C224.217 23.7383 224.884 23.875 225.477 24.1484C226.076 24.4154 226.583 24.793 227 25.2812C227.423 25.763 227.745 26.3327 227.967 26.9902C228.188 27.6413 228.299 28.3477 228.299 29.1094V29.334C228.299 30.0957 228.188 30.8021 227.967 31.4531C227.745 32.1042 227.423 32.6738 227 33.1621C226.583 33.6439 226.079 34.0215 225.486 34.2949C224.9 34.5618 224.236 34.6953 223.494 34.6953C222.752 34.6953 222.085 34.5618 221.492 34.2949C220.9 34.0215 220.392 33.6439 219.969 33.1621C219.552 32.6738 219.233 32.1042 219.012 31.4531C218.79 30.8021 218.68 30.0957 218.68 29.334ZM220.486 29.1094V29.334C220.486 29.8613 220.548 30.3594 220.672 30.8281C220.796 31.2904 220.981 31.7005 221.229 32.0586C221.482 32.4167 221.798 32.6999 222.176 32.9082C222.553 33.11 222.993 33.2109 223.494 33.2109C223.989 33.2109 224.422 33.11 224.793 32.9082C225.171 32.6999 225.483 32.4167 225.73 32.0586C225.978 31.7005 226.163 31.2904 226.287 30.8281C226.417 30.3594 226.482 29.8613 226.482 29.334V29.1094C226.482 28.5885 226.417 28.097 226.287 27.6348C226.163 27.166 225.975 26.7526 225.721 26.3945C225.473 26.0299 225.161 25.7435 224.783 25.5352C224.412 25.3268 223.976 25.2227 223.475 25.2227C222.98 25.2227 222.544 25.3268 222.166 25.5352C221.795 25.7435 221.482 26.0299 221.229 26.3945C220.981 26.7526 220.796 27.166 220.672 27.6348C220.548 28.097 220.486 28.5885 220.486 29.1094ZM237.41 23.9336H239.051V34.2754C239.051 35.2064 238.862 36.0007 238.484 36.6582C238.107 37.3158 237.579 37.8138 236.902 38.1523C236.232 38.4974 235.457 38.6699 234.578 38.6699C234.214 38.6699 233.784 38.6113 233.289 38.4941C232.801 38.3835 232.319 38.1914 231.844 37.918C231.375 37.651 230.981 37.2897 230.662 36.834L231.609 35.7598C232.052 36.2936 232.514 36.6647 232.996 36.873C233.484 37.0814 233.966 37.1855 234.441 37.1855C235.014 37.1855 235.509 37.0781 235.926 36.8633C236.342 36.6484 236.665 36.3294 236.893 35.9062C237.127 35.4896 237.244 34.9753 237.244 34.3633V26.2578L237.41 23.9336ZM230.135 29.334V29.1289C230.135 28.3216 230.229 27.5892 230.418 26.9316C230.613 26.2676 230.89 25.6979 231.248 25.2227C231.613 24.7474 232.052 24.3828 232.566 24.1289C233.081 23.8685 233.66 23.7383 234.305 23.7383C234.969 23.7383 235.548 23.8555 236.043 24.0898C236.544 24.3177 236.967 24.653 237.312 25.0957C237.664 25.5319 237.941 26.0592 238.143 26.6777C238.344 27.2962 238.484 27.9961 238.562 28.7773V29.6758C238.491 30.4505 238.351 31.1471 238.143 31.7656C237.941 32.3841 237.664 32.9115 237.312 33.3477C236.967 33.7839 236.544 34.1191 236.043 34.3535C235.542 34.5814 234.956 34.6953 234.285 34.6953C233.654 34.6953 233.081 34.5618 232.566 34.2949C232.059 34.028 231.622 33.6536 231.258 33.1719C230.893 32.6901 230.613 32.1237 230.418 31.4727C230.229 30.8151 230.135 30.1022 230.135 29.334ZM231.941 29.1289V29.334C231.941 29.8613 231.993 30.3561 232.098 30.8184C232.208 31.2806 232.374 31.6875 232.596 32.0391C232.824 32.3906 233.113 32.6673 233.465 32.8691C233.816 33.0645 234.236 33.1621 234.725 33.1621C235.324 33.1621 235.818 33.0352 236.209 32.7812C236.6 32.5273 236.909 32.1921 237.137 31.7754C237.371 31.3587 237.553 30.9062 237.684 30.418V28.0645C237.612 27.7064 237.501 27.3613 237.352 27.0293C237.208 26.6908 237.02 26.3913 236.785 26.1309C236.557 25.8639 236.274 25.6523 235.936 25.4961C235.597 25.3398 235.2 25.2617 234.744 25.2617C234.249 25.2617 233.823 25.3659 233.465 25.5742C233.113 25.776 232.824 26.056 232.596 26.4141C232.374 26.7656 232.208 27.1758 232.098 27.6445C231.993 28.1068 231.941 28.6016 231.941 29.1289ZM248.719 23.9336V34.5H246.902V23.9336H248.719ZM246.766 21.1309C246.766 20.8379 246.854 20.5905 247.029 20.3887C247.212 20.1868 247.479 20.0859 247.83 20.0859C248.175 20.0859 248.439 20.1868 248.621 20.3887C248.81 20.5905 248.904 20.8379 248.904 21.1309C248.904 21.4108 248.81 21.6517 248.621 21.8535C248.439 22.0488 248.175 22.1465 247.83 22.1465C247.479 22.1465 247.212 22.0488 247.029 21.8535C246.854 21.6517 246.766 21.4108 246.766 21.1309ZM253.426 26.1895V34.5H251.619V23.9336H253.328L253.426 26.1895ZM252.996 28.8164L252.244 28.7871C252.251 28.0645 252.358 27.3971 252.566 26.7852C252.775 26.1667 253.068 25.6296 253.445 25.1738C253.823 24.7181 254.272 24.3665 254.793 24.1191C255.32 23.8652 255.903 23.7383 256.541 23.7383C257.062 23.7383 257.531 23.8099 257.947 23.9531C258.364 24.0898 258.719 24.3112 259.012 24.6172C259.311 24.9232 259.539 25.3203 259.695 25.8086C259.852 26.2904 259.93 26.8796 259.93 27.5762V34.5H258.113V27.5566C258.113 27.0033 258.032 26.5605 257.869 26.2285C257.706 25.89 257.469 25.6458 257.156 25.4961C256.844 25.3398 256.46 25.2617 256.004 25.2617C255.555 25.2617 255.145 25.3561 254.773 25.5449C254.409 25.7337 254.093 25.9941 253.826 26.3262C253.566 26.6582 253.361 27.0391 253.211 27.4688C253.068 27.8919 252.996 28.3411 252.996 28.8164ZM270.311 32.625L273.025 23.9336H274.217L273.982 25.6621L271.219 34.5H270.057L270.311 32.625ZM268.484 23.9336L270.799 32.7227L270.965 34.5H269.744L266.678 23.9336H268.484ZM276.814 32.6543L279.021 23.9336H280.818L277.752 34.5H276.541L276.814 32.6543ZM274.48 23.9336L277.137 32.4785L277.439 34.5H276.287L273.445 25.6426L273.211 23.9336H274.48ZM284.637 23.9336V34.5H282.82V23.9336H284.637ZM282.684 21.1309C282.684 20.8379 282.771 20.5905 282.947 20.3887C283.13 20.1868 283.396 20.0859 283.748 20.0859C284.093 20.0859 284.357 20.1868 284.539 20.3887C284.728 20.5905 284.822 20.8379 284.822 21.1309C284.822 21.4108 284.728 21.6517 284.539 21.8535C284.357 22.0488 284.093 22.1465 283.748 22.1465C283.396 22.1465 283.13 22.0488 282.947 21.8535C282.771 21.6517 282.684 21.4108 282.684 21.1309ZM291.961 23.9336V25.3203H286.248V23.9336H291.961ZM288.182 21.3652H289.988V31.8828C289.988 32.2409 290.044 32.5111 290.154 32.6934C290.265 32.8757 290.408 32.9961 290.584 33.0547C290.76 33.1133 290.949 33.1426 291.15 33.1426C291.3 33.1426 291.456 33.1296 291.619 33.1035C291.788 33.071 291.915 33.0449 292 33.0254L292.01 34.5C291.867 34.5456 291.678 34.5879 291.443 34.627C291.215 34.6725 290.939 34.6953 290.613 34.6953C290.171 34.6953 289.764 34.6074 289.393 34.4316C289.021 34.2559 288.725 33.9629 288.504 33.5527C288.289 33.1361 288.182 32.5762 288.182 31.873V21.3652ZM295.887 19.5V34.5H294.08V19.5H295.887ZM295.457 28.8164L294.705 28.7871C294.712 28.0645 294.819 27.3971 295.027 26.7852C295.236 26.1667 295.529 25.6296 295.906 25.1738C296.284 24.7181 296.733 24.3665 297.254 24.1191C297.781 23.8652 298.364 23.7383 299.002 23.7383C299.523 23.7383 299.992 23.8099 300.408 23.9531C300.825 24.0898 301.18 24.3112 301.473 24.6172C301.772 24.9232 302 25.3203 302.156 25.8086C302.312 26.2904 302.391 26.8796 302.391 27.5762V34.5H300.574V27.5566C300.574 27.0033 300.493 26.5605 300.33 26.2285C300.167 25.89 299.93 25.6458 299.617 25.4961C299.305 25.3398 298.921 25.2617 298.465 25.2617C298.016 25.2617 297.605 25.3561 297.234 25.5449C296.87 25.7337 296.554 25.9941 296.287 26.3262C296.027 26.6582 295.822 27.0391 295.672 27.4688C295.529 27.8919 295.457 28.3411 295.457 28.8164ZM315.594 21.541L310.887 34.5H308.963L314.383 20.2812H315.623L315.594 21.541ZM319.539 34.5L314.822 21.541L314.793 20.2812H316.033L321.473 34.5H319.539ZM319.295 29.2363V30.7793H311.307V29.2363H319.295ZM324.91 25.9648V38.5625H323.094V23.9336H324.754L324.91 25.9648ZM332.029 29.1289V29.334C332.029 30.1022 331.938 30.8151 331.756 31.4727C331.574 32.1237 331.307 32.6901 330.955 33.1719C330.61 33.6536 330.184 34.028 329.676 34.2949C329.168 34.5618 328.585 34.6953 327.928 34.6953C327.257 34.6953 326.665 34.5846 326.15 34.3633C325.636 34.1419 325.2 33.8197 324.842 33.3965C324.484 32.9733 324.197 32.4655 323.982 31.873C323.774 31.2806 323.631 30.6133 323.553 29.8711V28.7773C323.631 27.9961 323.777 27.2962 323.992 26.6777C324.207 26.0592 324.49 25.5319 324.842 25.0957C325.2 24.653 325.633 24.3177 326.141 24.0898C326.648 23.8555 327.234 23.7383 327.898 23.7383C328.562 23.7383 329.152 23.8685 329.666 24.1289C330.18 24.3828 330.613 24.7474 330.965 25.2227C331.316 25.6979 331.58 26.2676 331.756 26.9316C331.938 27.5892 332.029 28.3216 332.029 29.1289ZM330.213 29.334V29.1289C330.213 28.6016 330.158 28.1068 330.047 27.6445C329.936 27.1758 329.764 26.7656 329.529 26.4141C329.301 26.056 329.008 25.776 328.65 25.5742C328.292 25.3659 327.866 25.2617 327.371 25.2617C326.915 25.2617 326.518 25.3398 326.18 25.4961C325.848 25.6523 325.564 25.8639 325.33 26.1309C325.096 26.3913 324.904 26.6908 324.754 27.0293C324.611 27.3613 324.503 27.7064 324.432 28.0645V30.5938C324.562 31.0495 324.744 31.4792 324.979 31.8828C325.213 32.2799 325.525 32.6022 325.916 32.8496C326.307 33.0905 326.798 33.2109 327.391 33.2109C327.879 33.2109 328.299 33.11 328.65 32.9082C329.008 32.6999 329.301 32.4167 329.529 32.0586C329.764 31.7005 329.936 31.2904 330.047 30.8281C330.158 30.3594 330.213 29.8613 330.213 29.334ZM336.141 25.9648V38.5625H334.324V23.9336H335.984L336.141 25.9648ZM343.26 29.1289V29.334C343.26 30.1022 343.169 30.8151 342.986 31.4727C342.804 32.1237 342.537 32.6901 342.186 33.1719C341.84 33.6536 341.414 34.028 340.906 34.2949C340.398 34.5618 339.816 34.6953 339.158 34.6953C338.488 34.6953 337.895 34.5846 337.381 34.3633C336.867 34.1419 336.43 33.8197 336.072 33.3965C335.714 32.9733 335.428 32.4655 335.213 31.873C335.005 31.2806 334.861 30.6133 334.783 29.8711V28.7773C334.861 27.9961 335.008 27.2962 335.223 26.6777C335.438 26.0592 335.721 25.5319 336.072 25.0957C336.43 24.653 336.863 24.3177 337.371 24.0898C337.879 23.8555 338.465 23.7383 339.129 23.7383C339.793 23.7383 340.382 23.8685 340.896 24.1289C341.411 24.3828 341.844 24.7474 342.195 25.2227C342.547 25.6979 342.811 26.2676 342.986 26.9316C343.169 27.5892 343.26 28.3216 343.26 29.1289ZM341.443 29.334V29.1289C341.443 28.6016 341.388 28.1068 341.277 27.6445C341.167 27.1758 340.994 26.7656 340.76 26.4141C340.532 26.056 340.239 25.776 339.881 25.5742C339.523 25.3659 339.096 25.2617 338.602 25.2617C338.146 25.2617 337.749 25.3398 337.41 25.4961C337.078 25.6523 336.795 25.8639 336.561 26.1309C336.326 26.3913 336.134 26.6908 335.984 27.0293C335.841 27.3613 335.734 27.7064 335.662 28.0645V30.5938C335.792 31.0495 335.975 31.4792 336.209 31.8828C336.443 32.2799 336.756 32.6022 337.146 32.8496C337.537 33.0905 338.029 33.2109 338.621 33.2109C339.109 33.2109 339.529 33.11 339.881 32.9082C340.239 32.6999 340.532 32.4167 340.76 32.0586C340.994 31.7005 341.167 31.2904 341.277 30.8281C341.388 30.3594 341.443 29.8613 341.443 29.334ZM347.527 19.5V34.5H345.711V19.5H347.527ZM354.812 34.6953C354.077 34.6953 353.41 34.5716 352.811 34.3242C352.218 34.0703 351.707 33.7155 351.277 33.2598C350.854 32.804 350.529 32.2637 350.301 31.6387C350.073 31.0137 349.959 30.3301 349.959 29.5879V29.1777C349.959 28.3184 350.086 27.5534 350.34 26.8828C350.594 26.2057 350.939 25.6328 351.375 25.1641C351.811 24.6953 352.306 24.3405 352.859 24.0996C353.413 23.8587 353.986 23.7383 354.578 23.7383C355.333 23.7383 355.984 23.8685 356.531 24.1289C357.085 24.3893 357.537 24.7539 357.889 25.2227C358.24 25.6849 358.501 26.2318 358.67 26.8633C358.839 27.4883 358.924 28.1719 358.924 28.9141V29.7246H351.033V28.25H357.117V28.1133C357.091 27.6445 356.993 27.1888 356.824 26.7461C356.661 26.3034 356.401 25.9388 356.043 25.6523C355.685 25.3659 355.197 25.2227 354.578 25.2227C354.168 25.2227 353.79 25.3105 353.445 25.4863C353.1 25.6556 352.804 25.9095 352.557 26.248C352.309 26.5866 352.117 27 351.98 27.4883C351.844 27.9766 351.775 28.5397 351.775 29.1777V29.5879C351.775 30.0892 351.844 30.5612 351.98 31.0039C352.124 31.4401 352.329 31.8242 352.596 32.1562C352.869 32.4883 353.198 32.7487 353.582 32.9375C353.973 33.1263 354.415 33.2207 354.91 33.2207C355.548 33.2207 356.089 33.0905 356.531 32.8301C356.974 32.5697 357.361 32.2214 357.693 31.7852L358.787 32.6543C358.559 32.9993 358.27 33.3281 357.918 33.6406C357.566 33.9531 357.133 34.207 356.619 34.4023C356.111 34.5977 355.509 34.6953 354.812 34.6953Z" fill="#444545"/>
</svg>
