<svg width="208" height="63" viewBox="0 0 208 63" fill="none" xmlns="http://www.w3.org/2000/svg">
<rect opacity="0.3" x="0.895226" y="0.600298" width="206.505" height="61.231" rx="9.00456" stroke="white" stroke-width="1.20061"/>
<path d="M82.6711 36.3608C82.6711 36.6345 82.5414 36.793 82.2821 36.8362C81.749 36.9227 81.1511 36.9947 80.4884 37.0524C79.8401 37.1244 79.0044 37.1604 77.9815 37.1604C77.3044 37.1604 76.6272 37.0452 75.9501 36.8146C75.2874 36.5697 74.6895 36.1879 74.1564 35.6693C73.6377 35.1362 73.2127 34.4446 72.8813 33.5946C72.55 32.7302 72.3843 31.6784 72.3843 30.4394V27.5435C72.3843 26.2325 72.5572 25.1447 72.903 24.2803C73.2487 23.4159 73.6954 22.7243 74.2428 22.2056C74.7903 21.687 75.4098 21.3268 76.1014 21.1251C76.7929 20.909 77.4845 20.8009 78.176 20.8009C79.1845 20.8009 80.013 20.8369 80.6613 20.909C81.324 20.9666 81.8643 21.0314 82.2821 21.1035C82.383 21.1179 82.4694 21.1467 82.5414 21.1899C82.6135 21.2331 82.6495 21.3124 82.6495 21.4276V22.5082C82.6495 22.6523 82.5558 22.7243 82.3686 22.7243H82.2821C81.9651 22.6955 81.6554 22.6739 81.3528 22.6595C81.0647 22.6307 80.7621 22.6162 80.4452 22.6162C80.1282 22.6018 79.7824 22.5946 79.4079 22.5946C79.0477 22.5802 78.6371 22.573 78.176 22.573C77.6718 22.573 77.1891 22.6523 76.7281 22.8107C76.2671 22.9548 75.8565 23.2214 75.4963 23.6104C75.1505 23.9849 74.8696 24.4964 74.6534 25.1447C74.4517 25.7786 74.3509 26.5783 74.3509 27.5435V30.4394C74.3509 31.3327 74.4445 32.0962 74.6318 32.7302C74.8191 33.3497 75.0785 33.8611 75.4098 34.2645C75.7412 34.668 76.123 34.9633 76.5552 35.1506C77.0018 35.3235 77.4773 35.4099 77.9815 35.4099C78.6443 35.4099 79.1989 35.3955 79.6456 35.3667C80.0922 35.3379 80.4452 35.3091 80.7045 35.2803V29.0995C80.7045 28.9843 80.7405 28.8834 80.8126 28.797C80.8846 28.7105 80.9782 28.6673 81.0935 28.6673H82.2605C82.3758 28.6673 82.4694 28.7105 82.5414 28.797C82.6279 28.8834 82.6711 28.9843 82.6711 29.0995V36.3608ZM95.0608 31.8873C95.0608 32.6797 94.9599 33.4001 94.7582 34.0484C94.5565 34.6968 94.2539 35.2514 93.8505 35.7125C93.4471 36.1735 92.9429 36.5337 92.3378 36.793C91.7327 37.038 91.0339 37.1604 90.2415 37.1604C89.4491 37.1604 88.7504 37.038 88.1453 36.793C87.5546 36.5337 87.0575 36.1735 86.6541 35.7125C86.2507 35.2514 85.9481 34.6968 85.7464 34.0484C85.5447 33.4001 85.4439 32.6797 85.4439 31.8873V30.2449C85.4439 29.4525 85.5447 28.7321 85.7464 28.0838C85.9481 27.4355 86.2507 26.8808 86.6541 26.4198C87.0575 25.9587 87.5546 25.6058 88.1453 25.3608C88.7504 25.1015 89.4491 24.9718 90.2415 24.9718C91.0339 24.9718 91.7327 25.1015 92.3378 25.3608C92.9429 25.6058 93.4471 25.9587 93.8505 26.4198C94.2539 26.8808 94.5565 27.4355 94.7582 28.0838C94.9599 28.7321 95.0608 29.4525 95.0608 30.2449V31.8873ZM93.159 30.2449C93.159 29.1355 92.9285 28.2567 92.4674 27.6084C92.0064 26.96 91.2644 26.6359 90.2415 26.6359C89.233 26.6359 88.4982 26.96 88.0372 27.6084C87.5762 28.2423 87.3457 29.1211 87.3457 30.2449V31.8873C87.3457 32.9967 87.569 33.8755 88.0156 34.5239C88.4766 35.1722 89.2186 35.4964 90.2415 35.4964C91.25 35.4964 91.9848 35.1794 92.4458 34.5455C92.9213 33.8972 93.159 33.0111 93.159 31.8873V30.2449ZM106.837 31.8873C106.837 32.6797 106.736 33.4001 106.534 34.0484C106.333 34.6968 106.03 35.2514 105.627 35.7125C105.223 36.1735 104.719 36.5337 104.114 36.793C103.509 37.038 102.81 37.1604 102.018 37.1604C101.225 37.1604 100.527 37.038 99.9215 36.793C99.3308 36.5337 98.8338 36.1735 98.4304 35.7125C98.027 35.2514 97.7244 34.6968 97.5227 34.0484C97.321 33.4001 97.2202 32.6797 97.2202 31.8873V30.2449C97.2202 29.4525 97.321 28.7321 97.5227 28.0838C97.7244 27.4355 98.027 26.8808 98.4304 26.4198C98.8338 25.9587 99.3308 25.6058 99.9215 25.3608C100.527 25.1015 101.225 24.9718 102.018 24.9718C102.81 24.9718 103.509 25.1015 104.114 25.3608C104.719 25.6058 105.223 25.9587 105.627 26.4198C106.03 26.8808 106.333 27.4355 106.534 28.0838C106.736 28.7321 106.837 29.4525 106.837 30.2449V31.8873ZM104.935 30.2449C104.935 29.1355 104.705 28.2567 104.244 27.6084C103.783 26.96 103.041 26.6359 102.018 26.6359C101.009 26.6359 100.275 26.96 99.8135 27.6084C99.3524 28.2423 99.1219 29.1211 99.1219 30.2449V31.8873C99.1219 32.9967 99.3452 33.8755 99.7919 34.5239C100.253 35.1722 100.995 35.4964 102.018 35.4964C103.026 35.4964 103.761 35.1794 104.222 34.5455C104.698 33.8972 104.935 33.0111 104.935 31.8873V30.2449ZM119.218 26.1604C119.218 26.3045 119.182 26.4054 119.11 26.463C119.038 26.5062 118.945 26.5422 118.829 26.5711L118.051 26.7223C118.253 26.924 118.426 27.1978 118.57 27.5435C118.714 27.8893 118.786 28.3576 118.786 28.9483V29.1211C118.786 30.3169 118.404 31.2318 117.641 31.8657C116.877 32.4997 115.66 32.8166 113.989 32.8166C113.412 32.8166 112.93 32.7806 112.541 32.7086C112.152 32.6221 111.799 32.5141 111.482 32.3844C111.122 32.5573 110.941 32.8022 110.941 33.1192C110.941 33.3065 110.992 33.4505 111.093 33.5514C111.194 33.6522 111.366 33.7387 111.611 33.8107L114.831 34.6319C115.364 34.7616 115.876 34.9057 116.366 35.0642C116.87 35.2226 117.317 35.4243 117.706 35.6693C118.095 35.8998 118.404 36.1879 118.635 36.5337C118.865 36.8795 118.981 37.3045 118.981 37.8087V37.9816C118.981 39.019 118.599 39.833 117.835 40.4237C117.086 41.0288 115.825 41.3313 114.053 41.3313C112.339 41.3313 111.078 41.0216 110.271 40.4021C109.479 39.7969 109.083 38.9613 109.083 37.8952V37.7007C109.083 37.0956 109.22 36.5553 109.493 36.0799C109.767 35.6044 110.084 35.2298 110.444 34.9561L110.293 34.8913C109.947 34.7328 109.695 34.4951 109.537 34.1781C109.378 33.8611 109.299 33.537 109.299 33.2056V33.184C109.299 32.8959 109.371 32.6077 109.515 32.3196C109.659 32.0314 109.882 31.8009 110.185 31.628C109.854 31.3111 109.602 30.9509 109.429 30.5475C109.27 30.1441 109.191 29.6686 109.191 29.1211V28.9483C109.191 28.4728 109.263 28.0046 109.407 27.5435C109.566 27.0825 109.825 26.6719 110.185 26.3117C110.56 25.9515 111.049 25.6634 111.655 25.4473C112.274 25.2312 113.052 25.1231 113.989 25.1231H118.721C118.851 25.1231 118.966 25.1735 119.067 25.2744C119.168 25.3608 119.218 25.4689 119.218 25.5986V26.1604ZM116.906 28.9483C116.906 28.6313 116.863 28.3287 116.776 28.0406C116.69 27.7524 116.539 27.5075 116.323 27.3058C116.106 27.1041 115.804 26.9456 115.415 26.8304C115.04 26.7007 114.565 26.6359 113.989 26.6359C113.383 26.6359 112.886 26.7007 112.497 26.8304C112.123 26.96 111.827 27.1329 111.611 27.349C111.41 27.5507 111.266 27.7957 111.179 28.0838C111.107 28.3576 111.071 28.6457 111.071 28.9483V29.1211C111.071 29.3661 111.107 29.6182 111.179 29.8775C111.251 30.1369 111.388 30.3746 111.59 30.5907C111.806 30.8068 112.101 30.9869 112.476 31.131C112.865 31.2606 113.369 31.3255 113.989 31.3255C114.565 31.3255 115.04 31.275 115.415 31.1742C115.804 31.0589 116.106 30.9076 116.323 30.7204C116.539 30.5186 116.69 30.2881 116.776 30.0288C116.863 29.7551 116.906 29.4525 116.906 29.1211V28.9483ZM117.079 37.8087C117.079 37.3909 116.877 37.0668 116.474 36.8362C116.085 36.6057 115.408 36.368 114.442 36.1231L112 35.4964C111.683 35.7701 111.424 36.0655 111.222 36.3824C111.035 36.6994 110.941 37.1388 110.941 37.7007V37.8952C110.941 38.1977 110.992 38.4715 111.093 38.7164C111.194 38.9613 111.359 39.163 111.59 39.3215C111.835 39.4944 112.152 39.6241 112.541 39.7105C112.944 39.8114 113.448 39.8618 114.053 39.8618C114.673 39.8618 115.177 39.8186 115.566 39.7321C115.955 39.6457 116.258 39.5232 116.474 39.3647C116.704 39.2062 116.863 39.0118 116.949 38.7812C117.036 38.5507 117.079 38.2842 117.079 37.9816V37.8087ZM123.575 36.5769C123.575 36.6922 123.539 36.793 123.467 36.8795C123.395 36.9659 123.301 37.0091 123.186 37.0091H122.062C121.947 37.0091 121.853 36.9659 121.781 36.8795C121.709 36.793 121.673 36.6922 121.673 36.5769V21.1683C121.673 21.0531 121.709 20.9594 121.781 20.8874C121.853 20.8009 121.947 20.7577 122.062 20.7577H123.186C123.301 20.7577 123.395 20.8009 123.467 20.8874C123.539 20.9594 123.575 21.0531 123.575 21.1683V36.5769ZM135.896 31.1958C135.896 31.5128 135.759 31.6712 135.486 31.6712H128.246V31.9738C128.246 33.256 128.498 34.1637 129.002 34.6968C129.507 35.2298 130.256 35.4964 131.25 35.4964C131.884 35.4964 132.554 35.4748 133.26 35.4315C133.98 35.3883 134.592 35.3307 135.097 35.2586H135.205C135.291 35.2586 135.37 35.2803 135.442 35.3235C135.515 35.3667 135.551 35.4459 135.551 35.5612V36.296C135.551 36.44 135.522 36.5553 135.464 36.6418C135.406 36.7138 135.291 36.7642 135.118 36.793C134.499 36.9083 133.879 36.9947 133.26 37.0524C132.655 37.1244 131.985 37.1604 131.25 37.1604C130.63 37.1604 130.025 37.0812 129.435 36.9227C128.844 36.7498 128.318 36.4689 127.857 36.0799C127.41 35.6765 127.043 35.1434 126.755 34.4807C126.481 33.8179 126.344 32.9823 126.344 31.9738V30.0288C126.344 28.4728 126.755 27.241 127.576 26.3333C128.397 25.4257 129.586 24.9718 131.142 24.9718C131.934 24.9718 132.626 25.0943 133.217 25.3392C133.807 25.5697 134.297 25.9083 134.686 26.3549C135.09 26.7872 135.392 27.3202 135.594 27.9542C135.795 28.5737 135.896 29.2652 135.896 30.0288V31.1958ZM133.973 30.0288C133.973 28.8042 133.735 27.9325 133.26 27.4139C132.799 26.8952 132.093 26.6359 131.142 26.6359C130.205 26.6359 129.485 26.9096 128.981 27.4571C128.491 28.0046 128.246 28.8618 128.246 30.0288V30.2233H133.973V30.0288ZM154.201 25.7714C154.201 26.6791 154.05 27.4427 153.747 28.0622C153.445 28.6673 153.02 29.1644 152.472 29.5534C151.939 29.928 151.305 30.2017 150.57 30.3746C149.836 30.5331 149.029 30.6123 148.15 30.6123C147.804 30.6123 147.43 30.6051 147.026 30.5907C146.623 30.5619 146.277 30.5331 145.989 30.5042V36.5769C145.989 36.6922 145.953 36.793 145.881 36.8795C145.809 36.9659 145.715 37.0091 145.6 37.0091H144.433C144.318 37.0091 144.224 36.9659 144.152 36.8795C144.08 36.793 144.044 36.6922 144.044 36.5769V21.5141C144.044 21.1971 144.217 21.017 144.563 20.9738C145.024 20.9162 145.578 20.873 146.227 20.8442C146.875 20.8153 147.516 20.8009 148.15 20.8009C149.029 20.8009 149.836 20.8874 150.57 21.0603C151.305 21.2187 151.939 21.4853 152.472 21.8599C153.02 22.22 153.445 22.7027 153.747 23.3078C154.05 23.8985 154.201 24.6261 154.201 25.4905V25.7714ZM152.235 25.4905C152.235 24.3955 151.903 23.6176 151.24 23.1565C150.578 22.6955 149.548 22.465 148.15 22.465C147.819 22.465 147.437 22.4722 147.005 22.4866C146.587 22.501 146.248 22.5226 145.989 22.5514V28.8834C146.119 28.8834 146.277 28.8906 146.464 28.905C146.652 28.9194 146.846 28.9338 147.048 28.9483C147.25 28.9483 147.444 28.9555 147.631 28.9699C147.833 28.9699 148.006 28.9699 148.15 28.9699C149.634 28.9699 150.686 28.7177 151.305 28.2135C151.925 27.7092 152.235 26.8952 152.235 25.7714V25.4905ZM158.756 36.5769C158.756 36.6922 158.72 36.793 158.648 36.8795C158.576 36.9659 158.482 37.0091 158.367 37.0091H157.243C157.128 37.0091 157.034 36.9659 156.962 36.8795C156.89 36.793 156.854 36.6922 156.854 36.5769V21.1683C156.854 21.0531 156.89 20.9594 156.962 20.8874C157.034 20.8009 157.128 20.7577 157.243 20.7577H158.367C158.482 20.7577 158.576 20.8009 158.648 20.8874C158.72 20.9594 158.756 21.0531 158.756 21.1683V36.5769ZM170.191 36.5769C170.191 36.6922 170.148 36.793 170.062 36.8795C169.975 36.9659 169.874 37.0091 169.759 37.0091H168.765C168.65 37.0091 168.549 36.9659 168.462 36.8795C168.376 36.793 168.333 36.6922 168.333 36.5769V36.1015C167.814 36.404 167.281 36.6562 166.734 36.8579C166.186 37.0596 165.61 37.1604 165.005 37.1604C164.544 37.1604 164.097 37.11 163.665 37.0091C163.247 36.8939 162.872 36.6994 162.541 36.4256C162.224 36.1519 161.965 35.7917 161.763 35.3451C161.576 34.8985 161.482 34.3366 161.482 33.6594V33.4001C161.482 32.8238 161.569 32.3196 161.741 31.8873C161.929 31.4407 162.224 31.0733 162.628 30.7852C163.045 30.4826 163.586 30.2593 164.248 30.1152C164.911 29.9712 165.725 29.8991 166.69 29.8991H168.29V29.0347C168.29 28.127 168.117 27.4931 167.771 27.1329C167.425 26.7728 166.827 26.5927 165.977 26.5927C165.271 26.5927 164.652 26.6143 164.119 26.6575C163.586 26.6863 163.103 26.7223 162.671 26.7655H162.563C162.462 26.7655 162.368 26.7439 162.282 26.7007C162.21 26.6575 162.174 26.5638 162.174 26.4198V25.6634C162.174 25.4329 162.325 25.296 162.628 25.2528C163.074 25.1807 163.557 25.1159 164.075 25.0583C164.609 25.0007 165.242 24.9718 165.977 24.9718C167.476 24.9718 168.549 25.332 169.197 26.0524C169.86 26.7728 170.191 27.7669 170.191 29.0347V36.5769ZM168.29 31.2606H166.69C166.042 31.2606 165.502 31.3038 165.07 31.3903C164.637 31.4623 164.299 31.5848 164.054 31.7577C163.809 31.9162 163.636 32.1323 163.535 32.406C163.434 32.6653 163.384 32.9895 163.384 33.3785V33.6378C163.384 34.4158 163.557 34.9417 163.903 35.2154C164.248 35.4748 164.738 35.6044 165.372 35.6044C165.876 35.6044 166.359 35.5324 166.82 35.3883C167.281 35.2442 167.771 35.0281 168.29 34.74V31.2606ZM181.863 25.4905C181.863 25.5625 181.856 25.613 181.842 25.6418L178.276 38.0897C178.103 38.6804 177.916 39.1774 177.714 39.5808C177.527 39.9842 177.282 40.3084 176.979 40.5533C176.677 40.8127 176.309 41 175.877 41.1152C175.459 41.2305 174.941 41.2881 174.321 41.2881C174.019 41.2881 173.694 41.2665 173.349 41.2233C173.017 41.1945 172.736 41.1512 172.506 41.0936C172.376 41.0648 172.268 41.0288 172.182 40.9856C172.095 40.9423 172.052 40.8631 172.052 40.7478V39.9482C172.052 39.7177 172.189 39.6024 172.463 39.6024H172.527C172.772 39.6313 173.089 39.6601 173.478 39.6889C173.882 39.7177 174.206 39.7321 174.451 39.7321C174.753 39.7321 175.02 39.7033 175.25 39.6457C175.481 39.6024 175.675 39.5088 175.834 39.3647C176.007 39.2351 176.151 39.0478 176.266 38.8028C176.396 38.5723 176.504 38.2698 176.59 37.8952L176.806 37.0091H176.504C176.345 37.0091 176.187 36.9947 176.028 36.9659C175.884 36.9371 175.74 36.8723 175.596 36.7714C175.466 36.6706 175.344 36.5193 175.229 36.3176C175.113 36.1159 175.005 35.8493 174.905 35.518L172.03 25.6418C172.016 25.613 172.009 25.5625 172.009 25.4905C172.009 25.2456 172.138 25.1231 172.398 25.1231H173.586C173.673 25.1231 173.745 25.1591 173.802 25.2312C173.874 25.3032 173.925 25.3824 173.954 25.4689L176.504 34.848C176.561 35.0642 176.626 35.201 176.698 35.2586C176.77 35.3019 176.842 35.3235 176.914 35.3235H177.26L179.897 25.4473C179.926 25.3608 179.976 25.2888 180.048 25.2312C180.12 25.1591 180.206 25.1231 180.307 25.1231H181.518C181.748 25.1231 181.863 25.2456 181.863 25.4905Z" fill="white"/>
<path d="M51.2063 28.493L27.5966 14.9118C27.0229 14.5817 26.3702 14.4073 25.7092 14.4073C25.0397 14.4073 24.3797 14.586 23.8006 14.9242C22.632 15.6065 21.906 16.8749 21.906 18.2347V45.3974C21.906 46.757 22.632 48.0255 23.8003 48.7078C24.3794 49.0462 25.0396 49.2249 25.7091 49.2249C26.3697 49.2249 27.0225 49.0504 27.5965 48.7203L51.2058 35.1389C52.3877 34.4589 53.1218 33.1858 53.1218 31.816C53.1218 30.4461 52.388 29.173 51.2063 28.493ZM40.9754 25.2817L37.7337 29.8257L29.9798 18.9565L40.9754 25.2817ZM25.5604 46.8904C25.3496 46.8698 25.1427 46.8079 24.9581 46.7001C24.4983 46.4316 24.2126 45.9323 24.2126 45.3974V18.2346C24.2126 17.6996 24.4983 17.2004 24.9582 16.9319C25.1423 16.8243 25.3474 16.7603 25.5582 16.7384L36.314 31.816L25.5604 46.8904ZM29.9798 44.6756L37.7337 33.8062L40.9754 38.3503L29.9798 44.6756ZM50.0614 33.1234L42.9886 37.1921L39.1533 31.816L42.9886 26.4398L50.0614 30.5085C50.5265 30.7761 50.8154 31.277 50.8154 31.816C50.8154 32.355 50.5266 32.856 50.0614 33.1234Z" fill="white"/>
</svg>
