<svg width="178" height="63" viewBox="0 0 178 63" fill="none" xmlns="http://www.w3.org/2000/svg">
<rect opacity="0.3" x="0.600304" y="0.600304" width="176.489" height="61.231" rx="9.00456" stroke="white" stroke-width="1.20061"/>
<path d="M75.4749 25.7714C75.4749 26.6791 75.3236 27.4427 75.021 28.0622C74.7185 28.6673 74.2935 29.1644 73.746 29.5534C73.2129 29.928 72.579 30.2017 71.8442 30.3746C71.1095 30.5331 70.3027 30.6123 69.4238 30.6123C69.078 30.6123 68.7034 30.6051 68.3 30.5907C67.8966 30.5619 67.5509 30.5331 67.2627 30.5042V36.5769C67.2627 36.6922 67.2267 36.793 67.1547 36.8795C67.0826 36.9659 66.989 37.0091 66.8737 37.0091H65.7067C65.5915 37.0091 65.4978 36.9659 65.4258 36.8795C65.3538 36.793 65.3177 36.6922 65.3177 36.5769V21.5141C65.3177 21.1971 65.4906 21.017 65.8364 20.9738C66.2974 20.9162 66.8521 20.873 67.5004 20.8442C68.1488 20.8153 68.7899 20.8009 69.4238 20.8009C70.3027 20.8009 71.1095 20.8874 71.8442 21.0603C72.579 21.2187 73.2129 21.4853 73.746 21.8599C74.2935 22.2201 74.7185 22.7027 75.021 23.3078C75.3236 23.8985 75.4749 24.6261 75.4749 25.4905V25.7714ZM73.5083 25.4905C73.5083 24.3956 73.1769 23.6176 72.5142 23.1565C71.8514 22.6955 70.8213 22.465 69.4238 22.465C69.0924 22.465 68.7107 22.4722 68.2784 22.4866C67.8606 22.501 67.522 22.5226 67.2627 22.5514V28.8834C67.3924 28.8834 67.5509 28.8906 67.7382 28.905C67.9255 28.9194 68.12 28.9339 68.3217 28.9483C68.5234 28.9483 68.7179 28.9555 68.9052 28.9699C69.1069 28.9699 69.2797 28.9699 69.4238 28.9699C70.9078 28.9699 71.9595 28.7177 72.579 28.2135C73.1985 27.7092 73.5083 26.8952 73.5083 25.7714V25.4905ZM80.0299 36.5769C80.0299 36.6922 79.9939 36.793 79.9218 36.8795C79.8498 36.9659 79.7562 37.0091 79.6409 37.0091H78.5171C78.4019 37.0091 78.3082 36.9659 78.2362 36.8795C78.1641 36.793 78.1281 36.6922 78.1281 36.5769V21.1683C78.1281 21.0531 78.1641 20.9594 78.2362 20.8874C78.3082 20.8009 78.4019 20.7577 78.5171 20.7577H79.6409C79.7562 20.7577 79.8498 20.8009 79.9218 20.8874C79.9939 20.9594 80.0299 21.0531 80.0299 21.1683V36.5769ZM91.4651 36.5769C91.4651 36.6922 91.4219 36.793 91.3355 36.8795C91.249 36.9659 91.1482 37.0091 91.0329 37.0091H90.0388C89.9235 37.0091 89.8227 36.9659 89.7362 36.8795C89.6498 36.793 89.6066 36.6922 89.6066 36.5769V36.1015C89.0879 36.404 88.5548 36.6562 88.0074 36.8579C87.4599 37.0596 86.8836 37.1604 86.2785 37.1604C85.8175 37.1604 85.3708 37.11 84.9386 37.0091C84.5208 36.8939 84.1462 36.6994 83.8148 36.4256C83.4979 36.1519 83.2386 35.7917 83.0368 35.3451C82.8496 34.8985 82.7559 34.3366 82.7559 33.6594V33.4001C82.7559 32.8238 82.8424 32.3196 83.0152 31.8873C83.2025 31.4407 83.4979 31.0733 83.9013 30.7852C84.3191 30.4826 84.8594 30.2593 85.5221 30.1152C86.1848 29.9712 86.9989 29.8991 87.9641 29.8991H89.5634V29.0347C89.5634 28.127 89.3905 27.4931 89.0447 27.1329C88.6989 26.7728 88.101 26.5927 87.251 26.5927C86.545 26.5927 85.9255 26.6143 85.3924 26.6575C84.8594 26.6863 84.3767 26.7223 83.9445 26.7656H83.8365C83.7356 26.7656 83.642 26.7439 83.5555 26.7007C83.4835 26.6575 83.4475 26.5639 83.4475 26.4198V25.6634C83.4475 25.4329 83.5987 25.296 83.9013 25.2528C84.3479 25.1808 84.8306 25.1159 85.3492 25.0583C85.8823 25.0007 86.5162 24.9718 87.251 24.9718C88.7493 24.9718 89.8227 25.332 90.471 26.0524C91.1338 26.7728 91.4651 27.7669 91.4651 29.0347V36.5769ZM89.5634 31.2606H87.9641C87.3158 31.2606 86.7755 31.3039 86.3433 31.3903C85.9111 31.4623 85.5725 31.5848 85.3276 31.7577C85.0827 31.9162 84.9098 32.1323 84.8089 32.406C84.7081 32.6653 84.6577 32.9895 84.6577 33.3785V33.6378C84.6577 34.4158 84.8306 34.9417 85.1763 35.2154C85.5221 35.4748 86.012 35.6044 86.6459 35.6044C87.1501 35.6044 87.6328 35.5324 88.0938 35.3883C88.5548 35.2442 89.0447 35.0281 89.5634 34.74V31.2606ZM103.137 25.4905C103.137 25.5625 103.13 25.613 103.115 25.6418L99.5496 38.0897C99.3767 38.6804 99.1895 39.1774 98.9878 39.5808C98.8005 39.9842 98.5555 40.3084 98.253 40.5533C97.9504 40.8127 97.583 41 97.1508 41.1152C96.733 41.2305 96.2143 41.2881 95.5948 41.2881C95.2923 41.2881 94.9681 41.2665 94.6223 41.2233C94.291 41.1945 94.01 41.1512 93.7795 41.0936C93.6498 41.0648 93.5418 41.0288 93.4554 40.9856C93.3689 40.9423 93.3257 40.8631 93.3257 40.7478V39.9482C93.3257 39.7177 93.4626 39.6025 93.7363 39.6025H93.8011C94.046 39.6313 94.363 39.6601 94.752 39.6889C95.1554 39.7177 95.4796 39.7321 95.7245 39.7321C96.0271 39.7321 96.2936 39.7033 96.5241 39.6457C96.7546 39.6025 96.9491 39.5088 97.1076 39.3647C97.2805 39.2351 97.4246 39.0478 97.5398 38.8028C97.6695 38.5723 97.7775 38.2698 97.864 37.8952L98.0801 37.0091H97.7775C97.6191 37.0091 97.4606 36.9947 97.3021 36.9659C97.158 36.9371 97.014 36.8723 96.8699 36.7714C96.7402 36.6706 96.6178 36.5193 96.5025 36.3176C96.3872 36.1159 96.2792 35.8494 96.1783 35.518L93.3041 25.6418C93.2897 25.613 93.2825 25.5625 93.2825 25.4905C93.2825 25.2456 93.4121 25.1231 93.6715 25.1231H94.8601C94.9465 25.1231 95.0185 25.1591 95.0762 25.2312C95.1482 25.3032 95.1986 25.3825 95.2274 25.4689L97.7775 34.848C97.8352 35.0642 97.9 35.201 97.972 35.2587C98.0441 35.3019 98.1161 35.3235 98.1881 35.3235H98.5339L101.17 25.4473C101.199 25.3608 101.25 25.2888 101.322 25.2312C101.394 25.1591 101.48 25.1231 101.581 25.1231H102.791C103.022 25.1231 103.137 25.2456 103.137 25.4905ZM120.129 32.8382C120.129 33.3569 120.049 33.8756 119.891 34.3942C119.732 34.9129 119.452 35.3811 119.048 35.7989C118.659 36.2023 118.119 36.5337 117.427 36.793C116.736 37.038 115.857 37.1604 114.791 37.1604C114.027 37.1604 113.357 37.1244 112.781 37.0524C112.205 36.9947 111.679 36.9299 111.203 36.8579C111.016 36.829 110.901 36.7858 110.858 36.7282C110.814 36.6706 110.793 36.5841 110.793 36.4689V35.6044C110.793 35.4892 110.829 35.4027 110.901 35.3451C110.973 35.2875 111.059 35.2587 111.16 35.2587H111.225C111.47 35.2875 111.744 35.3091 112.046 35.3235C112.363 35.3379 112.68 35.3523 112.997 35.3667C113.328 35.3667 113.645 35.3739 113.948 35.3883C114.265 35.3883 114.546 35.3883 114.791 35.3883C115.439 35.3883 115.972 35.3307 116.39 35.2154C116.822 35.0858 117.161 34.9129 117.406 34.6968C117.651 34.4663 117.823 34.1925 117.924 33.8756C118.025 33.5586 118.076 33.2128 118.076 32.8382C118.076 32.5645 118.032 32.3196 117.946 32.1035C117.86 31.8729 117.715 31.6496 117.514 31.4335C117.312 31.2174 117.045 30.9941 116.714 30.7636C116.383 30.5187 115.972 30.2449 115.482 29.9424L113.386 28.6673C112.392 28.0622 111.643 27.4571 111.139 26.852C110.649 26.2325 110.404 25.4905 110.404 24.6261C110.404 23.315 110.85 22.3497 111.744 21.7302C112.637 21.1107 113.912 20.8009 115.569 20.8009C115.886 20.8009 116.217 20.8081 116.563 20.8225C116.923 20.837 117.269 20.8586 117.6 20.8874C117.946 20.9018 118.27 20.9306 118.573 20.9738C118.875 21.0026 119.127 21.0314 119.329 21.0603C119.574 21.1035 119.696 21.2259 119.696 21.4276V22.3569C119.696 22.5874 119.574 22.7027 119.329 22.7027H119.286C118.81 22.6739 118.227 22.6451 117.535 22.6163C116.858 22.5874 116.203 22.573 115.569 22.573C114.445 22.573 113.631 22.7171 113.127 23.0052C112.637 23.2934 112.392 23.8337 112.392 24.6261C112.392 25.1303 112.579 25.5697 112.954 25.9443C113.328 26.3189 113.926 26.7511 114.748 27.241L116.736 28.4296C117.355 28.8042 117.881 29.1644 118.313 29.5101C118.746 29.8559 119.099 30.2017 119.372 30.5475C119.646 30.8932 119.841 31.2534 119.956 31.628C120.071 32.0026 120.129 32.406 120.129 32.8382ZM128.141 36.685C128.141 36.8867 128.011 37.0091 127.752 37.0524C127.536 37.0812 127.298 37.1028 127.039 37.1172C126.779 37.146 126.549 37.1604 126.347 37.1604C125.843 37.1604 125.403 37.1172 125.029 37.0308C124.669 36.9587 124.366 36.8146 124.121 36.5985C123.891 36.3824 123.711 36.0871 123.581 35.7125C123.466 35.3379 123.408 34.8552 123.408 34.2646V26.7223L121.312 26.4846C121.038 26.4558 120.901 26.3261 120.901 26.0956V25.5121C120.901 25.2528 121.038 25.1231 121.312 25.1231H123.408V23.0052C123.408 22.7603 123.538 22.6163 123.797 22.573L124.921 22.4001H124.986C125.072 22.4001 125.144 22.4362 125.202 22.5082C125.274 22.5658 125.31 22.6523 125.31 22.7675V25.1231H127.644C127.759 25.1231 127.86 25.1663 127.946 25.2528C128.033 25.3392 128.076 25.4401 128.076 25.5553V26.2901C128.076 26.4054 128.033 26.5062 127.946 26.5927C127.86 26.6791 127.759 26.7223 127.644 26.7223H125.31V34.2646C125.31 34.8552 125.396 35.2298 125.569 35.3883C125.742 35.5468 126.044 35.626 126.477 35.626H127.687C127.989 35.626 128.141 35.7269 128.141 35.9286V36.685ZM139.057 31.8873C139.057 32.6797 138.956 33.4001 138.754 34.0484C138.553 34.6968 138.25 35.2514 137.847 35.7125C137.443 36.1735 136.939 36.5337 136.334 36.793C135.729 37.038 135.03 37.1604 134.238 37.1604C133.445 37.1604 132.746 37.038 132.141 36.793C131.551 36.5337 131.054 36.1735 130.65 35.7125C130.247 35.2514 129.944 34.6968 129.742 34.0484C129.541 33.4001 129.44 32.6797 129.44 31.8873V30.2449C129.44 29.4525 129.541 28.7321 129.742 28.0838C129.944 27.4355 130.247 26.8808 130.65 26.4198C131.054 25.9587 131.551 25.6058 132.141 25.3608C132.746 25.1015 133.445 24.9718 134.238 24.9718C135.03 24.9718 135.729 25.1015 136.334 25.3608C136.939 25.6058 137.443 25.9587 137.847 26.4198C138.25 26.8808 138.553 27.4355 138.754 28.0838C138.956 28.7321 139.057 29.4525 139.057 30.2449V31.8873ZM137.155 30.2449C137.155 29.1356 136.925 28.2567 136.463 27.6084C136.002 26.9601 135.26 26.6359 134.238 26.6359C133.229 26.6359 132.494 26.9601 132.033 27.6084C131.572 28.2423 131.342 29.1211 131.342 30.2449V31.8873C131.342 32.9967 131.565 33.8756 132.012 34.5239C132.473 35.1722 133.215 35.4964 134.238 35.4964C135.246 35.4964 135.981 35.1794 136.442 34.5455C136.917 33.8972 137.155 33.0111 137.155 31.8873V30.2449ZM146.943 26.2469C146.943 26.4918 146.792 26.6143 146.489 26.6143C145.985 26.6143 145.495 26.6863 145.02 26.8304C144.559 26.9601 144.054 27.1906 143.507 27.5219V36.5769C143.507 36.6922 143.464 36.793 143.377 36.8795C143.291 36.9659 143.19 37.0091 143.075 37.0091H142.016C141.901 37.0091 141.8 36.9659 141.713 36.8795C141.641 36.793 141.605 36.6922 141.605 36.5769V25.5553C141.605 25.4401 141.641 25.3392 141.713 25.2528C141.8 25.1663 141.901 25.1231 142.016 25.1231H143.032C143.147 25.1231 143.24 25.1663 143.312 25.2528C143.399 25.3392 143.442 25.4401 143.442 25.5553V26.0092C143.99 25.6346 144.508 25.368 144.998 25.2096C145.502 25.0511 145.999 24.9718 146.489 24.9718C146.792 24.9718 146.943 25.1015 146.943 25.3608V26.2469ZM157.627 31.1958C157.627 31.5128 157.49 31.6712 157.217 31.6712H149.977V31.9738C149.977 33.256 150.229 34.1637 150.733 34.6968C151.238 35.2298 151.987 35.4964 152.981 35.4964C153.615 35.4964 154.285 35.4748 154.991 35.4315C155.711 35.3883 156.323 35.3307 156.828 35.2587H156.936C157.022 35.2587 157.101 35.2803 157.173 35.3235C157.245 35.3667 157.281 35.4459 157.281 35.5612V36.296C157.281 36.4401 157.253 36.5553 157.195 36.6418C157.137 36.7138 157.022 36.7642 156.849 36.793C156.23 36.9083 155.61 36.9947 154.991 37.0524C154.386 37.1244 153.716 37.1604 152.981 37.1604C152.361 37.1604 151.756 37.0812 151.166 36.9227C150.575 36.7498 150.049 36.4689 149.588 36.0799C149.141 35.6765 148.774 35.1434 148.486 34.4807C148.212 33.8179 148.075 32.9823 148.075 31.9738V30.0288C148.075 28.4728 148.486 27.241 149.307 26.3333C150.128 25.4257 151.317 24.9718 152.873 24.9718C153.665 24.9718 154.357 25.0943 154.947 25.3392C155.538 25.5697 156.028 25.9083 156.417 26.3549C156.82 26.7872 157.123 27.3202 157.325 27.9542C157.526 28.5737 157.627 29.2652 157.627 30.0288V31.1958ZM155.704 30.0288C155.704 28.8042 155.466 27.9325 154.991 27.4139C154.53 26.8952 153.824 26.6359 152.873 26.6359C151.936 26.6359 151.216 26.9096 150.712 27.4571C150.222 28.0046 149.977 28.8618 149.977 30.0288V30.2233H155.704V30.0288Z" fill="white"/>
<path d="M43.4783 37.5386C42.4256 36.9079 40.236 35.5947 40.236 32.1786C40.236 29.2955 42.1692 27.8405 43.2074 27.0588L43.2291 27.0424C43.646 26.7287 43.7453 26.1446 43.456 25.7108C41.1362 22.2343 37.1522 22.1339 36.3776 22.1484H36.373C35.8417 22.149 35.3347 22.2101 34.8541 22.3065C35.0316 22.1648 35.2039 22.0138 35.3696 21.8537C37.0292 20.251 37.9412 17.8864 37.8709 15.3642C37.8557 14.8319 37.4191 14.4073 36.8852 14.4073C35.0901 14.4073 33.0491 15.4777 31.5585 17.2012C30.0567 18.9378 29.3551 21.0182 29.6345 22.9084C29.6575 23.0652 29.718 23.2083 29.8048 23.331C29.5418 23.2431 29.2637 23.1407 28.9888 23.0396C27.9447 22.6557 26.7604 22.2206 25.6518 22.2206C25.6295 22.2206 23.3754 22.237 21.1247 23.6323C19.156 24.8536 16.8086 27.3955 16.8086 32.5731C16.8086 35.2659 17.8626 39.0356 19.494 42.178C20.621 44.3491 22.9599 47.9928 25.9635 48.0099H25.9957C28.186 48.0099 30.0008 46.719 31.235 46.719C33.3431 46.719 34.0933 48.0243 36.373 48.0243C38.4166 48.0243 40.3971 46.4748 42.2599 43.4197C42.9438 42.2975 43.4757 41.1877 43.8012 40.4539C44.4226 39.056 44.4226 38.8696 44.4226 38.7331C44.4226 38.105 43.9426 37.8169 43.4783 37.5386ZM33.0518 18.4875C33.8612 17.5516 34.881 16.8573 35.847 16.5508C35.6622 18.0793 35.0152 19.4569 33.998 20.4387C33.2852 21.1272 32.4297 21.5748 31.5611 21.729C31.6532 20.6474 32.1713 19.5055 33.0518 18.4875ZM40.4793 42.5508C39.0715 44.8111 37.6131 46.0554 36.373 46.0554C34.6667 46.0554 33.8691 44.75 31.235 44.75C29.4577 44.75 27.7619 46.0502 25.9747 46.041C24.5807 46.0331 22.7685 44.206 21.2457 41.2723C19.7484 38.3892 18.7812 34.9745 18.7812 32.5731C18.7812 29.1734 19.901 26.7405 22.1077 25.3413C23.8258 24.2525 25.5834 24.1914 25.6577 24.1895C27.1977 24.1934 29.3354 25.5539 30.8931 25.5539C32.2956 25.5539 34.1735 24.1173 36.3802 24.1173H36.4164C36.9516 24.1068 39.4785 24.1665 41.2539 26.0895C39.9993 27.1441 38.2634 29.0408 38.2634 32.1786C38.2634 36.4406 40.9639 38.3117 42.2395 39.0921C41.922 39.86 41.3164 41.2073 40.4793 42.5508Z" fill="white"/>
</svg>
