<svg width="395" height="63" viewBox="0 0 395 63" fill="none" xmlns="http://www.w3.org/2000/svg">
<rect opacity="0.3" x="187.895" y="0.600298" width="206.505" height="61.231" rx="9.00456" stroke="white" stroke-width="1.20061"/>
<path d="M269.671 36.3608C269.671 36.6345 269.541 36.793 269.282 36.8362C268.749 36.9227 268.151 36.9947 267.488 37.0524C266.84 37.1244 266.004 37.1604 264.982 37.1604C264.304 37.1604 263.627 37.0452 262.95 36.8146C262.287 36.5697 261.689 36.1879 261.156 35.6693C260.638 35.1362 260.213 34.4446 259.881 33.5946C259.55 32.7302 259.384 31.6784 259.384 30.4394V27.5435C259.384 26.2325 259.557 25.1447 259.903 24.2803C260.249 23.4159 260.695 22.7243 261.243 22.2056C261.79 21.687 262.41 21.3268 263.101 21.1251C263.793 20.909 264.484 20.8009 265.176 20.8009C266.185 20.8009 267.013 20.8369 267.661 20.909C268.324 20.9666 268.864 21.0314 269.282 21.1035C269.383 21.1179 269.469 21.1467 269.541 21.1899C269.613 21.2331 269.649 21.3124 269.649 21.4276V22.5082C269.649 22.6523 269.556 22.7243 269.369 22.7243H269.282C268.965 22.6955 268.655 22.6739 268.353 22.6595C268.065 22.6307 267.762 22.6162 267.445 22.6162C267.128 22.6018 266.782 22.5946 266.408 22.5946C266.048 22.5802 265.637 22.573 265.176 22.573C264.672 22.573 264.189 22.6523 263.728 22.8107C263.267 22.9548 262.856 23.2214 262.496 23.6104C262.15 23.9849 261.87 24.4964 261.653 25.1447C261.452 25.7786 261.351 26.5783 261.351 27.5435V30.4394C261.351 31.3327 261.445 32.0962 261.632 32.7302C261.819 33.3497 262.078 33.8611 262.41 34.2645C262.741 34.668 263.123 34.9633 263.555 35.1506C264.002 35.3235 264.477 35.4099 264.982 35.4099C265.644 35.4099 266.199 35.3955 266.646 35.3667C267.092 35.3379 267.445 35.3091 267.705 35.2803V29.0995C267.705 28.9843 267.741 28.8834 267.813 28.797C267.885 28.7105 267.978 28.6673 268.094 28.6673H269.26C269.376 28.6673 269.469 28.7105 269.541 28.797C269.628 28.8834 269.671 28.9843 269.671 29.0995V36.3608ZM282.061 31.8873C282.061 32.6797 281.96 33.4001 281.758 34.0484C281.557 34.6968 281.254 35.2514 280.851 35.7125C280.447 36.1735 279.943 36.5337 279.338 36.793C278.733 37.038 278.034 37.1604 277.242 37.1604C276.449 37.1604 275.75 37.038 275.145 36.793C274.555 36.5337 274.058 36.1735 273.654 35.7125C273.251 35.2514 272.948 34.6968 272.746 34.0484C272.545 33.4001 272.444 32.6797 272.444 31.8873V30.2449C272.444 29.4525 272.545 28.7321 272.746 28.0838C272.948 27.4355 273.251 26.8808 273.654 26.4198C274.058 25.9587 274.555 25.6058 275.145 25.3608C275.75 25.1015 276.449 24.9718 277.242 24.9718C278.034 24.9718 278.733 25.1015 279.338 25.3608C279.943 25.6058 280.447 25.9587 280.851 26.4198C281.254 26.8808 281.557 27.4355 281.758 28.0838C281.96 28.7321 282.061 29.4525 282.061 30.2449V31.8873ZM280.159 30.2449C280.159 29.1355 279.928 28.2567 279.467 27.6084C279.006 26.96 278.264 26.6359 277.242 26.6359C276.233 26.6359 275.498 26.96 275.037 27.6084C274.576 28.2423 274.346 29.1211 274.346 30.2449V31.8873C274.346 32.9967 274.569 33.8755 275.016 34.5239C275.477 35.1722 276.219 35.4964 277.242 35.4964C278.25 35.4964 278.985 35.1794 279.446 34.5455C279.921 33.8972 280.159 33.0111 280.159 31.8873V30.2449ZM293.837 31.8873C293.837 32.6797 293.736 33.4001 293.534 34.0484C293.333 34.6968 293.03 35.2514 292.627 35.7125C292.223 36.1735 291.719 36.5337 291.114 36.793C290.509 37.038 289.81 37.1604 289.018 37.1604C288.225 37.1604 287.527 37.038 286.922 36.793C286.331 36.5337 285.834 36.1735 285.43 35.7125C285.027 35.2514 284.724 34.6968 284.523 34.0484C284.321 33.4001 284.22 32.6797 284.22 31.8873V30.2449C284.22 29.4525 284.321 28.7321 284.523 28.0838C284.724 27.4355 285.027 26.8808 285.43 26.4198C285.834 25.9587 286.331 25.6058 286.922 25.3608C287.527 25.1015 288.225 24.9718 289.018 24.9718C289.81 24.9718 290.509 25.1015 291.114 25.3608C291.719 25.6058 292.223 25.9587 292.627 26.4198C293.03 26.8808 293.333 27.4355 293.534 28.0838C293.736 28.7321 293.837 29.4525 293.837 30.2449V31.8873ZM291.935 30.2449C291.935 29.1355 291.705 28.2567 291.244 27.6084C290.783 26.96 290.041 26.6359 289.018 26.6359C288.009 26.6359 287.275 26.96 286.813 27.6084C286.352 28.2423 286.122 29.1211 286.122 30.2449V31.8873C286.122 32.9967 286.345 33.8755 286.792 34.5239C287.253 35.1722 287.995 35.4964 289.018 35.4964C290.026 35.4964 290.761 35.1794 291.222 34.5455C291.698 33.8972 291.935 33.0111 291.935 31.8873V30.2449ZM306.218 26.1604C306.218 26.3045 306.182 26.4054 306.11 26.463C306.038 26.5062 305.945 26.5422 305.829 26.5711L305.051 26.7223C305.253 26.924 305.426 27.1978 305.57 27.5435C305.714 27.8893 305.786 28.3576 305.786 28.9483V29.1211C305.786 30.3169 305.404 31.2318 304.641 31.8657C303.877 32.4997 302.66 32.8166 300.989 32.8166C300.412 32.8166 299.93 32.7806 299.541 32.7086C299.152 32.6221 298.799 32.5141 298.482 32.3844C298.122 32.5573 297.941 32.8022 297.941 33.1192C297.941 33.3065 297.992 33.4505 298.093 33.5514C298.194 33.6522 298.366 33.7387 298.611 33.8107L301.831 34.6319C302.364 34.7616 302.876 34.9057 303.366 35.0642C303.87 35.2226 304.317 35.4243 304.706 35.6693C305.095 35.8998 305.404 36.1879 305.635 36.5337C305.865 36.8795 305.981 37.3045 305.981 37.8087V37.9816C305.981 39.019 305.599 39.833 304.835 40.4237C304.086 41.0288 302.825 41.3313 301.053 41.3313C299.339 41.3313 298.078 41.0216 297.271 40.4021C296.479 39.7969 296.083 38.9613 296.083 37.8952V37.7007C296.083 37.0956 296.22 36.5553 296.493 36.0799C296.767 35.6044 297.084 35.2298 297.444 34.9561L297.293 34.8913C296.947 34.7328 296.695 34.4951 296.537 34.1781C296.378 33.8611 296.299 33.537 296.299 33.2056V33.184C296.299 32.8959 296.371 32.6077 296.515 32.3196C296.659 32.0314 296.882 31.8009 297.185 31.628C296.854 31.3111 296.602 30.9509 296.429 30.5475C296.27 30.1441 296.191 29.6686 296.191 29.1211V28.9483C296.191 28.4728 296.263 28.0046 296.407 27.5435C296.566 27.0825 296.825 26.6719 297.185 26.3117C297.56 25.9515 298.049 25.6634 298.655 25.4473C299.274 25.2312 300.052 25.1231 300.989 25.1231H305.721C305.851 25.1231 305.966 25.1735 306.067 25.2744C306.168 25.3608 306.218 25.4689 306.218 25.5986V26.1604ZM303.906 28.9483C303.906 28.6313 303.863 28.3287 303.776 28.0406C303.69 27.7524 303.539 27.5075 303.323 27.3058C303.106 27.1041 302.804 26.9456 302.415 26.8304C302.04 26.7007 301.565 26.6359 300.989 26.6359C300.383 26.6359 299.886 26.7007 299.497 26.8304C299.123 26.96 298.827 27.1329 298.611 27.349C298.41 27.5507 298.266 27.7957 298.179 28.0838C298.107 28.3576 298.071 28.6457 298.071 28.9483V29.1211C298.071 29.3661 298.107 29.6182 298.179 29.8775C298.251 30.1369 298.388 30.3746 298.59 30.5907C298.806 30.8068 299.101 30.9869 299.476 31.131C299.865 31.2606 300.369 31.3255 300.989 31.3255C301.565 31.3255 302.04 31.275 302.415 31.1742C302.804 31.0589 303.106 30.9076 303.323 30.7204C303.539 30.5186 303.69 30.2881 303.776 30.0288C303.863 29.7551 303.906 29.4525 303.906 29.1211V28.9483ZM304.079 37.8087C304.079 37.3909 303.877 37.0668 303.474 36.8362C303.085 36.6057 302.408 36.368 301.442 36.1231L299 35.4964C298.683 35.7701 298.424 36.0655 298.222 36.3824C298.035 36.6994 297.941 37.1388 297.941 37.7007V37.8952C297.941 38.1977 297.992 38.4715 298.093 38.7164C298.194 38.9613 298.359 39.163 298.59 39.3215C298.835 39.4944 299.152 39.6241 299.541 39.7105C299.944 39.8114 300.448 39.8618 301.053 39.8618C301.673 39.8618 302.177 39.8186 302.566 39.7321C302.955 39.6457 303.258 39.5232 303.474 39.3647C303.704 39.2062 303.863 39.0118 303.949 38.7812C304.036 38.5507 304.079 38.2842 304.079 37.9816V37.8087ZM310.575 36.5769C310.575 36.6922 310.539 36.793 310.467 36.8795C310.395 36.9659 310.301 37.0091 310.186 37.0091H309.062C308.947 37.0091 308.853 36.9659 308.781 36.8795C308.709 36.793 308.673 36.6922 308.673 36.5769V21.1683C308.673 21.0531 308.709 20.9594 308.781 20.8874C308.853 20.8009 308.947 20.7577 309.062 20.7577H310.186C310.301 20.7577 310.395 20.8009 310.467 20.8874C310.539 20.9594 310.575 21.0531 310.575 21.1683V36.5769ZM322.896 31.1958C322.896 31.5128 322.759 31.6712 322.486 31.6712H315.246V31.9738C315.246 33.256 315.498 34.1637 316.002 34.6968C316.507 35.2298 317.256 35.4964 318.25 35.4964C318.884 35.4964 319.554 35.4748 320.26 35.4315C320.98 35.3883 321.592 35.3307 322.097 35.2586H322.205C322.291 35.2586 322.37 35.2803 322.442 35.3235C322.515 35.3667 322.551 35.4459 322.551 35.5612V36.296C322.551 36.44 322.522 36.5553 322.464 36.6418C322.406 36.7138 322.291 36.7642 322.118 36.793C321.499 36.9083 320.879 36.9947 320.26 37.0524C319.655 37.1244 318.985 37.1604 318.25 37.1604C317.63 37.1604 317.025 37.0812 316.435 36.9227C315.844 36.7498 315.318 36.4689 314.857 36.0799C314.41 35.6765 314.043 35.1434 313.755 34.4807C313.481 33.8179 313.344 32.9823 313.344 31.9738V30.0288C313.344 28.4728 313.755 27.241 314.576 26.3333C315.397 25.4257 316.586 24.9718 318.142 24.9718C318.934 24.9718 319.626 25.0943 320.217 25.3392C320.807 25.5697 321.297 25.9083 321.686 26.3549C322.09 26.7872 322.392 27.3202 322.594 27.9542C322.795 28.5737 322.896 29.2652 322.896 30.0288V31.1958ZM320.973 30.0288C320.973 28.8042 320.735 27.9325 320.26 27.4139C319.799 26.8952 319.093 26.6359 318.142 26.6359C317.205 26.6359 316.485 26.9096 315.981 27.4571C315.491 28.0046 315.246 28.8618 315.246 30.0288V30.2233H320.973V30.0288ZM341.201 25.7714C341.201 26.6791 341.05 27.4427 340.747 28.0622C340.445 28.6673 340.02 29.1644 339.472 29.5534C338.939 29.928 338.305 30.2017 337.57 30.3746C336.836 30.5331 336.029 30.6123 335.15 30.6123C334.804 30.6123 334.43 30.6051 334.026 30.5907C333.623 30.5619 333.277 30.5331 332.989 30.5042V36.5769C332.989 36.6922 332.953 36.793 332.881 36.8795C332.809 36.9659 332.715 37.0091 332.6 37.0091H331.433C331.318 37.0091 331.224 36.9659 331.152 36.8795C331.08 36.793 331.044 36.6922 331.044 36.5769V21.5141C331.044 21.1971 331.217 21.017 331.563 20.9738C332.024 20.9162 332.578 20.873 333.227 20.8442C333.875 20.8153 334.516 20.8009 335.15 20.8009C336.029 20.8009 336.836 20.8874 337.57 21.0603C338.305 21.2187 338.939 21.4853 339.472 21.8599C340.02 22.22 340.445 22.7027 340.747 23.3078C341.05 23.8985 341.201 24.6261 341.201 25.4905V25.7714ZM339.235 25.4905C339.235 24.3955 338.903 23.6176 338.24 23.1565C337.578 22.6955 336.548 22.465 335.15 22.465C334.819 22.465 334.437 22.4722 334.005 22.4866C333.587 22.501 333.248 22.5226 332.989 22.5514V28.8834C333.119 28.8834 333.277 28.8906 333.464 28.905C333.652 28.9194 333.846 28.9338 334.048 28.9483C334.25 28.9483 334.444 28.9555 334.631 28.9699C334.833 28.9699 335.006 28.9699 335.15 28.9699C336.634 28.9699 337.686 28.7177 338.305 28.2135C338.925 27.7092 339.235 26.8952 339.235 25.7714V25.4905ZM345.756 36.5769C345.756 36.6922 345.72 36.793 345.648 36.8795C345.576 36.9659 345.482 37.0091 345.367 37.0091H344.243C344.128 37.0091 344.034 36.9659 343.962 36.8795C343.89 36.793 343.854 36.6922 343.854 36.5769V21.1683C343.854 21.0531 343.89 20.9594 343.962 20.8874C344.034 20.8009 344.128 20.7577 344.243 20.7577H345.367C345.482 20.7577 345.576 20.8009 345.648 20.8874C345.72 20.9594 345.756 21.0531 345.756 21.1683V36.5769ZM357.191 36.5769C357.191 36.6922 357.148 36.793 357.062 36.8795C356.975 36.9659 356.874 37.0091 356.759 37.0091H355.765C355.65 37.0091 355.549 36.9659 355.462 36.8795C355.376 36.793 355.333 36.6922 355.333 36.5769V36.1015C354.814 36.404 354.281 36.6562 353.734 36.8579C353.186 37.0596 352.61 37.1604 352.005 37.1604C351.544 37.1604 351.097 37.11 350.665 37.0091C350.247 36.8939 349.872 36.6994 349.541 36.4256C349.224 36.1519 348.965 35.7917 348.763 35.3451C348.576 34.8985 348.482 34.3366 348.482 33.6594V33.4001C348.482 32.8238 348.569 32.3196 348.741 31.8873C348.929 31.4407 349.224 31.0733 349.628 30.7852C350.045 30.4826 350.586 30.2593 351.248 30.1152C351.911 29.9712 352.725 29.8991 353.69 29.8991H355.29V29.0347C355.29 28.127 355.117 27.4931 354.771 27.1329C354.425 26.7728 353.827 26.5927 352.977 26.5927C352.271 26.5927 351.652 26.6143 351.119 26.6575C350.586 26.6863 350.103 26.7223 349.671 26.7655H349.563C349.462 26.7655 349.368 26.7439 349.282 26.7007C349.21 26.6575 349.174 26.5638 349.174 26.4198V25.6634C349.174 25.4329 349.325 25.296 349.628 25.2528C350.074 25.1807 350.557 25.1159 351.075 25.0583C351.609 25.0007 352.242 24.9718 352.977 24.9718C354.476 24.9718 355.549 25.332 356.197 26.0524C356.86 26.7728 357.191 27.7669 357.191 29.0347V36.5769ZM355.29 31.2606H353.69C353.042 31.2606 352.502 31.3038 352.07 31.3903C351.637 31.4623 351.299 31.5848 351.054 31.7577C350.809 31.9162 350.636 32.1323 350.535 32.406C350.434 32.6653 350.384 32.9895 350.384 33.3785V33.6378C350.384 34.4158 350.557 34.9417 350.903 35.2154C351.248 35.4748 351.738 35.6044 352.372 35.6044C352.876 35.6044 353.359 35.5324 353.82 35.3883C354.281 35.2442 354.771 35.0281 355.29 34.74V31.2606ZM368.863 25.4905C368.863 25.5625 368.856 25.613 368.842 25.6418L365.276 38.0897C365.103 38.6804 364.916 39.1774 364.714 39.5808C364.527 39.9842 364.282 40.3084 363.979 40.5533C363.677 40.8127 363.309 41 362.877 41.1152C362.459 41.2305 361.941 41.2881 361.321 41.2881C361.019 41.2881 360.694 41.2665 360.349 41.2233C360.017 41.1945 359.736 41.1512 359.506 41.0936C359.376 41.0648 359.268 41.0288 359.182 40.9856C359.095 40.9423 359.052 40.8631 359.052 40.7478V39.9482C359.052 39.7177 359.189 39.6024 359.463 39.6024H359.527C359.772 39.6313 360.089 39.6601 360.478 39.6889C360.882 39.7177 361.206 39.7321 361.451 39.7321C361.753 39.7321 362.02 39.7033 362.25 39.6457C362.481 39.6024 362.675 39.5088 362.834 39.3647C363.007 39.2351 363.151 39.0478 363.266 38.8028C363.396 38.5723 363.504 38.2698 363.59 37.8952L363.806 37.0091H363.504C363.345 37.0091 363.187 36.9947 363.028 36.9659C362.884 36.9371 362.74 36.8723 362.596 36.7714C362.466 36.6706 362.344 36.5193 362.229 36.3176C362.113 36.1159 362.005 35.8493 361.905 35.518L359.03 25.6418C359.016 25.613 359.009 25.5625 359.009 25.4905C359.009 25.2456 359.138 25.1231 359.398 25.1231H360.586C360.673 25.1231 360.745 25.1591 360.802 25.2312C360.874 25.3032 360.925 25.3824 360.954 25.4689L363.504 34.848C363.561 35.0642 363.626 35.201 363.698 35.2586C363.77 35.3019 363.842 35.3235 363.914 35.3235H364.26L366.897 25.4473C366.926 25.3608 366.976 25.2888 367.048 25.2312C367.12 25.1591 367.206 25.1231 367.307 25.1231H368.518C368.748 25.1231 368.863 25.2456 368.863 25.4905Z" fill="white"/>
<path d="M238.206 28.493L214.597 14.9118C214.023 14.5817 213.37 14.4073 212.709 14.4073C212.04 14.4073 211.38 14.586 210.801 14.9242C209.632 15.6065 208.906 16.8749 208.906 18.2347V45.3974C208.906 46.757 209.632 48.0255 210.8 48.7078C211.379 49.0462 212.04 49.2249 212.709 49.2249C213.37 49.2249 214.022 49.0504 214.596 48.7203L238.206 35.1389C239.388 34.4589 240.122 33.1858 240.122 31.816C240.122 30.4461 239.388 29.173 238.206 28.493ZM227.975 25.2817L224.734 29.8257L216.98 18.9565L227.975 25.2817ZM212.56 46.8904C212.35 46.8698 212.143 46.8079 211.958 46.7001C211.498 46.4316 211.213 45.9323 211.213 45.3974V18.2346C211.213 17.6996 211.498 17.2004 211.958 16.9319C212.142 16.8243 212.347 16.7603 212.558 16.7384L223.314 31.816L212.56 46.8904ZM216.98 44.6756L224.734 33.8062L227.975 38.3503L216.98 44.6756ZM237.061 33.1234L229.989 37.1921L226.153 31.816L229.989 26.4398L237.061 30.5085C237.526 30.7761 237.815 31.277 237.815 31.816C237.815 32.355 237.527 32.856 237.061 33.1234Z" fill="white"/>
<rect opacity="0.3" x="0.600304" y="0.600304" width="176.489" height="61.231" rx="9.00456" stroke="white" stroke-width="1.20061"/>
<path d="M75.4749 25.7714C75.4749 26.6791 75.3236 27.4427 75.021 28.0622C74.7185 28.6673 74.2935 29.1644 73.746 29.5534C73.2129 29.928 72.579 30.2017 71.8442 30.3746C71.1095 30.5331 70.3027 30.6123 69.4238 30.6123C69.078 30.6123 68.7034 30.6051 68.3 30.5907C67.8966 30.5619 67.5509 30.5331 67.2627 30.5042V36.5769C67.2627 36.6922 67.2267 36.793 67.1547 36.8795C67.0826 36.9659 66.989 37.0091 66.8737 37.0091H65.7067C65.5915 37.0091 65.4978 36.9659 65.4258 36.8795C65.3538 36.793 65.3177 36.6922 65.3177 36.5769V21.5141C65.3177 21.1971 65.4906 21.017 65.8364 20.9738C66.2974 20.9162 66.8521 20.873 67.5004 20.8442C68.1488 20.8153 68.7899 20.8009 69.4238 20.8009C70.3027 20.8009 71.1095 20.8874 71.8442 21.0603C72.579 21.2187 73.2129 21.4853 73.746 21.8599C74.2935 22.2201 74.7185 22.7027 75.021 23.3078C75.3236 23.8985 75.4749 24.6261 75.4749 25.4905V25.7714ZM73.5083 25.4905C73.5083 24.3956 73.1769 23.6176 72.5142 23.1565C71.8514 22.6955 70.8213 22.465 69.4238 22.465C69.0924 22.465 68.7107 22.4722 68.2784 22.4866C67.8606 22.501 67.522 22.5226 67.2627 22.5514V28.8834C67.3924 28.8834 67.5509 28.8906 67.7382 28.905C67.9255 28.9194 68.12 28.9339 68.3217 28.9483C68.5234 28.9483 68.7179 28.9555 68.9052 28.9699C69.1069 28.9699 69.2797 28.9699 69.4238 28.9699C70.9078 28.9699 71.9595 28.7177 72.579 28.2135C73.1985 27.7092 73.5083 26.8952 73.5083 25.7714V25.4905ZM80.0299 36.5769C80.0299 36.6922 79.9939 36.793 79.9218 36.8795C79.8498 36.9659 79.7562 37.0091 79.6409 37.0091H78.5171C78.4019 37.0091 78.3082 36.9659 78.2362 36.8795C78.1641 36.793 78.1281 36.6922 78.1281 36.5769V21.1683C78.1281 21.0531 78.1641 20.9594 78.2362 20.8874C78.3082 20.8009 78.4019 20.7577 78.5171 20.7577H79.6409C79.7562 20.7577 79.8498 20.8009 79.9218 20.8874C79.9939 20.9594 80.0299 21.0531 80.0299 21.1683V36.5769ZM91.4651 36.5769C91.4651 36.6922 91.4219 36.793 91.3355 36.8795C91.249 36.9659 91.1482 37.0091 91.0329 37.0091H90.0388C89.9235 37.0091 89.8227 36.9659 89.7362 36.8795C89.6498 36.793 89.6066 36.6922 89.6066 36.5769V36.1015C89.0879 36.404 88.5548 36.6562 88.0074 36.8579C87.4599 37.0596 86.8836 37.1604 86.2785 37.1604C85.8175 37.1604 85.3708 37.11 84.9386 37.0091C84.5208 36.8939 84.1462 36.6994 83.8148 36.4256C83.4979 36.1519 83.2386 35.7917 83.0368 35.3451C82.8496 34.8985 82.7559 34.3366 82.7559 33.6594V33.4001C82.7559 32.8238 82.8424 32.3196 83.0152 31.8873C83.2025 31.4407 83.4979 31.0733 83.9013 30.7852C84.3191 30.4826 84.8594 30.2593 85.5221 30.1152C86.1848 29.9712 86.9989 29.8991 87.9641 29.8991H89.5634V29.0347C89.5634 28.127 89.3905 27.4931 89.0447 27.1329C88.6989 26.7728 88.101 26.5927 87.251 26.5927C86.545 26.5927 85.9255 26.6143 85.3924 26.6575C84.8594 26.6863 84.3767 26.7223 83.9445 26.7656H83.8365C83.7356 26.7656 83.642 26.7439 83.5555 26.7007C83.4835 26.6575 83.4475 26.5639 83.4475 26.4198V25.6634C83.4475 25.4329 83.5987 25.296 83.9013 25.2528C84.3479 25.1808 84.8306 25.1159 85.3492 25.0583C85.8823 25.0007 86.5162 24.9718 87.251 24.9718C88.7493 24.9718 89.8227 25.332 90.471 26.0524C91.1338 26.7728 91.4651 27.7669 91.4651 29.0347V36.5769ZM89.5634 31.2606H87.9641C87.3158 31.2606 86.7755 31.3039 86.3433 31.3903C85.9111 31.4623 85.5725 31.5848 85.3276 31.7577C85.0827 31.9162 84.9098 32.1323 84.8089 32.406C84.7081 32.6653 84.6577 32.9895 84.6577 33.3785V33.6378C84.6577 34.4158 84.8306 34.9417 85.1763 35.2154C85.5221 35.4748 86.012 35.6044 86.6459 35.6044C87.1501 35.6044 87.6328 35.5324 88.0938 35.3883C88.5548 35.2442 89.0447 35.0281 89.5634 34.74V31.2606ZM103.137 25.4905C103.137 25.5625 103.13 25.613 103.115 25.6418L99.5496 38.0897C99.3767 38.6804 99.1895 39.1774 98.9878 39.5808C98.8005 39.9842 98.5555 40.3084 98.253 40.5533C97.9504 40.8127 97.583 41 97.1508 41.1152C96.733 41.2305 96.2143 41.2881 95.5948 41.2881C95.2923 41.2881 94.9681 41.2665 94.6223 41.2233C94.291 41.1945 94.01 41.1512 93.7795 41.0936C93.6498 41.0648 93.5418 41.0288 93.4554 40.9856C93.3689 40.9423 93.3257 40.8631 93.3257 40.7478V39.9482C93.3257 39.7177 93.4626 39.6025 93.7363 39.6025H93.8011C94.046 39.6313 94.363 39.6601 94.752 39.6889C95.1554 39.7177 95.4796 39.7321 95.7245 39.7321C96.0271 39.7321 96.2936 39.7033 96.5241 39.6457C96.7546 39.6025 96.9491 39.5088 97.1076 39.3647C97.2805 39.2351 97.4246 39.0478 97.5398 38.8028C97.6695 38.5723 97.7775 38.2698 97.864 37.8952L98.0801 37.0091H97.7775C97.6191 37.0091 97.4606 36.9947 97.3021 36.9659C97.158 36.9371 97.014 36.8723 96.8699 36.7714C96.7402 36.6706 96.6178 36.5193 96.5025 36.3176C96.3872 36.1159 96.2792 35.8494 96.1783 35.518L93.3041 25.6418C93.2897 25.613 93.2825 25.5625 93.2825 25.4905C93.2825 25.2456 93.4121 25.1231 93.6715 25.1231H94.8601C94.9465 25.1231 95.0185 25.1591 95.0762 25.2312C95.1482 25.3032 95.1986 25.3825 95.2274 25.4689L97.7775 34.848C97.8352 35.0642 97.9 35.201 97.972 35.2587C98.0441 35.3019 98.1161 35.3235 98.1881 35.3235H98.5339L101.17 25.4473C101.199 25.3608 101.25 25.2888 101.322 25.2312C101.394 25.1591 101.48 25.1231 101.581 25.1231H102.791C103.022 25.1231 103.137 25.2456 103.137 25.4905ZM120.129 32.8382C120.129 33.3569 120.049 33.8756 119.891 34.3942C119.732 34.9129 119.452 35.3811 119.048 35.7989C118.659 36.2023 118.119 36.5337 117.427 36.793C116.736 37.038 115.857 37.1604 114.791 37.1604C114.027 37.1604 113.357 37.1244 112.781 37.0524C112.205 36.9947 111.679 36.9299 111.203 36.8579C111.016 36.829 110.901 36.7858 110.858 36.7282C110.814 36.6706 110.793 36.5841 110.793 36.4689V35.6044C110.793 35.4892 110.829 35.4027 110.901 35.3451C110.973 35.2875 111.059 35.2587 111.16 35.2587H111.225C111.47 35.2875 111.744 35.3091 112.046 35.3235C112.363 35.3379 112.68 35.3523 112.997 35.3667C113.328 35.3667 113.645 35.3739 113.948 35.3883C114.265 35.3883 114.546 35.3883 114.791 35.3883C115.439 35.3883 115.972 35.3307 116.39 35.2154C116.822 35.0858 117.161 34.9129 117.406 34.6968C117.651 34.4663 117.823 34.1925 117.924 33.8756C118.025 33.5586 118.076 33.2128 118.076 32.8382C118.076 32.5645 118.032 32.3196 117.946 32.1035C117.86 31.8729 117.715 31.6496 117.514 31.4335C117.312 31.2174 117.045 30.9941 116.714 30.7636C116.383 30.5187 115.972 30.2449 115.482 29.9424L113.386 28.6673C112.392 28.0622 111.643 27.4571 111.139 26.852C110.649 26.2325 110.404 25.4905 110.404 24.6261C110.404 23.315 110.85 22.3497 111.744 21.7302C112.637 21.1107 113.912 20.8009 115.569 20.8009C115.886 20.8009 116.217 20.8081 116.563 20.8225C116.923 20.837 117.269 20.8586 117.6 20.8874C117.946 20.9018 118.27 20.9306 118.573 20.9738C118.875 21.0026 119.127 21.0314 119.329 21.0603C119.574 21.1035 119.696 21.2259 119.696 21.4276V22.3569C119.696 22.5874 119.574 22.7027 119.329 22.7027H119.286C118.81 22.6739 118.227 22.6451 117.535 22.6163C116.858 22.5874 116.203 22.573 115.569 22.573C114.445 22.573 113.631 22.7171 113.127 23.0052C112.637 23.2934 112.392 23.8337 112.392 24.6261C112.392 25.1303 112.579 25.5697 112.954 25.9443C113.328 26.3189 113.926 26.7511 114.748 27.241L116.736 28.4296C117.355 28.8042 117.881 29.1644 118.313 29.5101C118.746 29.8559 119.099 30.2017 119.372 30.5475C119.646 30.8932 119.841 31.2534 119.956 31.628C120.071 32.0026 120.129 32.406 120.129 32.8382ZM128.141 36.685C128.141 36.8867 128.011 37.0091 127.752 37.0524C127.536 37.0812 127.298 37.1028 127.039 37.1172C126.779 37.146 126.549 37.1604 126.347 37.1604C125.843 37.1604 125.403 37.1172 125.029 37.0308C124.669 36.9587 124.366 36.8146 124.121 36.5985C123.891 36.3824 123.711 36.0871 123.581 35.7125C123.466 35.3379 123.408 34.8552 123.408 34.2646V26.7223L121.312 26.4846C121.038 26.4558 120.901 26.3261 120.901 26.0956V25.5121C120.901 25.2528 121.038 25.1231 121.312 25.1231H123.408V23.0052C123.408 22.7603 123.538 22.6163 123.797 22.573L124.921 22.4001H124.986C125.072 22.4001 125.144 22.4362 125.202 22.5082C125.274 22.5658 125.31 22.6523 125.31 22.7675V25.1231H127.644C127.759 25.1231 127.86 25.1663 127.946 25.2528C128.033 25.3392 128.076 25.4401 128.076 25.5553V26.2901C128.076 26.4054 128.033 26.5062 127.946 26.5927C127.86 26.6791 127.759 26.7223 127.644 26.7223H125.31V34.2646C125.31 34.8552 125.396 35.2298 125.569 35.3883C125.742 35.5468 126.044 35.626 126.477 35.626H127.687C127.989 35.626 128.141 35.7269 128.141 35.9286V36.685ZM139.057 31.8873C139.057 32.6797 138.956 33.4001 138.754 34.0484C138.553 34.6968 138.25 35.2514 137.847 35.7125C137.443 36.1735 136.939 36.5337 136.334 36.793C135.729 37.038 135.03 37.1604 134.238 37.1604C133.445 37.1604 132.746 37.038 132.141 36.793C131.551 36.5337 131.054 36.1735 130.65 35.7125C130.247 35.2514 129.944 34.6968 129.742 34.0484C129.541 33.4001 129.44 32.6797 129.44 31.8873V30.2449C129.44 29.4525 129.541 28.7321 129.742 28.0838C129.944 27.4355 130.247 26.8808 130.65 26.4198C131.054 25.9587 131.551 25.6058 132.141 25.3608C132.746 25.1015 133.445 24.9718 134.238 24.9718C135.03 24.9718 135.729 25.1015 136.334 25.3608C136.939 25.6058 137.443 25.9587 137.847 26.4198C138.25 26.8808 138.553 27.4355 138.754 28.0838C138.956 28.7321 139.057 29.4525 139.057 30.2449V31.8873ZM137.155 30.2449C137.155 29.1356 136.925 28.2567 136.463 27.6084C136.002 26.9601 135.26 26.6359 134.238 26.6359C133.229 26.6359 132.494 26.9601 132.033 27.6084C131.572 28.2423 131.342 29.1211 131.342 30.2449V31.8873C131.342 32.9967 131.565 33.8756 132.012 34.5239C132.473 35.1722 133.215 35.4964 134.238 35.4964C135.246 35.4964 135.981 35.1794 136.442 34.5455C136.917 33.8972 137.155 33.0111 137.155 31.8873V30.2449ZM146.943 26.2469C146.943 26.4918 146.792 26.6143 146.489 26.6143C145.985 26.6143 145.495 26.6863 145.02 26.8304C144.559 26.9601 144.054 27.1906 143.507 27.5219V36.5769C143.507 36.6922 143.464 36.793 143.377 36.8795C143.291 36.9659 143.19 37.0091 143.075 37.0091H142.016C141.901 37.0091 141.8 36.9659 141.713 36.8795C141.641 36.793 141.605 36.6922 141.605 36.5769V25.5553C141.605 25.4401 141.641 25.3392 141.713 25.2528C141.8 25.1663 141.901 25.1231 142.016 25.1231H143.032C143.147 25.1231 143.24 25.1663 143.312 25.2528C143.399 25.3392 143.442 25.4401 143.442 25.5553V26.0092C143.99 25.6346 144.508 25.368 144.998 25.2096C145.502 25.0511 145.999 24.9718 146.489 24.9718C146.792 24.9718 146.943 25.1015 146.943 25.3608V26.2469ZM157.627 31.1958C157.627 31.5128 157.49 31.6712 157.217 31.6712H149.977V31.9738C149.977 33.256 150.229 34.1637 150.733 34.6968C151.238 35.2298 151.987 35.4964 152.981 35.4964C153.615 35.4964 154.285 35.4748 154.991 35.4315C155.711 35.3883 156.323 35.3307 156.828 35.2587H156.936C157.022 35.2587 157.101 35.2803 157.173 35.3235C157.245 35.3667 157.281 35.4459 157.281 35.5612V36.296C157.281 36.4401 157.253 36.5553 157.195 36.6418C157.137 36.7138 157.022 36.7642 156.849 36.793C156.23 36.9083 155.61 36.9947 154.991 37.0524C154.386 37.1244 153.716 37.1604 152.981 37.1604C152.361 37.1604 151.756 37.0812 151.166 36.9227C150.575 36.7498 150.049 36.4689 149.588 36.0799C149.141 35.6765 148.774 35.1434 148.486 34.4807C148.212 33.8179 148.075 32.9823 148.075 31.9738V30.0288C148.075 28.4728 148.486 27.241 149.307 26.3333C150.128 25.4257 151.317 24.9718 152.873 24.9718C153.665 24.9718 154.357 25.0943 154.947 25.3392C155.538 25.5697 156.028 25.9083 156.417 26.3549C156.82 26.7872 157.123 27.3202 157.325 27.9542C157.526 28.5737 157.627 29.2652 157.627 30.0288V31.1958ZM155.704 30.0288C155.704 28.8042 155.466 27.9325 154.991 27.4139C154.53 26.8952 153.824 26.6359 152.873 26.6359C151.936 26.6359 151.216 26.9096 150.712 27.4571C150.222 28.0046 149.977 28.8618 149.977 30.0288V30.2233H155.704V30.0288Z" fill="white"/>
<path d="M43.4783 37.5386C42.4256 36.9079 40.236 35.5947 40.236 32.1786C40.236 29.2955 42.1692 27.8405 43.2074 27.0588L43.2291 27.0424C43.646 26.7287 43.7453 26.1446 43.456 25.7108C41.1362 22.2343 37.1522 22.1339 36.3776 22.1484H36.373C35.8417 22.149 35.3347 22.2101 34.8541 22.3065C35.0316 22.1648 35.2039 22.0138 35.3696 21.8537C37.0292 20.251 37.9412 17.8864 37.8709 15.3642C37.8557 14.8319 37.4191 14.4073 36.8852 14.4073C35.0901 14.4073 33.0491 15.4777 31.5585 17.2012C30.0567 18.9378 29.3551 21.0182 29.6345 22.9084C29.6575 23.0652 29.718 23.2083 29.8048 23.331C29.5418 23.2431 29.2637 23.1407 28.9888 23.0396C27.9447 22.6557 26.7604 22.2206 25.6518 22.2206C25.6295 22.2206 23.3754 22.237 21.1247 23.6323C19.156 24.8536 16.8086 27.3955 16.8086 32.5731C16.8086 35.2659 17.8626 39.0356 19.494 42.178C20.621 44.3491 22.9599 47.9928 25.9635 48.0099H25.9957C28.186 48.0099 30.0008 46.719 31.235 46.719C33.3431 46.719 34.0933 48.0243 36.373 48.0243C38.4166 48.0243 40.3971 46.4748 42.2599 43.4197C42.9438 42.2975 43.4757 41.1877 43.8012 40.4539C44.4226 39.056 44.4226 38.8696 44.4226 38.7331C44.4226 38.105 43.9426 37.8169 43.4783 37.5386ZM33.0518 18.4875C33.8612 17.5516 34.881 16.8573 35.847 16.5508C35.6622 18.0793 35.0152 19.4569 33.998 20.4387C33.2852 21.1272 32.4297 21.5748 31.5611 21.729C31.6532 20.6474 32.1713 19.5055 33.0518 18.4875ZM40.4793 42.5508C39.0715 44.8111 37.6131 46.0554 36.373 46.0554C34.6667 46.0554 33.8691 44.75 31.235 44.75C29.4577 44.75 27.7619 46.0502 25.9747 46.041C24.5807 46.0331 22.7685 44.206 21.2457 41.2723C19.7484 38.3892 18.7812 34.9745 18.7812 32.5731C18.7812 29.1734 19.901 26.7405 22.1077 25.3413C23.8258 24.2525 25.5834 24.1914 25.6577 24.1895C27.1977 24.1934 29.3354 25.5539 30.8931 25.5539C32.2956 25.5539 34.1735 24.1173 36.3802 24.1173H36.4164C36.9516 24.1068 39.4785 24.1665 41.2539 26.0895C39.9993 27.1441 38.2634 29.0408 38.2634 32.1786C38.2634 36.4406 40.9639 38.3117 42.2395 39.0921C41.922 39.86 41.3164 41.2073 40.4793 42.5508Z" fill="white"/>
</svg>
