<svg width="53" height="56" viewBox="0 0 53 56" fill="none" xmlns="http://www.w3.org/2000/svg">
<circle cx="26.5" cy="27.5" r="25.5" fill="white" fill-opacity="0.5" stroke="#4E8CDB" stroke-width="2"/>
<path d="M29.0891 14.6623L28.6647 33.2582H24.5237L24.1122 14.6623H29.0891ZM26.5942 41.2829C25.814 41.2829 25.1453 41.0086 24.588 40.4599C24.0393 39.9112 23.7649 39.2424 23.7649 38.4537C23.7649 37.6821 24.0393 37.0219 24.588 36.4732C25.1453 35.9245 25.814 35.6502 26.5942 35.6502C27.3572 35.6502 28.0174 35.9245 28.5747 36.4732C29.1405 37.0219 29.4234 37.6821 29.4234 38.4537C29.4234 38.9767 29.2905 39.4525 29.0248 39.8812C28.7676 40.3098 28.4246 40.6528 27.9959 40.91C27.5758 41.1586 27.1086 41.2829 26.5942 41.2829Z" fill="#07003D"/>
</svg>
