<svg width="389" height="161" viewBox="0 0 389 161" fill="none" xmlns="http://www.w3.org/2000/svg">
<rect width="388" height="161" rx="23" fill="white"/>
<rect width="389" height="161" rx="23" fill="url(#paint0_linear_213_2582)"/>
<path d="M42.5312 50.3906C42.5312 50.5052 42.5 50.6094 42.4375 50.7031C42.3854 50.7865 42.276 50.8594 42.1094 50.9219C41.9531 50.974 41.7344 51.0156 41.4531 51.0469C41.1719 51.0781 40.8177 51.0938 40.3906 51.0938C39.7135 51.0938 39.224 51.0677 38.9219 51.0156C38.6302 50.9635 38.4167 50.8854 38.2812 50.7812C38.1562 50.6771 38.0573 50.5521 37.9844 50.4062L31.875 40.8125V50.4062C31.875 50.5208 31.8438 50.6198 31.7812 50.7031C31.7188 50.7865 31.6094 50.8594 31.4531 50.9219C31.2969 50.974 31.0885 51.0156 30.8281 51.0469C30.5677 51.0781 30.2344 51.0938 29.8281 51.0938C29.4323 51.0938 29.099 51.0781 28.8281 51.0469C28.5677 51.0156 28.3594 50.974 28.2031 50.9219C28.0469 50.8594 27.9323 50.7865 27.8594 50.7031C27.7969 50.6198 27.7656 50.5208 27.7656 50.4062V31.3594C27.7656 31.2448 27.7969 31.1458 27.8594 31.0625C27.9323 30.9792 28.0469 30.9115 28.2031 30.8594C28.3594 30.8073 28.5677 30.7656 28.8281 30.7344C29.099 30.7031 29.4323 30.6875 29.8281 30.6875C30.2344 30.6875 30.5677 30.7031 30.8281 30.7344C31.0885 30.7656 31.2969 30.8073 31.4531 30.8594C31.6094 30.9115 31.7188 30.9792 31.7812 31.0625C31.8438 31.1458 31.875 31.2448 31.875 31.3594V39.9688L37.7969 31.375C37.8698 31.2396 37.9583 31.1302 38.0625 31.0469C38.1667 30.9531 38.3021 30.8802 38.4688 30.8281C38.6354 30.776 38.849 30.7396 39.1094 30.7188C39.3698 30.6979 39.7031 30.6875 40.1094 30.6875C40.526 30.6875 40.8698 30.7031 41.1406 30.7344C41.4115 30.7656 41.625 30.8125 41.7812 30.875C41.9479 30.9271 42.0625 30.9948 42.125 31.0781C42.1875 31.1615 42.2188 31.2552 42.2188 31.3594C42.2188 31.5365 42.1719 31.7188 42.0781 31.9062C41.9844 32.0938 41.8073 32.3906 41.5469 32.7969L36 40.0625L42.0469 49.2031C42.276 49.6302 42.4115 49.9167 42.4531 50.0625C42.5052 50.1979 42.5312 50.3073 42.5312 50.3906ZM60.2656 50.4688C60.2656 50.5833 60.2448 50.6823 60.2031 50.7656C60.1615 50.8385 60.0625 50.901 59.9062 50.9531C59.75 51.0052 59.5208 51.0417 59.2188 51.0625C58.9167 51.0833 58.5052 51.0938 57.9844 51.0938C57.5469 51.0938 57.1979 51.0833 56.9375 51.0625C56.6771 51.0417 56.4688 51.0052 56.3125 50.9531C56.1667 50.8906 56.0625 50.8177 56 50.7344C55.9375 50.6406 55.8854 50.5312 55.8438 50.4062L54.0312 45.8906C53.8125 45.3802 53.599 44.9271 53.3906 44.5312C53.1823 44.1354 52.9479 43.8073 52.6875 43.5469C52.4375 43.276 52.1458 43.0729 51.8125 42.9375C51.4792 42.8021 51.0938 42.7344 50.6562 42.7344H49.375V50.4375C49.375 50.5417 49.3385 50.6354 49.2656 50.7188C49.2031 50.8021 49.0938 50.8698 48.9375 50.9219C48.7812 50.974 48.5729 51.0156 48.3125 51.0469C48.0521 51.0781 47.7188 51.0938 47.3125 51.0938C46.9167 51.0938 46.5833 51.0781 46.3125 51.0469C46.0521 51.0156 45.8438 50.974 45.6875 50.9219C45.5312 50.8698 45.4219 50.8021 45.3594 50.7188C45.2969 50.6354 45.2656 50.5417 45.2656 50.4375V32.0781C45.2656 31.6198 45.3802 31.2917 45.6094 31.0938C45.849 30.8854 46.1406 30.7812 46.4844 30.7812H51.7188C52.25 30.7812 52.6875 30.7917 53.0312 30.8125C53.375 30.8333 53.6875 30.8594 53.9688 30.8906C54.7812 31.0052 55.5104 31.2031 56.1562 31.4844C56.8125 31.7656 57.3646 32.1354 57.8125 32.5938C58.2708 33.0417 58.6198 33.5781 58.8594 34.2031C59.099 34.8177 59.2188 35.526 59.2188 36.3281C59.2188 37.0052 59.1302 37.625 58.9531 38.1875C58.7865 38.7396 58.5365 39.2344 58.2031 39.6719C57.8698 40.1094 57.4583 40.4896 56.9688 40.8125C56.4792 41.1354 55.9219 41.3958 55.2969 41.5938C55.599 41.7396 55.8802 41.9167 56.1406 42.125C56.4115 42.3333 56.6615 42.5885 56.8906 42.8906C57.1302 43.1823 57.3542 43.5208 57.5625 43.9062C57.7708 44.2812 57.974 44.7083 58.1719 45.1875L59.875 49.1719C60.0312 49.5677 60.1354 49.8594 60.1875 50.0469C60.2396 50.224 60.2656 50.3646 60.2656 50.4688ZM54.9688 36.75C54.9688 36.0833 54.8177 35.5208 54.5156 35.0625C54.2135 34.6042 53.7188 34.2812 53.0312 34.0938C52.8229 34.0417 52.5833 34 52.3125 33.9688C52.0521 33.9375 51.6875 33.9219 51.2188 33.9219H49.375V39.6562H51.4688C52.0521 39.6562 52.5625 39.5885 53 39.4531C53.4375 39.3073 53.8021 39.1094 54.0938 38.8594C54.3854 38.599 54.6042 38.2917 54.75 37.9375C54.8958 37.5833 54.9688 37.1875 54.9688 36.75ZM81.1719 40.6562C81.1719 42.3333 80.9635 43.8333 80.5469 45.1562C80.1302 46.4792 79.5104 47.6042 78.6875 48.5312C77.8646 49.4479 76.8438 50.151 75.625 50.6406C74.4167 51.1198 73.0156 51.3594 71.4219 51.3594C69.849 51.3594 68.474 51.1562 67.2969 50.75C66.1302 50.3333 65.1562 49.7031 64.375 48.8594C63.5938 48.0156 63.0052 46.9427 62.6094 45.6406C62.224 44.3385 62.0312 42.7969 62.0312 41.0156C62.0312 39.3802 62.2396 37.9115 62.6562 36.6094C63.0729 35.2969 63.6927 34.1823 64.5156 33.2656C65.3385 32.349 66.3542 31.6458 67.5625 31.1562C68.7812 30.6667 70.1927 30.4219 71.7969 30.4219C73.3281 30.4219 74.6771 30.625 75.8438 31.0312C77.0208 31.4375 78 32.0625 78.7812 32.9062C79.5729 33.75 80.1667 34.8177 80.5625 36.1094C80.9688 37.3906 81.1719 38.9062 81.1719 40.6562ZM76.8594 40.875C76.8594 39.8125 76.776 38.849 76.6094 37.9844C76.4427 37.1094 76.1562 36.3646 75.75 35.75C75.3542 35.125 74.8229 34.6458 74.1562 34.3125C73.4896 33.9688 72.6562 33.7969 71.6562 33.7969C70.6458 33.7969 69.8021 33.9896 69.125 34.375C68.4479 34.75 67.901 35.2552 67.4844 35.8906C67.0677 36.526 66.7708 37.2708 66.5938 38.125C66.4271 38.9688 66.3438 39.8646 66.3438 40.8125C66.3438 41.9167 66.4271 42.9115 66.5938 43.7969C66.7604 44.6719 67.0417 45.4219 67.4375 46.0469C67.8333 46.6719 68.3646 47.151 69.0312 47.4844C69.6979 47.8073 70.5365 47.9688 71.5469 47.9688C72.5573 47.9688 73.401 47.7812 74.0781 47.4062C74.7552 47.0312 75.3021 46.5208 75.7188 45.875C76.1354 45.2292 76.4271 44.4792 76.5938 43.625C76.7708 42.7604 76.8594 41.8438 76.8594 40.875ZM99.4062 50.3906C99.4062 50.5052 99.375 50.6094 99.3125 50.7031C99.2604 50.7865 99.151 50.8594 98.9844 50.9219C98.8281 50.974 98.6094 51.0156 98.3281 51.0469C98.0469 51.0781 97.6927 51.0938 97.2656 51.0938C96.5885 51.0938 96.099 51.0677 95.7969 51.0156C95.5052 50.9635 95.2917 50.8854 95.1562 50.7812C95.0312 50.6771 94.9323 50.5521 94.8594 50.4062L88.75 40.8125V50.4062C88.75 50.5208 88.7188 50.6198 88.6562 50.7031C88.5938 50.7865 88.4844 50.8594 88.3281 50.9219C88.1719 50.974 87.9635 51.0156 87.7031 51.0469C87.4427 51.0781 87.1094 51.0938 86.7031 51.0938C86.3073 51.0938 85.974 51.0781 85.7031 51.0469C85.4427 51.0156 85.2344 50.974 85.0781 50.9219C84.9219 50.8594 84.8073 50.7865 84.7344 50.7031C84.6719 50.6198 84.6406 50.5208 84.6406 50.4062V31.3594C84.6406 31.2448 84.6719 31.1458 84.7344 31.0625C84.8073 30.9792 84.9219 30.9115 85.0781 30.8594C85.2344 30.8073 85.4427 30.7656 85.7031 30.7344C85.974 30.7031 86.3073 30.6875 86.7031 30.6875C87.1094 30.6875 87.4427 30.7031 87.7031 30.7344C87.9635 30.7656 88.1719 30.8073 88.3281 30.8594C88.4844 30.9115 88.5938 30.9792 88.6562 31.0625C88.7188 31.1458 88.75 31.2448 88.75 31.3594V39.9688L94.6719 31.375C94.7448 31.2396 94.8333 31.1302 94.9375 31.0469C95.0417 30.9531 95.1771 30.8802 95.3438 30.8281C95.5104 30.776 95.724 30.7396 95.9844 30.7188C96.2448 30.6979 96.5781 30.6875 96.9844 30.6875C97.401 30.6875 97.7448 30.7031 98.0156 30.7344C98.2865 30.7656 98.5 30.8125 98.6562 30.875C98.8229 30.9271 98.9375 30.9948 99 31.0781C99.0625 31.1615 99.0938 31.2552 99.0938 31.3594C99.0938 31.5365 99.0469 31.7188 98.9531 31.9062C98.8594 32.0938 98.6823 32.3906 98.4219 32.7969L92.875 40.0625L98.9219 49.2031C99.151 49.6302 99.2865 49.9167 99.3281 50.0625C99.3802 50.1979 99.4062 50.3073 99.4062 50.3906ZM123.234 36.9219C123.234 38.0573 123.057 39.0625 122.703 39.9375C122.349 40.8125 121.833 41.5521 121.156 42.1562C120.479 42.75 119.646 43.2031 118.656 43.5156C117.677 43.8281 116.521 43.9844 115.188 43.9844H113.5V50.4375C113.5 50.5417 113.464 50.6354 113.391 50.7188C113.328 50.8021 113.219 50.8698 113.062 50.9219C112.906 50.974 112.698 51.0156 112.438 51.0469C112.177 51.0781 111.844 51.0938 111.438 51.0938C111.042 51.0938 110.708 51.0781 110.438 51.0469C110.177 51.0156 109.969 50.974 109.812 50.9219C109.656 50.8698 109.547 50.8021 109.484 50.7188C109.422 50.6354 109.391 50.5417 109.391 50.4375V32.25C109.391 31.7604 109.516 31.3958 109.766 31.1562C110.026 30.9062 110.365 30.7812 110.781 30.7812H115.547C116.026 30.7812 116.479 30.8021 116.906 30.8438C117.344 30.875 117.865 30.9531 118.469 31.0781C119.073 31.1927 119.682 31.4115 120.297 31.7344C120.922 32.0573 121.453 32.4688 121.891 32.9688C122.328 33.4583 122.661 34.0365 122.891 34.7031C123.12 35.3594 123.234 36.099 123.234 36.9219ZM118.938 37.2188C118.938 36.5104 118.812 35.9271 118.562 35.4688C118.312 35.0104 118.005 34.6719 117.641 34.4531C117.276 34.2344 116.891 34.099 116.484 34.0469C116.089 33.9844 115.677 33.9531 115.25 33.9531H113.5V40.8125H115.344C116 40.8125 116.547 40.724 116.984 40.5469C117.432 40.3698 117.797 40.125 118.078 39.8125C118.359 39.4896 118.573 39.1094 118.719 38.6719C118.865 38.224 118.938 37.7396 118.938 37.2188ZM137.531 49.2812C137.531 49.5938 137.516 49.8594 137.484 50.0781C137.464 50.2865 137.427 50.4635 137.375 50.6094C137.323 50.7448 137.255 50.8438 137.172 50.9062C137.099 50.9688 137.01 51 136.906 51H127.641C127.297 51 127.005 50.901 126.766 50.7031C126.536 50.4948 126.422 50.1615 126.422 49.7031V31.3438C126.422 31.2396 126.453 31.1458 126.516 31.0625C126.589 30.9792 126.703 30.9115 126.859 30.8594C127.016 30.8073 127.224 30.7656 127.484 30.7344C127.755 30.7031 128.089 30.6875 128.484 30.6875C128.891 30.6875 129.224 30.7031 129.484 30.7344C129.745 30.7656 129.953 30.8073 130.109 30.8594C130.266 30.9115 130.375 30.9792 130.438 31.0625C130.51 31.1458 130.547 31.2396 130.547 31.3438V47.6094H136.906C137.01 47.6094 137.099 47.6406 137.172 47.7031C137.255 47.7552 137.323 47.849 137.375 47.9844C137.427 48.1094 137.464 48.2812 137.484 48.5C137.516 48.7083 137.531 48.9688 137.531 49.2812ZM155.672 43.4688C155.672 44.7083 155.49 45.8177 155.125 46.7969C154.76 47.776 154.224 48.6042 153.516 49.2812C152.807 49.9583 151.932 50.474 150.891 50.8281C149.849 51.1823 148.651 51.3594 147.297 51.3594C146.026 51.3594 144.885 51.2031 143.875 50.8906C142.865 50.5677 142.01 50.0833 141.312 49.4375C140.615 48.7917 140.078 47.9896 139.703 47.0312C139.339 46.0625 139.156 44.9323 139.156 43.6406V31.3438C139.156 31.2396 139.188 31.1458 139.25 31.0625C139.312 30.9792 139.422 30.9115 139.578 30.8594C139.745 30.8073 139.958 30.7656 140.219 30.7344C140.479 30.7031 140.812 30.6875 141.219 30.6875C141.615 30.6875 141.943 30.7031 142.203 30.7344C142.464 30.7656 142.672 30.8073 142.828 30.8594C142.984 30.9115 143.094 30.9792 143.156 31.0625C143.229 31.1458 143.266 31.2396 143.266 31.3438V43.2812C143.266 44.0833 143.365 44.7812 143.562 45.375C143.76 45.9583 144.042 46.4427 144.406 46.8281C144.781 47.2135 145.224 47.5052 145.734 47.7031C146.255 47.8906 146.833 47.9844 147.469 47.9844C148.115 47.9844 148.693 47.8854 149.203 47.6875C149.714 47.4896 150.146 47.2031 150.5 46.8281C150.854 46.4427 151.125 45.974 151.312 45.4219C151.51 44.8594 151.609 44.224 151.609 43.5156V31.3438C151.609 31.2396 151.641 31.1458 151.703 31.0625C151.766 30.9792 151.875 30.9115 152.031 30.8594C152.188 30.8073 152.396 30.7656 152.656 30.7344C152.927 30.7031 153.26 30.6875 153.656 30.6875C154.052 30.6875 154.375 30.7031 154.625 30.7344C154.885 30.7656 155.094 30.8073 155.25 30.8594C155.406 30.9115 155.516 30.9792 155.578 31.0625C155.641 31.1458 155.672 31.2396 155.672 31.3438V43.4688ZM172.062 44.9375C172.062 46 171.865 46.9323 171.469 47.7344C171.073 48.5365 170.536 49.2083 169.859 49.75C169.182 50.2812 168.391 50.6823 167.484 50.9531C166.578 51.224 165.609 51.3594 164.578 51.3594C163.88 51.3594 163.229 51.3021 162.625 51.1875C162.031 51.0729 161.505 50.9375 161.047 50.7812C160.589 50.6146 160.203 50.4427 159.891 50.2656C159.589 50.0885 159.37 49.9323 159.234 49.7969C159.099 49.6615 159 49.4688 158.938 49.2188C158.885 48.9583 158.859 48.5885 158.859 48.1094C158.859 47.7865 158.87 47.5156 158.891 47.2969C158.911 47.0781 158.943 46.901 158.984 46.7656C159.036 46.6302 159.099 46.5365 159.172 46.4844C159.255 46.4219 159.349 46.3906 159.453 46.3906C159.599 46.3906 159.802 46.4792 160.062 46.6562C160.333 46.8229 160.677 47.0104 161.094 47.2188C161.51 47.4271 162.005 47.6198 162.578 47.7969C163.161 47.9635 163.833 48.0469 164.594 48.0469C165.094 48.0469 165.542 47.9896 165.938 47.875C166.333 47.75 166.667 47.5781 166.938 47.3594C167.219 47.1406 167.432 46.8698 167.578 46.5469C167.724 46.224 167.797 45.8646 167.797 45.4688C167.797 45.0104 167.672 44.6198 167.422 44.2969C167.172 43.9635 166.844 43.6719 166.438 43.4219C166.042 43.1615 165.589 42.9219 165.078 42.7031C164.568 42.474 164.042 42.2344 163.5 41.9844C162.958 41.7344 162.432 41.4531 161.922 41.1406C161.411 40.8177 160.953 40.4375 160.547 40C160.151 39.5521 159.828 39.026 159.578 38.4219C159.328 37.8177 159.203 37.0938 159.203 36.25C159.203 35.2812 159.38 34.4323 159.734 33.7031C160.099 32.9635 160.583 32.3542 161.188 31.875C161.802 31.3854 162.521 31.0208 163.344 30.7812C164.177 30.5417 165.057 30.4219 165.984 30.4219C166.464 30.4219 166.943 30.4583 167.422 30.5312C167.901 30.6042 168.349 30.7031 168.766 30.8281C169.182 30.9531 169.552 31.0938 169.875 31.25C170.198 31.4062 170.411 31.5365 170.516 31.6406C170.62 31.7448 170.688 31.8333 170.719 31.9062C170.76 31.9792 170.792 32.0781 170.812 32.2031C170.844 32.3177 170.865 32.4688 170.875 32.6562C170.885 32.8333 170.891 33.0573 170.891 33.3281C170.891 33.6302 170.88 33.8854 170.859 34.0938C170.849 34.3021 170.823 34.474 170.781 34.6094C170.75 34.7448 170.698 34.8438 170.625 34.9062C170.562 34.9688 170.474 35 170.359 35C170.245 35 170.062 34.9271 169.812 34.7812C169.562 34.6354 169.255 34.4792 168.891 34.3125C168.526 34.1354 168.104 33.9792 167.625 33.8438C167.146 33.6979 166.62 33.625 166.047 33.625C165.599 33.625 165.208 33.6823 164.875 33.7969C164.542 33.901 164.26 34.0521 164.031 34.25C163.812 34.4375 163.646 34.6667 163.531 34.9375C163.427 35.2083 163.375 35.4948 163.375 35.7969C163.375 36.2448 163.495 36.6354 163.734 36.9688C163.984 37.2917 164.312 37.5833 164.719 37.8438C165.135 38.0938 165.604 38.3333 166.125 38.5625C166.646 38.7812 167.177 39.0156 167.719 39.2656C168.26 39.5156 168.792 39.8021 169.312 40.125C169.833 40.4375 170.297 40.8177 170.703 41.2656C171.109 41.7031 171.438 42.224 171.688 42.8281C171.938 43.4219 172.062 44.125 172.062 44.9375Z" fill="white" fill-opacity="0.4"/>
<path d="M26.8 58.815H28.345L27.625 62.52H25.525L26.8 58.815ZM29.56 58.815H31.105L30.385 62.52H28.285L29.56 58.815ZM33.5754 60.63H30.8454V58.8H38.3454V60.63H35.6454V69H33.5754V60.63ZM38.4759 58.5H40.4859V61.86C40.8659 61.67 41.2009 61.535 41.4909 61.455C41.7909 61.365 42.1109 61.32 42.4509 61.32C43.3709 61.32 44.0209 61.615 44.4009 62.205C44.7909 62.785 44.9859 63.695 44.9859 64.935V69H42.9759V64.98C42.9759 64.3 42.8959 63.82 42.7359 63.54C42.5759 63.26 42.2659 63.12 41.8059 63.12C41.4459 63.12 41.0709 63.18 40.6809 63.3L40.4859 63.36V69H38.4759V58.5ZM48.7069 69.18C47.5369 69.18 46.6919 68.885 46.1719 68.295C45.6519 67.705 45.3919 66.75 45.3919 65.43C45.3919 64.05 45.6619 63.02 46.2019 62.34C46.7519 61.66 47.6019 61.32 48.7519 61.32C49.8119 61.32 50.6119 61.605 51.1519 62.175C51.7019 62.735 51.9769 63.58 51.9769 64.71L51.8269 66.105H47.4169C47.4369 66.455 47.4969 66.725 47.5969 66.915C47.7069 67.095 47.8769 67.225 48.1069 67.305C48.3469 67.375 48.6769 67.41 49.0969 67.41C49.4269 67.41 49.8219 67.4 50.2819 67.38C50.7419 67.36 51.0769 67.34 51.2869 67.32L51.7069 67.275L51.7369 68.76C50.6069 69.04 49.5969 69.18 48.7069 69.18ZM49.9969 64.575C49.9969 63.975 49.9019 63.56 49.7119 63.33C49.5319 63.09 49.2069 62.97 48.7369 62.97C48.2569 62.97 47.9169 63.095 47.7169 63.345C47.5169 63.585 47.4119 63.995 47.4019 64.575H49.9969ZM57.6493 69.18C56.4793 69.18 55.6343 68.885 55.1143 68.295C54.5943 67.705 54.3343 66.75 54.3343 65.43C54.3343 64.05 54.6043 63.02 55.1443 62.34C55.6943 61.66 56.5443 61.32 57.6943 61.32C58.7543 61.32 59.5543 61.605 60.0943 62.175C60.6443 62.735 60.9193 63.58 60.9193 64.71L60.7693 66.105H56.3593C56.3793 66.455 56.4393 66.725 56.5393 66.915C56.6493 67.095 56.8193 67.225 57.0493 67.305C57.2893 67.375 57.6193 67.41 58.0393 67.41C58.3693 67.41 58.7643 67.4 59.2243 67.38C59.6843 67.36 60.0193 67.34 60.2293 67.32L60.6493 67.275L60.6793 68.76C59.5493 69.04 58.5393 69.18 57.6493 69.18ZM58.9393 64.575C58.9393 63.975 58.8443 63.56 58.6543 63.33C58.4743 63.09 58.1493 62.97 57.6793 62.97C57.1993 62.97 56.8593 63.095 56.6593 63.345C56.4593 63.585 56.3543 63.995 56.3443 64.575H58.9393ZM63.1858 69.18C61.6358 69.18 60.8608 68.36 60.8608 66.72C60.8608 65.94 61.0658 65.38 61.4758 65.04C61.8958 64.69 62.5658 64.485 63.4858 64.425L65.0908 64.305V63.84C65.0908 63.54 65.0208 63.33 64.8808 63.21C64.7508 63.09 64.5258 63.03 64.2058 63.03C63.8758 63.03 63.4208 63.045 62.8408 63.075C62.2608 63.095 61.7758 63.12 61.3858 63.15L61.3258 61.755C62.4058 61.465 63.4258 61.32 64.3858 61.32C65.3458 61.32 66.0358 61.52 66.4558 61.92C66.8858 62.32 67.1008 62.96 67.1008 63.84V66.96C67.1208 67.21 67.1608 67.38 67.2208 67.47C67.2908 67.56 67.4158 67.625 67.5958 67.665L67.5358 69.18C67.0158 69.18 66.6008 69.145 66.2908 69.075C65.9908 69.005 65.6908 68.865 65.3908 68.655C64.6608 69.005 63.9258 69.18 63.1858 69.18ZM63.6208 67.545C64.0008 67.545 64.4158 67.485 64.8658 67.365L65.0908 67.305V65.7L63.7258 65.82C63.1658 65.87 62.8858 66.17 62.8858 66.72C62.8858 67.27 63.1308 67.545 63.6208 67.545ZM68.0169 61.5H70.0119V62.295C70.8719 61.795 71.6719 61.47 72.4119 61.32V63.345C71.6619 63.495 70.9669 63.67 70.3269 63.87L70.0269 63.975V69H68.0169V61.5ZM72.688 58.5H74.698V69H72.688V58.5ZM75.6409 61.5H77.6509V69H75.6409V61.5ZM75.6409 58.515H77.6509V60.54H75.6409V58.515ZM81.3749 69.18C80.2049 69.18 79.3599 68.885 78.8399 68.295C78.3199 67.705 78.0599 66.75 78.0599 65.43C78.0599 64.05 78.3299 63.02 78.8699 62.34C79.4199 61.66 80.2699 61.32 81.4199 61.32C82.4799 61.32 83.2799 61.605 83.8199 62.175C84.3699 62.735 84.6449 63.58 84.6449 64.71L84.4949 66.105H80.0849C80.1049 66.455 80.1649 66.725 80.2649 66.915C80.3749 67.095 80.5449 67.225 80.7749 67.305C81.0149 67.375 81.3449 67.41 81.7649 67.41C82.0949 67.41 82.4899 67.4 82.9499 67.38C83.4099 67.36 83.7449 67.34 83.9549 67.32L84.3749 67.275L84.4049 68.76C83.2749 69.04 82.2649 69.18 81.3749 69.18ZM82.6649 64.575C82.6649 63.975 82.5699 63.56 82.3799 63.33C82.1999 63.09 81.8749 62.97 81.4049 62.97C80.9249 62.97 80.5849 63.095 80.3849 63.345C80.1849 63.585 80.0799 63.995 80.0699 64.575H82.6649ZM85.0814 61.5H87.0764V62.295C87.9364 61.795 88.7364 61.47 89.4764 61.32V63.345C88.7264 63.495 88.0314 63.67 87.3914 63.87L87.0914 63.975V69H85.0814V61.5ZM94.5233 69H93.1133L91.2683 61.5H93.2483L94.6133 67.29H94.9583L96.3233 61.5H98.3033L95.6633 72.15H93.6983L94.5233 69ZM101.401 69.18C100.271 69.18 99.4111 68.84 98.8211 68.16C98.2411 67.47 97.9511 66.495 97.9511 65.235C97.9511 63.985 98.2411 63.02 98.8211 62.34C99.4111 61.66 100.271 61.32 101.401 61.32C102.531 61.32 103.386 61.66 103.966 62.34C104.556 63.02 104.851 63.985 104.851 65.235C104.851 66.495 104.556 67.47 103.966 68.16C103.386 68.84 102.531 69.18 101.401 69.18ZM101.401 67.47C101.881 67.47 102.236 67.295 102.466 66.945C102.696 66.595 102.811 66.025 102.811 65.235C102.811 64.445 102.696 63.88 102.466 63.54C102.236 63.2 101.881 63.03 101.401 63.03C100.921 63.03 100.566 63.2 100.336 63.54C100.106 63.88 99.9911 64.445 99.9911 65.235C99.9911 66.025 100.106 66.595 100.336 66.945C100.566 67.295 100.921 67.47 101.401 67.47ZM107.755 69.18C107.115 69.18 106.61 69.05 106.24 68.79C105.88 68.53 105.625 68.13 105.475 67.59C105.325 67.05 105.25 66.33 105.25 65.43V61.5H107.26V65.46C107.26 66 107.285 66.405 107.335 66.675C107.385 66.935 107.485 67.12 107.635 67.23C107.795 67.33 108.035 67.38 108.355 67.38C108.585 67.38 108.79 67.36 108.97 67.32C109.16 67.28 109.42 67.21 109.75 67.11V61.5H111.76V69H109.765V68.58C109.345 68.81 108.985 68.965 108.685 69.045C108.395 69.135 108.085 69.18 107.755 69.18ZM117.536 69.18C116.876 69.18 116.071 69.09 115.121 68.91L114.641 68.82L114.701 67.14C115.911 67.3 116.791 67.38 117.341 67.38C117.711 67.38 118.001 67.34 118.211 67.26C118.431 67.18 118.541 67.03 118.541 66.81C118.541 66.61 118.436 66.465 118.226 66.375C118.026 66.285 117.686 66.2 117.206 66.12C117.026 66.1 116.901 66.08 116.831 66.06C116.331 65.97 115.921 65.86 115.601 65.73C115.281 65.59 115.021 65.375 114.821 65.085C114.621 64.785 114.521 64.37 114.521 63.84C114.521 62.99 114.781 62.36 115.301 61.95C115.821 61.54 116.536 61.335 117.446 61.335C117.986 61.335 118.781 61.43 119.831 61.62L120.326 61.71L120.296 63.375C119.086 63.215 118.191 63.135 117.611 63.135C117.271 63.135 117.001 63.17 116.801 63.24C116.611 63.31 116.516 63.445 116.516 63.645C116.516 63.855 116.616 64.005 116.816 64.095C117.016 64.175 117.341 64.255 117.791 64.335L118.316 64.425C119.116 64.585 119.686 64.825 120.026 65.145C120.366 65.455 120.536 65.96 120.536 66.66C120.536 67.52 120.291 68.155 119.801 68.565C119.311 68.975 118.556 69.18 117.536 69.18ZM123.537 69.18C122.957 69.18 122.507 69.09 122.187 68.91C121.867 68.73 121.637 68.435 121.497 68.025C121.357 67.615 121.287 67.05 121.287 66.33V63.21H120.402V61.5H121.287V59.415H123.297V61.5H125.142V63.21H123.297V66.285C123.297 66.675 123.332 66.96 123.402 67.14C123.472 67.31 123.647 67.39 123.927 67.38L125.067 67.35L125.157 68.955C124.757 69.045 124.442 69.105 124.212 69.135C123.992 69.165 123.767 69.18 123.537 69.18ZM127.281 69.18C125.731 69.18 124.956 68.36 124.956 66.72C124.956 65.94 125.161 65.38 125.571 65.04C125.991 64.69 126.661 64.485 127.581 64.425L129.186 64.305V63.84C129.186 63.54 129.116 63.33 128.976 63.21C128.846 63.09 128.621 63.03 128.301 63.03C127.971 63.03 127.516 63.045 126.936 63.075C126.356 63.095 125.871 63.12 125.481 63.15L125.421 61.755C126.501 61.465 127.521 61.32 128.481 61.32C129.441 61.32 130.131 61.52 130.551 61.92C130.981 62.32 131.196 62.96 131.196 63.84V66.96C131.216 67.21 131.256 67.38 131.316 67.47C131.386 67.56 131.511 67.625 131.691 67.665L131.631 69.18C131.111 69.18 130.696 69.145 130.386 69.075C130.086 69.005 129.786 68.865 129.486 68.655C128.756 69.005 128.021 69.18 127.281 69.18ZM127.716 67.545C128.096 67.545 128.511 67.485 128.961 67.365L129.186 67.305V65.7L127.821 65.82C127.261 65.87 126.981 66.17 126.981 66.72C126.981 67.27 127.226 67.545 127.716 67.545ZM132.112 61.5H134.107V62.295C134.967 61.795 135.767 61.47 136.507 61.32V63.345C135.757 63.495 135.062 63.67 134.422 63.87L134.122 63.975V69H132.112V61.5ZM139.243 69.18C138.663 69.18 138.213 69.09 137.893 68.91C137.573 68.73 137.343 68.435 137.203 68.025C137.063 67.615 136.993 67.05 136.993 66.33V63.21H136.108V61.5H136.993V59.415H139.003V61.5H140.848V63.21H139.003V66.285C139.003 66.675 139.038 66.96 139.108 67.14C139.178 67.31 139.353 67.39 139.633 67.38L140.773 67.35L140.863 68.955C140.463 69.045 140.148 69.105 139.918 69.135C139.698 69.165 139.473 69.18 139.243 69.18ZM142.882 61.5H144.862L145.777 67.29H146.137L147.277 61.65H149.347L150.487 67.29H150.847L151.762 61.5H153.742L152.317 69H149.167L148.312 64.41L147.457 69H144.307L142.882 61.5ZM157.099 69.18C155.969 69.18 155.109 68.84 154.519 68.16C153.939 67.47 153.649 66.495 153.649 65.235C153.649 63.985 153.939 63.02 154.519 62.34C155.109 61.66 155.969 61.32 157.099 61.32C158.229 61.32 159.084 61.66 159.664 62.34C160.254 63.02 160.549 63.985 160.549 65.235C160.549 66.495 160.254 67.47 159.664 68.16C159.084 68.84 158.229 69.18 157.099 69.18ZM157.099 67.47C157.579 67.47 157.934 67.295 158.164 66.945C158.394 66.595 158.509 66.025 158.509 65.235C158.509 64.445 158.394 63.88 158.164 63.54C157.934 63.2 157.579 63.03 157.099 63.03C156.619 63.03 156.264 63.2 156.034 63.54C155.804 63.88 155.689 64.445 155.689 65.235C155.689 66.025 155.804 66.595 156.034 66.945C156.264 67.295 156.619 67.47 157.099 67.47ZM161.023 61.5H163.018V62.295C163.878 61.795 164.678 61.47 165.418 61.32V63.345C164.668 63.495 163.973 63.67 163.333 63.87L163.033 63.975V69H161.023V61.5ZM165.604 58.5H167.614V64.47L168.379 64.335L169.864 61.5H172.114L170.164 65.055L172.219 69H169.954L168.439 66.075L167.614 66.21V69H165.604V58.5ZM172.324 61.5H174.334V69H172.324V61.5ZM172.324 58.515H174.334V60.54H172.324V58.515ZM175.191 61.5H177.186V61.92C177.566 61.7 177.901 61.545 178.191 61.455C178.491 61.365 178.811 61.32 179.151 61.32C180.071 61.32 180.726 61.615 181.116 62.205C181.506 62.795 181.701 63.705 181.701 64.935V69H179.691V64.995C179.691 64.305 179.606 63.82 179.436 63.54C179.276 63.26 178.966 63.12 178.506 63.12C178.176 63.12 177.801 63.19 177.381 63.33L177.201 63.39V69H175.191V61.5ZM185.497 72.45C184.427 72.45 183.592 72.29 182.992 71.97C182.402 71.66 182.107 71.15 182.107 70.44C182.107 70.07 182.192 69.74 182.362 69.45C182.542 69.17 182.817 68.88 183.187 68.58C183.007 68.46 182.867 68.305 182.767 68.115C182.677 67.925 182.632 67.725 182.632 67.515C182.632 67.365 182.667 67.21 182.737 67.05C182.817 66.89 182.977 66.62 183.217 66.24C182.537 65.74 182.197 65.01 182.197 64.05C182.197 63.14 182.472 62.465 183.022 62.025C183.582 61.575 184.357 61.35 185.347 61.35C185.767 61.35 186.272 61.415 186.862 61.545L189.277 61.47V63.075L188.152 62.985C188.282 63.195 188.367 63.375 188.407 63.525C188.457 63.675 188.482 63.88 188.482 64.14C188.482 65.04 188.227 65.685 187.717 66.075C187.207 66.455 186.432 66.645 185.392 66.645C185.092 66.645 184.862 66.625 184.702 66.585C184.602 66.825 184.552 67.03 184.552 67.2C184.552 67.41 184.652 67.54 184.852 67.59C185.062 67.63 185.447 67.655 186.007 67.665C186.777 67.685 187.387 67.745 187.837 67.845C188.297 67.945 188.652 68.15 188.902 68.46C189.152 68.76 189.277 69.205 189.277 69.795C189.277 70.705 188.967 71.375 188.347 71.805C187.727 72.235 186.777 72.45 185.497 72.45ZM185.362 65.115C186.122 65.115 186.502 64.745 186.502 64.005C186.502 63.275 186.122 62.91 185.362 62.91C184.592 62.91 184.207 63.275 184.207 64.005C184.207 64.745 184.592 65.115 185.362 65.115ZM185.632 70.8C186.202 70.8 186.612 70.735 186.862 70.605C187.122 70.475 187.252 70.275 187.252 70.005C187.252 69.755 187.157 69.595 186.967 69.525C186.787 69.465 186.572 69.43 186.322 69.42C186.082 69.41 185.922 69.405 185.842 69.405L184.492 69.3C184.222 69.57 184.087 69.84 184.087 70.11C184.087 70.35 184.212 70.525 184.462 70.635C184.722 70.745 185.112 70.8 185.632 70.8ZM194.85 69.18C193.72 69.18 192.86 68.84 192.27 68.16C191.69 67.47 191.4 66.495 191.4 65.235C191.4 63.985 191.69 63.02 192.27 62.34C192.86 61.66 193.72 61.32 194.85 61.32C195.98 61.32 196.835 61.66 197.415 62.34C198.005 63.02 198.3 63.985 198.3 65.235C198.3 66.495 198.005 67.47 197.415 68.16C196.835 68.84 195.98 69.18 194.85 69.18ZM194.85 67.47C195.33 67.47 195.685 67.295 195.915 66.945C196.145 66.595 196.26 66.025 196.26 65.235C196.26 64.445 196.145 63.88 195.915 63.54C195.685 63.2 195.33 63.03 194.85 63.03C194.37 63.03 194.015 63.2 193.785 63.54C193.555 63.88 193.44 64.445 193.44 65.235C193.44 66.025 193.555 66.595 193.785 66.945C194.015 67.295 194.37 67.47 194.85 67.47ZM198.774 61.5H200.769V61.92C201.149 61.7 201.484 61.545 201.774 61.455C202.074 61.365 202.394 61.32 202.734 61.32C203.654 61.32 204.309 61.615 204.699 62.205C205.089 62.795 205.284 63.705 205.284 64.935V69H203.274V64.995C203.274 64.305 203.189 63.82 203.019 63.54C202.859 63.26 202.549 63.12 202.089 63.12C201.759 63.12 201.384 63.19 200.964 63.33L200.784 63.39V69H198.774V61.5ZM28.555 86.18C27.895 86.18 27.09 86.09 26.14 85.91L25.66 85.82L25.72 84.14C26.93 84.3 27.81 84.38 28.36 84.38C28.73 84.38 29.02 84.34 29.23 84.26C29.45 84.18 29.56 84.03 29.56 83.81C29.56 83.61 29.455 83.465 29.245 83.375C29.045 83.285 28.705 83.2 28.225 83.12C28.045 83.1 27.92 83.08 27.85 83.06C27.35 82.97 26.94 82.86 26.62 82.73C26.3 82.59 26.04 82.375 25.84 82.085C25.64 81.785 25.54 81.37 25.54 80.84C25.54 79.99 25.8 79.36 26.32 78.95C26.84 78.54 27.555 78.335 28.465 78.335C29.005 78.335 29.8 78.43 30.85 78.62L31.345 78.71L31.315 80.375C30.105 80.215 29.21 80.135 28.63 80.135C28.29 80.135 28.02 80.17 27.82 80.24C27.63 80.31 27.535 80.445 27.535 80.645C27.535 80.855 27.635 81.005 27.835 81.095C28.035 81.175 28.36 81.255 28.81 81.335L29.335 81.425C30.135 81.585 30.705 81.825 31.045 82.145C31.385 82.455 31.555 82.96 31.555 83.66C31.555 84.52 31.31 85.155 30.82 85.565C30.33 85.975 29.575 86.18 28.555 86.18ZM35.0652 86.18C33.9352 86.18 33.0752 85.84 32.4852 85.16C31.9052 84.47 31.6152 83.495 31.6152 82.235C31.6152 80.985 31.9052 80.02 32.4852 79.34C33.0752 78.66 33.9352 78.32 35.0652 78.32C36.1952 78.32 37.0502 78.66 37.6302 79.34C38.2202 80.02 38.5152 80.985 38.5152 82.235C38.5152 83.495 38.2202 84.47 37.6302 85.16C37.0502 85.84 36.1952 86.18 35.0652 86.18ZM35.0652 84.47C35.5452 84.47 35.9002 84.295 36.1302 83.945C36.3602 83.595 36.4752 83.025 36.4752 82.235C36.4752 81.445 36.3602 80.88 36.1302 80.54C35.9002 80.2 35.5452 80.03 35.0652 80.03C34.5852 80.03 34.2302 80.2 34.0002 80.54C33.7702 80.88 33.6552 81.445 33.6552 82.235C33.6552 83.025 33.7702 83.595 34.0002 83.945C34.2302 84.295 34.5852 84.47 35.0652 84.47ZM38.9886 78.5H40.9836V78.92C41.3536 78.71 41.6736 78.56 41.9436 78.47C42.2236 78.37 42.5136 78.32 42.8136 78.32C43.1636 78.32 43.4986 78.38 43.8186 78.5C44.1486 78.61 44.4186 78.785 44.6286 79.025C45.0986 78.785 45.5386 78.61 45.9486 78.5C46.3686 78.38 46.7936 78.32 47.2236 78.32C48.1536 78.32 48.8136 78.605 49.2036 79.175C49.5936 79.745 49.7886 80.665 49.7886 81.935V86H47.7786V81.995C47.7786 81.325 47.7036 80.845 47.5536 80.555C47.4036 80.265 47.1236 80.12 46.7136 80.12C46.4236 80.12 46.0386 80.19 45.5586 80.33L45.3336 80.405C45.3736 81.075 45.3936 81.645 45.3936 82.115V86H43.3836V82.145C43.3836 81.605 43.3536 81.195 43.2936 80.915C43.2436 80.635 43.1386 80.435 42.9786 80.315C42.8286 80.185 42.5986 80.12 42.2886 80.12C41.9686 80.12 41.5986 80.19 41.1786 80.33L40.9986 80.39V86H38.9886V78.5ZM53.5116 86.18C52.3416 86.18 51.4966 85.885 50.9766 85.295C50.4566 84.705 50.1966 83.75 50.1966 82.43C50.1966 81.05 50.4666 80.02 51.0066 79.34C51.5566 78.66 52.4066 78.32 53.5566 78.32C54.6166 78.32 55.4166 78.605 55.9566 79.175C56.5066 79.735 56.7816 80.58 56.7816 81.71L56.6316 83.105H52.2216C52.2416 83.455 52.3016 83.725 52.4016 83.915C52.5116 84.095 52.6816 84.225 52.9116 84.305C53.1516 84.375 53.4816 84.41 53.9016 84.41C54.2316 84.41 54.6266 84.4 55.0866 84.38C55.5466 84.36 55.8816 84.34 56.0916 84.32L56.5116 84.275L56.5416 85.76C55.4116 86.04 54.4016 86.18 53.5116 86.18ZM54.8016 81.575C54.8016 80.975 54.7066 80.56 54.5166 80.33C54.3366 80.09 54.0116 79.97 53.5416 79.97C53.0616 79.97 52.7216 80.095 52.5216 80.345C52.3216 80.585 52.2166 80.995 52.2066 81.575H54.8016ZM59.7681 86.18C59.1881 86.18 58.7381 86.09 58.4181 85.91C58.0981 85.73 57.8681 85.435 57.7281 85.025C57.5881 84.615 57.5181 84.05 57.5181 83.33V80.21H56.6331V78.5H57.5181V76.415H59.5281V78.5H61.3731V80.21H59.5281V83.285C59.5281 83.675 59.5631 83.96 59.6331 84.14C59.7031 84.31 59.8781 84.39 60.1581 84.38L61.2981 84.35L61.3881 85.955C60.9881 86.045 60.6731 86.105 60.4431 86.135C60.2231 86.165 59.9981 86.18 59.7681 86.18ZM61.682 75.5H63.692V78.86C64.072 78.67 64.407 78.535 64.697 78.455C64.997 78.365 65.317 78.32 65.657 78.32C66.577 78.32 67.227 78.615 67.607 79.205C67.997 79.785 68.192 80.695 68.192 81.935V86H66.182V81.98C66.182 81.3 66.102 80.82 65.942 80.54C65.782 80.26 65.472 80.12 65.012 80.12C64.652 80.12 64.277 80.18 63.887 80.3L63.692 80.36V86H61.682V75.5ZM68.973 78.5H70.983V86H68.973V78.5ZM68.973 75.515H70.983V77.54H68.973V75.515ZM71.8402 78.5H73.8352V78.92C74.2152 78.7 74.5502 78.545 74.8402 78.455C75.1402 78.365 75.4602 78.32 75.8002 78.32C76.7202 78.32 77.3752 78.615 77.7652 79.205C78.1552 79.795 78.3502 80.705 78.3502 81.935V86H76.3402V81.995C76.3402 81.305 76.2552 80.82 76.0852 80.54C75.9252 80.26 75.6152 80.12 75.1552 80.12C74.8252 80.12 74.4502 80.19 74.0302 80.33L73.8502 80.39V86H71.8402V78.5ZM82.1462 89.45C81.0762 89.45 80.2412 89.29 79.6412 88.97C79.0512 88.66 78.7562 88.15 78.7562 87.44C78.7562 87.07 78.8412 86.74 79.0112 86.45C79.1912 86.17 79.4662 85.88 79.8362 85.58C79.6562 85.46 79.5162 85.305 79.4162 85.115C79.3262 84.925 79.2812 84.725 79.2812 84.515C79.2812 84.365 79.3162 84.21 79.3862 84.05C79.4662 83.89 79.6262 83.62 79.8662 83.24C79.1862 82.74 78.8462 82.01 78.8462 81.05C78.8462 80.14 79.1212 79.465 79.6712 79.025C80.2312 78.575 81.0062 78.35 81.9962 78.35C82.4162 78.35 82.9212 78.415 83.5112 78.545L85.9262 78.47V80.075L84.8012 79.985C84.9312 80.195 85.0162 80.375 85.0562 80.525C85.1062 80.675 85.1312 80.88 85.1312 81.14C85.1312 82.04 84.8762 82.685 84.3662 83.075C83.8562 83.455 83.0812 83.645 82.0412 83.645C81.7412 83.645 81.5112 83.625 81.3512 83.585C81.2512 83.825 81.2012 84.03 81.2012 84.2C81.2012 84.41 81.3012 84.54 81.5012 84.59C81.7112 84.63 82.0962 84.655 82.6562 84.665C83.4262 84.685 84.0362 84.745 84.4862 84.845C84.9462 84.945 85.3012 85.15 85.5512 85.46C85.8012 85.76 85.9262 86.205 85.9262 86.795C85.9262 87.705 85.6162 88.375 84.9962 88.805C84.3762 89.235 83.4262 89.45 82.1462 89.45ZM82.0112 82.115C82.7712 82.115 83.1512 81.745 83.1512 81.005C83.1512 80.275 82.7712 79.91 82.0112 79.91C81.2412 79.91 80.8562 80.275 80.8562 81.005C80.8562 81.745 81.2412 82.115 82.0112 82.115ZM82.2812 87.8C82.8512 87.8 83.2612 87.735 83.5112 87.605C83.7712 87.475 83.9012 87.275 83.9012 87.005C83.9012 86.755 83.8062 86.595 83.6162 86.525C83.4362 86.465 83.2212 86.43 82.9712 86.42C82.7312 86.41 82.5712 86.405 82.4912 86.405L81.1412 86.3C80.8712 86.57 80.7362 86.84 80.7362 87.11C80.7362 87.35 80.8612 87.525 81.1112 87.635C81.3712 87.745 81.7612 87.8 82.2812 87.8ZM86.2639 83.945H88.4839L87.1339 87.845H85.5139L86.2639 83.945ZM93.9302 86.18C93.3502 86.18 92.9002 86.09 92.5802 85.91C92.2602 85.73 92.0302 85.435 91.8902 85.025C91.7502 84.615 91.6802 84.05 91.6802 83.33V80.21H90.7952V78.5H91.6802V76.415H93.6902V78.5H95.5352V80.21H93.6902V83.285C93.6902 83.675 93.7252 83.96 93.7952 84.14C93.8652 84.31 94.0402 84.39 94.3202 84.38L95.4602 84.35L95.5502 85.955C95.1502 86.045 94.8352 86.105 94.6052 86.135C94.3852 86.165 94.1602 86.18 93.9302 86.18ZM95.8441 75.5H97.8541V78.86C98.2341 78.67 98.5691 78.535 98.8591 78.455C99.1591 78.365 99.4791 78.32 99.8191 78.32C100.739 78.32 101.389 78.615 101.769 79.205C102.159 79.785 102.354 80.695 102.354 81.935V86H100.344V81.98C100.344 81.3 100.264 80.82 100.104 80.54C99.9441 80.26 99.6341 80.12 99.1741 80.12C98.8141 80.12 98.4391 80.18 98.0491 80.3L97.8541 80.36V86H95.8441V75.5ZM106.075 86.18C104.905 86.18 104.06 85.885 103.54 85.295C103.02 84.705 102.76 83.75 102.76 82.43C102.76 81.05 103.03 80.02 103.57 79.34C104.12 78.66 104.97 78.32 106.12 78.32C107.18 78.32 107.98 78.605 108.52 79.175C109.07 79.735 109.345 80.58 109.345 81.71L109.195 83.105H104.785C104.805 83.455 104.865 83.725 104.965 83.915C105.075 84.095 105.245 84.225 105.475 84.305C105.715 84.375 106.045 84.41 106.465 84.41C106.795 84.41 107.19 84.4 107.65 84.38C108.11 84.36 108.445 84.34 108.655 84.32L109.075 84.275L109.105 85.76C107.975 86.04 106.965 86.18 106.075 86.18ZM107.365 81.575C107.365 80.975 107.27 80.56 107.08 80.33C106.9 80.09 106.575 79.97 106.105 79.97C105.625 79.97 105.285 80.095 105.085 80.345C104.885 80.585 104.78 80.995 104.77 81.575H107.365ZM115.017 86.18C113.847 86.18 113.002 85.885 112.482 85.295C111.962 84.705 111.702 83.75 111.702 82.43C111.702 81.05 111.972 80.02 112.512 79.34C113.062 78.66 113.912 78.32 115.062 78.32C116.122 78.32 116.922 78.605 117.462 79.175C118.012 79.735 118.287 80.58 118.287 81.71L118.137 83.105H113.727C113.747 83.455 113.807 83.725 113.907 83.915C114.017 84.095 114.187 84.225 114.417 84.305C114.657 84.375 114.987 84.41 115.407 84.41C115.737 84.41 116.132 84.4 116.592 84.38C117.052 84.36 117.387 84.34 117.597 84.32L118.017 84.275L118.047 85.76C116.917 86.04 115.907 86.18 115.017 86.18ZM116.307 81.575C116.307 80.975 116.212 80.56 116.022 80.33C115.842 80.09 115.517 79.97 115.047 79.97C114.567 79.97 114.227 80.095 114.027 80.345C113.827 80.585 113.722 80.995 113.712 81.575H116.307ZM120.554 86.18C119.004 86.18 118.229 85.36 118.229 83.72C118.229 82.94 118.434 82.38 118.844 82.04C119.264 81.69 119.934 81.485 120.854 81.425L122.459 81.305V80.84C122.459 80.54 122.389 80.33 122.249 80.21C122.119 80.09 121.894 80.03 121.574 80.03C121.244 80.03 120.789 80.045 120.209 80.075C119.629 80.095 119.144 80.12 118.754 80.15L118.694 78.755C119.774 78.465 120.794 78.32 121.754 78.32C122.714 78.32 123.404 78.52 123.824 78.92C124.254 79.32 124.469 79.96 124.469 80.84V83.96C124.489 84.21 124.529 84.38 124.589 84.47C124.659 84.56 124.784 84.625 124.964 84.665L124.904 86.18C124.384 86.18 123.969 86.145 123.659 86.075C123.359 86.005 123.059 85.865 122.759 85.655C122.029 86.005 121.294 86.18 120.554 86.18ZM120.989 84.545C121.369 84.545 121.784 84.485 122.234 84.365L122.459 84.305V82.7L121.094 82.82C120.534 82.87 120.254 83.17 120.254 83.72C120.254 84.27 120.499 84.545 120.989 84.545ZM125.385 78.5H127.38V79.295C128.24 78.795 129.04 78.47 129.78 78.32V80.345C129.03 80.495 128.335 80.67 127.695 80.87L127.395 80.975V86H125.385V78.5ZM130.056 75.5H132.066V86H130.056V75.5ZM133.009 78.5H135.019V86H133.009V78.5ZM133.009 75.515H135.019V77.54H133.009V75.515ZM138.743 86.18C137.573 86.18 136.728 85.885 136.208 85.295C135.688 84.705 135.428 83.75 135.428 82.43C135.428 81.05 135.698 80.02 136.238 79.34C136.788 78.66 137.638 78.32 138.788 78.32C139.848 78.32 140.648 78.605 141.188 79.175C141.738 79.735 142.013 80.58 142.013 81.71L141.863 83.105H137.453C137.473 83.455 137.533 83.725 137.633 83.915C137.743 84.095 137.913 84.225 138.143 84.305C138.383 84.375 138.713 84.41 139.133 84.41C139.463 84.41 139.858 84.4 140.318 84.38C140.778 84.36 141.113 84.34 141.323 84.32L141.743 84.275L141.773 85.76C140.643 86.04 139.633 86.18 138.743 86.18ZM140.033 81.575C140.033 80.975 139.938 80.56 139.748 80.33C139.568 80.09 139.243 79.97 138.773 79.97C138.293 79.97 137.953 80.095 137.753 80.345C137.553 80.585 137.448 80.995 137.438 81.575H140.033ZM142.45 78.5H144.445V79.295C145.305 78.795 146.105 78.47 146.845 78.32V80.345C146.095 80.495 145.4 80.67 144.76 80.87L144.46 80.975V86H142.45V78.5ZM151.891 86H150.481L148.636 78.5H150.616L151.981 84.29H152.326L153.691 78.5H155.671L153.031 89.15H151.066L151.891 86ZM158.769 86.18C157.639 86.18 156.779 85.84 156.189 85.16C155.609 84.47 155.319 83.495 155.319 82.235C155.319 80.985 155.609 80.02 156.189 79.34C156.779 78.66 157.639 78.32 158.769 78.32C159.899 78.32 160.754 78.66 161.334 79.34C161.924 80.02 162.219 80.985 162.219 82.235C162.219 83.495 161.924 84.47 161.334 85.16C160.754 85.84 159.899 86.18 158.769 86.18ZM158.769 84.47C159.249 84.47 159.604 84.295 159.834 83.945C160.064 83.595 160.179 83.025 160.179 82.235C160.179 81.445 160.064 80.88 159.834 80.54C159.604 80.2 159.249 80.03 158.769 80.03C158.289 80.03 157.934 80.2 157.704 80.54C157.474 80.88 157.359 81.445 157.359 82.235C157.359 83.025 157.474 83.595 157.704 83.945C157.934 84.295 158.289 84.47 158.769 84.47ZM165.123 86.18C164.483 86.18 163.978 86.05 163.608 85.79C163.248 85.53 162.993 85.13 162.843 84.59C162.693 84.05 162.618 83.33 162.618 82.43V78.5H164.628V82.46C164.628 83 164.653 83.405 164.703 83.675C164.753 83.935 164.853 84.12 165.003 84.23C165.163 84.33 165.403 84.38 165.723 84.38C165.953 84.38 166.158 84.36 166.338 84.32C166.528 84.28 166.788 84.21 167.118 84.11V78.5H169.128V86H167.133V85.58C166.713 85.81 166.353 85.965 166.053 86.045C165.763 86.135 165.453 86.18 165.123 86.18ZM171.71 78.5H173.69L174.605 84.29H174.965L176.105 78.65H178.175L179.315 84.29H179.675L180.59 78.5H182.57L181.145 86H177.995L177.14 81.41L176.285 86H173.135L171.71 78.5ZM182.867 78.5H184.877V86H182.867V78.5ZM182.867 75.515H184.877V77.54H182.867V75.515ZM185.824 75.5H187.834V86H185.824V75.5ZM188.867 75.5H190.877V86H188.867V75.5ZM196.741 86.18C196.081 86.18 195.276 86.09 194.326 85.91L193.846 85.82L193.906 84.14C195.116 84.3 195.996 84.38 196.546 84.38C196.916 84.38 197.206 84.34 197.416 84.26C197.636 84.18 197.746 84.03 197.746 83.81C197.746 83.61 197.641 83.465 197.431 83.375C197.231 83.285 196.891 83.2 196.411 83.12C196.231 83.1 196.106 83.08 196.036 83.06C195.536 82.97 195.126 82.86 194.806 82.73C194.486 82.59 194.226 82.375 194.026 82.085C193.826 81.785 193.726 81.37 193.726 80.84C193.726 79.99 193.986 79.36 194.506 78.95C195.026 78.54 195.741 78.335 196.651 78.335C197.191 78.335 197.986 78.43 199.036 78.62L199.531 78.71L199.501 80.375C198.291 80.215 197.396 80.135 196.816 80.135C196.476 80.135 196.206 80.17 196.006 80.24C195.816 80.31 195.721 80.445 195.721 80.645C195.721 80.855 195.821 81.005 196.021 81.095C196.221 81.175 196.546 81.255 196.996 81.335L197.521 81.425C198.321 81.585 198.891 81.825 199.231 82.145C199.571 82.455 199.741 82.96 199.741 83.66C199.741 84.52 199.496 85.155 199.006 85.565C198.516 85.975 197.761 86.18 196.741 86.18ZM203.131 86.18C201.961 86.18 201.116 85.885 200.596 85.295C200.076 84.705 199.816 83.75 199.816 82.43C199.816 81.05 200.086 80.02 200.626 79.34C201.176 78.66 202.026 78.32 203.176 78.32C204.236 78.32 205.036 78.605 205.576 79.175C206.126 79.735 206.401 80.58 206.401 81.71L206.251 83.105H201.841C201.861 83.455 201.921 83.725 202.021 83.915C202.131 84.095 202.301 84.225 202.531 84.305C202.771 84.375 203.101 84.41 203.521 84.41C203.851 84.41 204.246 84.4 204.706 84.38C205.166 84.36 205.501 84.34 205.711 84.32L206.131 84.275L206.161 85.76C205.031 86.04 204.021 86.18 203.131 86.18ZM204.421 81.575C204.421 80.975 204.326 80.56 204.136 80.33C203.956 80.09 203.631 79.97 203.161 79.97C202.681 79.97 202.341 80.095 202.141 80.345C201.941 80.585 201.836 80.995 201.826 81.575H204.421ZM209.777 86.18C208.607 86.18 207.762 85.885 207.242 85.295C206.722 84.705 206.462 83.75 206.462 82.43C206.462 81.05 206.732 80.02 207.272 79.34C207.822 78.66 208.672 78.32 209.822 78.32C210.882 78.32 211.682 78.605 212.222 79.175C212.772 79.735 213.047 80.58 213.047 81.71L212.897 83.105H208.487C208.507 83.455 208.567 83.725 208.667 83.915C208.777 84.095 208.947 84.225 209.177 84.305C209.417 84.375 209.747 84.41 210.167 84.41C210.497 84.41 210.892 84.4 211.352 84.38C211.812 84.36 212.147 84.34 212.357 84.32L212.777 84.275L212.807 85.76C211.677 86.04 210.667 86.18 209.777 86.18ZM211.067 81.575C211.067 80.975 210.972 80.56 210.782 80.33C210.602 80.09 210.277 79.97 209.807 79.97C209.327 79.97 208.987 80.095 208.787 80.345C208.587 80.585 208.482 80.995 208.472 81.575H211.067ZM25.93 95.5H27.925V96.295C28.785 95.795 29.585 95.47 30.325 95.32V97.345C29.575 97.495 28.88 97.67 28.24 97.87L27.94 97.975V103H25.93V95.5ZM33.4511 103.18C32.2811 103.18 31.4361 102.885 30.9161 102.295C30.3961 101.705 30.1361 100.75 30.1361 99.43C30.1361 98.05 30.4061 97.02 30.9461 96.34C31.4961 95.66 32.3461 95.32 33.4961 95.32C34.5561 95.32 35.3561 95.605 35.8961 96.175C36.4461 96.735 36.7211 97.58 36.7211 98.71L36.5711 100.105H32.1611C32.1811 100.455 32.2411 100.725 32.3411 100.915C32.4511 101.095 32.6211 101.225 32.8511 101.305C33.0911 101.375 33.4211 101.41 33.8411 101.41C34.1711 101.41 34.5661 101.4 35.0261 101.38C35.4861 101.36 35.8211 101.34 36.0311 101.32L36.4511 101.275L36.4811 102.76C35.3511 103.04 34.3411 103.18 33.4511 103.18ZM34.7411 98.575C34.7411 97.975 34.6461 97.56 34.4561 97.33C34.2761 97.09 33.9511 96.97 33.4811 96.97C33.0011 96.97 32.6611 97.095 32.4611 97.345C32.2611 97.585 32.1561 97.995 32.1461 98.575H34.7411ZM39.7825 103.18C39.1225 103.18 38.3175 103.09 37.3675 102.91L36.8875 102.82L36.9475 101.14C38.1575 101.3 39.0375 101.38 39.5875 101.38C39.9575 101.38 40.2475 101.34 40.4575 101.26C40.6775 101.18 40.7875 101.03 40.7875 100.81C40.7875 100.61 40.6825 100.465 40.4725 100.375C40.2725 100.285 39.9325 100.2 39.4525 100.12C39.2725 100.1 39.1475 100.08 39.0775 100.06C38.5775 99.97 38.1675 99.86 37.8475 99.73C37.5275 99.59 37.2675 99.375 37.0675 99.085C36.8675 98.785 36.7675 98.37 36.7675 97.84C36.7675 96.99 37.0275 96.36 37.5475 95.95C38.0675 95.54 38.7825 95.335 39.6925 95.335C40.2325 95.335 41.0275 95.43 42.0775 95.62L42.5725 95.71L42.5425 97.375C41.3325 97.215 40.4375 97.135 39.8575 97.135C39.5175 97.135 39.2475 97.17 39.0475 97.24C38.8575 97.31 38.7625 97.445 38.7625 97.645C38.7625 97.855 38.8625 98.005 39.0625 98.095C39.2625 98.175 39.5875 98.255 40.0375 98.335L40.5625 98.425C41.3625 98.585 41.9325 98.825 42.2725 99.145C42.6125 99.455 42.7825 99.96 42.7825 100.66C42.7825 101.52 42.5375 102.155 42.0475 102.565C41.5575 102.975 40.8025 103.18 39.7825 103.18ZM45.6627 103.18C45.0227 103.18 44.5177 103.05 44.1477 102.79C43.7877 102.53 43.5327 102.13 43.3827 101.59C43.2327 101.05 43.1577 100.33 43.1577 99.43V95.5H45.1677V99.46C45.1677 100 45.1927 100.405 45.2427 100.675C45.2927 100.935 45.3927 101.12 45.5427 101.23C45.7027 101.33 45.9427 101.38 46.2627 101.38C46.4927 101.38 46.6977 101.36 46.8777 101.32C47.0677 101.28 47.3277 101.21 47.6577 101.11V95.5H49.6677V103H47.6727V102.58C47.2527 102.81 46.8927 102.965 46.5927 103.045C46.3027 103.135 45.9927 103.18 45.6627 103.18ZM50.6138 92.5H52.6238V103H50.6138V92.5ZM55.9556 103.18C55.3756 103.18 54.9256 103.09 54.6056 102.91C54.2856 102.73 54.0556 102.435 53.9156 102.025C53.7756 101.615 53.7056 101.05 53.7056 100.33V97.21H52.8206V95.5H53.7056V93.415H55.7156V95.5H57.5606V97.21H55.7156V100.285C55.7156 100.675 55.7506 100.96 55.8206 101.14C55.8906 101.31 56.0656 101.39 56.3456 101.38L57.4856 101.35L57.5756 102.955C57.1756 103.045 56.8606 103.105 56.6306 103.135C56.4106 103.165 56.1856 103.18 55.9556 103.18ZM60.4945 103.18C59.8345 103.18 59.0295 103.09 58.0795 102.91L57.5995 102.82L57.6595 101.14C58.8695 101.3 59.7495 101.38 60.2995 101.38C60.6695 101.38 60.9595 101.34 61.1695 101.26C61.3895 101.18 61.4995 101.03 61.4995 100.81C61.4995 100.61 61.3945 100.465 61.1845 100.375C60.9845 100.285 60.6445 100.2 60.1645 100.12C59.9845 100.1 59.8595 100.08 59.7895 100.06C59.2895 99.97 58.8795 99.86 58.5595 99.73C58.2395 99.59 57.9795 99.375 57.7795 99.085C57.5795 98.785 57.4795 98.37 57.4795 97.84C57.4795 96.99 57.7395 96.36 58.2595 95.95C58.7795 95.54 59.4945 95.335 60.4045 95.335C60.9445 95.335 61.7395 95.43 62.7895 95.62L63.2845 95.71L63.2545 97.375C62.0445 97.215 61.1495 97.135 60.5695 97.135C60.2295 97.135 59.9595 97.17 59.7595 97.24C59.5695 97.31 59.4745 97.445 59.4745 97.645C59.4745 97.855 59.5745 98.005 59.7745 98.095C59.9745 98.175 60.2995 98.255 60.7495 98.335L61.2745 98.425C62.0745 98.585 62.6445 98.825 62.9845 99.145C63.3245 99.455 63.4945 99.96 63.4945 100.66C63.4945 101.52 63.2495 102.155 62.7595 102.565C62.2695 102.975 61.5145 103.18 60.4945 103.18ZM63.8546 100.51H66.0146V103H63.8546V100.51ZM66.2254 96.505H64.6804L65.4004 92.8H67.5004L66.2254 96.505ZM68.9854 96.505H67.4404L68.1604 92.8H70.2604L68.9854 96.505Z" fill="white"/>
<g filter="url(#filter0_b_213_2582)">
<rect x="25" y="115" width="106.812" height="23.802" rx="7.02001" fill="#4E8CDB"/>
<rect x="25.3052" y="115.305" width="106.202" height="23.1916" rx="6.71479" stroke="white" stroke-width="0.610436"/>
<path d="M40.4706 125.474C40.4287 125.102 40.256 124.814 39.9524 124.61C39.6489 124.404 39.2669 124.3 38.8063 124.3C38.4766 124.3 38.1914 124.353 37.9506 124.457C37.7099 124.559 37.5228 124.701 37.3893 124.881C37.2585 125.059 37.1931 125.262 37.1931 125.49C37.1931 125.681 37.2375 125.845 37.3265 125.984C37.4181 126.123 37.5372 126.239 37.6837 126.333C37.8329 126.425 37.9925 126.502 38.1626 126.565C38.3327 126.625 38.4962 126.675 38.6532 126.714L39.4382 126.918C39.6947 126.981 39.9577 127.066 40.2272 127.173C40.4967 127.281 40.7466 127.422 40.9769 127.597C41.2072 127.773 41.393 127.99 41.5343 128.249C41.6782 128.508 41.7502 128.818 41.7502 129.179C41.7502 129.635 41.6324 130.039 41.3969 130.392C41.164 130.745 40.8251 131.024 40.3803 131.228C39.9381 131.432 39.4029 131.534 38.7749 131.534C38.173 131.534 37.6523 131.439 37.2127 131.248C36.7731 131.057 36.429 130.786 36.1804 130.435C35.9318 130.082 35.7944 129.663 35.7682 129.179H36.985C37.0086 129.47 37.1028 129.712 37.2676 129.905C37.4351 130.096 37.6484 130.239 37.9074 130.333C38.1691 130.425 38.4557 130.471 38.767 130.471C39.1098 130.471 39.4147 130.417 39.6816 130.31C39.9511 130.2 40.1631 130.048 40.3175 129.854C40.4719 129.658 40.5491 129.429 40.5491 129.167C40.5491 128.929 40.481 128.734 40.345 128.583C40.2115 128.431 40.0296 128.305 39.7994 128.206C39.5717 128.106 39.314 128.019 39.0261 127.943L38.0762 127.684C37.4325 127.508 36.9222 127.251 36.5454 126.91C36.1712 126.57 35.9841 126.12 35.9841 125.56C35.9841 125.097 36.1097 124.693 36.3609 124.347C36.6121 124.002 36.9523 123.734 37.3815 123.543C37.8106 123.349 38.2947 123.252 38.8338 123.252C39.3781 123.252 39.8582 123.348 40.2743 123.539C40.693 123.73 41.0227 123.993 41.2634 124.328C41.5042 124.66 41.6298 125.042 41.6403 125.474H40.4706ZM42.8031 124.406V123.362H49.0245V124.406H46.5163V131.401H45.3073V124.406H42.8031ZM50.1284 131.401H48.841L51.7338 123.362H53.1351L56.0279 131.401H54.7405L52.4678 124.822H52.405L50.1284 131.401ZM50.3443 128.253H54.5207V129.273H50.3443V128.253ZM57.1888 131.401V123.362H60.0542C60.677 123.362 61.1938 123.469 61.6046 123.684C62.0181 123.899 62.3268 124.196 62.5309 124.575C62.7351 124.952 62.8371 125.388 62.8371 125.882C62.8371 126.374 62.7337 126.807 62.527 127.181C62.3229 127.553 62.0141 127.842 61.6007 128.049C61.1898 128.256 60.673 128.359 60.0502 128.359H57.8796V127.315H59.9403C60.3329 127.315 60.6521 127.259 60.8981 127.146C61.1467 127.033 61.3285 126.87 61.4437 126.655C61.5588 126.441 61.6164 126.183 61.6164 125.882C61.6164 125.579 61.5575 125.316 61.4397 125.093C61.3246 124.871 61.1427 124.701 60.8942 124.583C60.6482 124.463 60.325 124.402 59.9246 124.402H58.4017V131.401H57.1888ZM61.1571 127.774L63.1433 131.401H61.7616L59.8147 127.774H61.1571ZM63.9165 124.406V123.362H70.1379V124.406H67.6297V131.401H66.4208V124.406H63.9165ZM80.9262 123.362V131.401H79.8115L75.7254 125.505H75.6508V131.401H74.4379V123.362H75.5605L79.6505 129.266H79.7251V123.362H80.9262ZM89.6783 127.382C89.6783 128.24 89.5213 128.978 89.2073 129.595C88.8933 130.21 88.4628 130.684 87.9159 131.016C87.3716 131.346 86.7528 131.511 86.0593 131.511C85.3633 131.511 84.7418 131.346 84.1949 131.016C83.6506 130.684 83.2214 130.209 82.9074 129.591C82.5934 128.974 82.4364 128.237 82.4364 127.382C82.4364 126.523 82.5934 125.787 82.9074 125.172C83.2214 124.554 83.6506 124.08 84.1949 123.751C84.7418 123.418 85.3633 123.252 86.0593 123.252C86.7528 123.252 87.3716 123.418 87.9159 123.751C88.4628 124.08 88.8933 124.554 89.2073 125.172C89.5213 125.787 89.6783 126.523 89.6783 127.382ZM88.4772 127.382C88.4772 126.727 88.3712 126.176 88.1593 125.729C87.9499 125.279 87.6621 124.939 87.2958 124.708C86.932 124.476 86.5199 124.359 86.0593 124.359C85.5962 124.359 85.1827 124.476 84.819 124.708C84.4552 124.939 84.1674 125.279 83.9554 125.729C83.7461 126.176 83.6414 126.727 83.6414 127.382C83.6414 128.036 83.7461 128.588 83.9554 129.038C84.1674 129.485 84.4552 129.826 84.819 130.058C85.1827 130.289 85.5962 130.404 86.0593 130.404C86.5199 130.404 86.932 130.289 87.2958 130.058C87.6621 129.826 87.9499 129.485 88.1593 129.038C88.3712 128.588 88.4772 128.036 88.4772 127.382ZM92.6673 131.401L90.4378 123.362H91.7135L93.2797 129.587H93.3542L94.9832 123.362H96.2471L97.876 129.591H97.9506L99.5128 123.362H100.792L98.559 131.401H97.3383L95.6465 125.38H95.5837L93.892 131.401H92.6673Z" fill="white"/>
<path d="M112.54 131.436L117.074 126.901L112.54 122.366" stroke="white" stroke-width="1.27537" stroke-linecap="round" stroke-linejoin="round"/>
</g>
<defs>
<filter id="filter0_b_213_2582" x="7.995" y="97.995" width="140.822" height="57.812" filterUnits="userSpaceOnUse" color-interpolation-filters="sRGB">
<feFlood flood-opacity="0" result="BackgroundImageFix"/>
<feGaussianBlur in="BackgroundImageFix" stdDeviation="8.5025"/>
<feComposite in2="SourceAlpha" operator="in" result="effect1_backgroundBlur_213_2582"/>
<feBlend mode="normal" in="SourceGraphic" in2="effect1_backgroundBlur_213_2582" result="shape"/>
</filter>
<linearGradient id="paint0_linear_213_2582" x1="43.7283" y1="15.648" x2="317.551" y2="213.087" gradientUnits="userSpaceOnUse">
<stop stop-color="#4DD4B2"/>
<stop offset="0.40715" stop-color="#4EAACA"/>
<stop offset="0.72965" stop-color="#4E9ED1" stop-opacity="0.756757"/>
<stop offset="0.815635" stop-color="#4EACC9" stop-opacity="0.559853"/>
<stop offset="0.9147" stop-color="#4DB9C1" stop-opacity="0.375936"/>
<stop offset="1" stop-color="#4DD4B2" stop-opacity="0"/>
</linearGradient>
</defs>
</svg>
