<svg width="52" height="52" viewBox="0 0 52 52" fill="none" xmlns="http://www.w3.org/2000/svg">
<rect x="1" y="1" width="49.9974" height="50" rx="24.9987" stroke="#4E8CDB" stroke-width="2"/>
<circle cx="26" cy="26" r="15" fill="#F9F3F3"/>
<path d="M26.4968 33.0795C26.2236 33.1759 25.7736 33.1759 25.5004 33.0795C23.17 32.284 17.9629 28.9652 17.9629 23.3402C17.9629 20.8572 19.9638 18.8483 22.4307 18.8483C23.8932 18.8483 25.187 19.5554 25.9986 20.6483C26.4115 20.0905 26.9492 19.6372 27.5688 19.3246C28.1883 19.012 28.8725 18.8489 29.5665 18.8483C32.0334 18.8483 34.0343 20.8572 34.0343 23.3402C34.0343 28.9652 28.8272 32.284 26.4968 33.0795Z" fill="#CD4242"/>
</svg>
