<svg width="52" height="52" viewBox="0 0 52 52" fill="none" xmlns="http://www.w3.org/2000/svg">
<rect x="1" y="1" width="50" height="50" rx="25" stroke="#4E8CDB" stroke-width="2"/>
<path d="M18.115 17.4378L18.1149 17.4378C16.5886 17.4395 15.3517 18.6764 15.35 20.2027V20.2029L15.35 33.8322L15.35 33.8324C15.3517 35.3586 16.5886 36.5955 18.1149 36.5972H18.115H32.7902H32.7903C34.3166 36.5955 35.5535 35.3586 35.5552 33.8324V33.8322V29.1882C35.5552 28.8165 35.2539 28.5152 34.8822 28.5152C34.5105 28.5152 34.2092 28.8165 34.2092 29.1882V33.8318C34.2083 34.6153 33.5735 35.2503 32.79 35.251H18.1152C17.3317 35.2503 16.697 34.6154 16.696 33.8319C16.696 33.8319 16.696 33.8318 16.696 33.8318V20.2031C16.696 20.203 16.696 20.203 16.696 20.203C16.697 19.4197 17.3317 18.7848 18.1151 18.7838C18.1152 18.7838 18.1152 18.7838 18.1152 18.7838L22.7589 18.7838C23.1306 18.7838 23.4319 18.4825 23.4319 18.1108C23.4319 17.7393 23.1306 17.4378 22.7589 17.4378L18.115 17.4378Z" fill="#07003D" stroke="black" stroke-width="0.3"/>
<path d="M35.3039 16.136L35.3039 16.136L35.9176 16.7498L35.9177 16.7499C36.8938 17.7282 36.8938 19.3119 35.9177 20.2903L35.9176 20.2904L26.587 29.6214C26.5048 29.7036 26.4027 29.7631 26.2907 29.7941M35.3039 16.136L26.2507 29.6495M35.3039 16.136C34.3262 15.1583 32.741 15.1583 31.7633 16.136L22.4324 25.4669C22.3503 25.5491 22.2908 25.6511 22.2597 25.7631L22.4043 25.8032M35.3039 16.136L22.2597 25.7632M26.2907 29.7941L26.2507 29.6495M26.2907 29.7941L26.2907 29.7941L26.2507 29.6495M26.2907 29.7941L21.8609 31.0213M26.2507 29.6495L21.8208 30.8768M21.8609 31.0213L21.8208 30.8768M21.8609 31.0213C21.7461 31.0532 21.6249 31.054 21.5097 31.0236C21.3945 30.9933 21.2894 30.9329 21.2052 30.8486C21.121 30.7644 21.0606 30.6593 21.0303 30.5441L21.1754 30.5059M21.8609 31.0213L21.8608 31.0213L21.8208 30.8768M21.8208 30.8768L21.1754 30.5059M21.1754 30.5059C21.1519 30.4164 21.1525 30.3223 21.1773 30.2331M21.1754 30.5059L26.4809 29.5153L35.8115 20.1843C36.7292 19.2645 36.7292 17.7756 35.8115 16.8558L35.1978 16.2421C34.2787 15.323 32.7885 15.323 31.8694 16.2421L22.5385 25.5729C22.4746 25.6368 22.4284 25.7161 22.4043 25.8032M21.1754 30.5059L21.0303 30.5441C21 30.4289 21.0009 30.3078 21.0327 30.193M21.1754 30.5059L21.0327 30.193M21.1773 30.2331L22.4043 25.8032M21.1773 30.2331L21.0327 30.193M21.1773 30.2331L21.0327 30.1929M22.4043 25.8032L22.2597 25.7632M22.2597 25.7632L21.0327 30.1929M22.2597 25.7632L21.0327 30.193M21.0327 30.1929C21.0327 30.193 21.0327 30.193 21.0327 30.193M21.0327 30.1929L21.0327 30.193M34.5173 19.7872L32.2664 17.5363L32.7152 17.0877L32.7152 17.0877C33.1672 16.6357 33.9 16.6357 34.352 17.0877L34.352 17.0877L34.9658 17.7012C34.9658 17.7012 34.9658 17.7013 34.9658 17.7013C35.4171 18.1539 35.4171 18.8863 34.9659 19.3387C34.9659 19.3387 34.9658 19.3388 34.9658 19.3388L34.5173 19.7872ZM23.8902 25.9129L31.3147 18.4883L33.5654 20.739L26.1408 28.1636L23.8902 25.9129ZM22.6474 29.4067L23.262 27.1881L24.8657 28.792L22.6474 29.4067Z" fill="#07003D" stroke="black" stroke-width="0.3"/>
</svg>
