<svg width="50" height="50" viewBox="0 0 50 50" fill="none" xmlns="http://www.w3.org/2000/svg">
<rect opacity="0.1" x="0.368408" y="0.452675" width="49.2632" height="49.2632" rx="10.9474" fill="white"/>
<path d="M24.4432 20.0158C21.3097 20.0227 18.8288 22.5559 18.8357 25.6334C18.8426 28.7413 21.3612 31.2582 24.4623 31.2496C27.567 31.2479 30.0732 28.7335 30.0689 25.6372C30.0646 22.486 27.5273 20.0094 24.4432 20.0158ZM24.4488 29.2771C22.4108 29.2732 20.829 27.6782 20.79 25.7198C20.7484 23.651 22.3949 21.9896 24.4466 21.9913C26.4674 21.9866 28.0934 23.6078 28.0955 25.6291C28.0972 27.6486 26.4685 29.2814 24.4488 29.2771Z" fill="white"/>
<path d="M30.3111 18.4892C29.577 18.4817 28.9884 19.057 28.9856 19.7849C28.9828 20.5046 29.5605 21.0935 30.2766 21.1006C31.0058 21.1079 31.5935 20.5298 31.5974 19.8014C31.6013 19.0744 31.0352 18.4967 30.3111 18.4892Z" fill="white"/>
<path d="M35.3839 23.0705C35.3869 22.3519 35.3551 21.6317 35.3077 20.9143C35.2536 20.0954 35.118 19.2974 34.8173 18.5165C34.0502 16.5236 32.5781 15.4034 30.5474 14.9566C29.4034 14.7047 28.2316 14.7154 27.0676 14.7051C24.909 14.6865 22.7503 14.6594 20.5923 14.7313C19.549 14.7665 18.5067 14.8174 17.5106 15.179C15.4417 15.9298 14.2239 17.4131 13.7632 19.5433C13.7293 19.7006 13.7003 19.8585 13.6763 20.0171L13.6759 20.0163C13.5604 20.5094 13.5418 21.0044 13.522 21.7759C13.5121 22.1613 13.5079 22.5422 13.5061 22.8403C13.5044 23.189 13.5061 23.4255 13.5061 23.4255V29.4396C13.5922 29.8059 13.5626 30.181 13.5922 30.5516C13.7439 32.4329 14.3787 34.0741 15.9342 35.2558C16.7939 35.9086 17.7816 36.2445 18.8366 36.4071C19.3651 36.4884 19.8984 36.5116 20.4312 36.5361C20.4893 36.5387 20.5619 36.5052 20.6037 36.579H28.258C28.3135 36.4934 28.4007 36.5378 28.4708 36.5352C29.5918 36.4953 30.7011 36.3968 31.7502 35.9518C32.9944 35.4236 33.9395 34.5679 34.5656 33.3715C34.9858 32.5683 35.2107 31.7048 35.277 30.8033C35.3027 30.4529 35.2993 30.0988 35.3221 29.7497C35.4682 27.5237 35.3748 25.2969 35.3839 23.0705ZM26.4223 36.5226C26.4099 36.4908 26.3932 36.4631 26.3734 36.4374C26.3932 36.4631 26.4103 36.4906 26.4232 36.5221C26.4947 36.5264 26.568 36.5183 26.6408 36.5123C26.568 36.5183 26.4947 36.5269 26.4223 36.5226ZM33.3783 29.6625C33.3586 30.3561 33.3146 31.0507 33.1081 31.7215C32.6742 33.1337 31.7272 33.9994 30.2991 34.3546C29.6519 34.5153 28.9914 34.5408 28.3305 34.5679C27.1127 34.6172 25.8942 34.6086 24.676 34.6164C23.6797 34.6099 22.6831 34.6168 21.6872 34.5936C20.7278 34.5709 19.7653 34.5846 18.8153 34.4031C17.4763 34.1468 16.4969 33.4303 15.9499 32.1672C15.6958 31.5803 15.5982 30.955 15.5593 30.3207C15.49 29.1767 15.4793 28.0316 15.4776 26.8859V23.8838C15.4823 23.1885 15.4905 22.4939 15.5141 21.7991C15.5445 20.9004 15.6001 20.004 15.9162 19.1538C16.0396 18.8218 16.2241 18.5075 16.4572 18.2304C16.7703 17.8573 17.1233 17.5272 17.555 17.3002C18.0185 17.0564 18.5153 16.9019 19.0357 16.8289C20.1606 16.6712 21.2934 16.6725 22.4247 16.6663C24.4194 16.6555 26.415 16.6315 28.4092 16.7006C29.277 16.7307 30.1423 16.7832 30.9599 17.1191C32.0496 17.5663 32.7438 18.3671 33.0942 19.4847C33.3049 20.156 33.3611 20.848 33.3811 21.542C33.4594 24.2484 33.456 26.9559 33.3783 29.6625Z" fill="white"/>
</svg>
