<svg width="502" height="57" viewBox="0 0 502 57" fill="none" xmlns="http://www.w3.org/2000/svg">
<rect x="0.5" y="0.5" width="501" height="56" rx="22.5" stroke="#4E8CDB"/>
<path d="M139.949 19.1881H141.947V15.7068C141.603 15.6593 140.417 15.5526 139.036 15.5526C136.154 15.5526 134.18 17.3653 134.18 20.697V23.7631H131V27.6549H134.18V37.4473H138.079V27.6558H141.13L141.614 23.7641H138.078V21.0829C138.079 19.958 138.382 19.1881 139.949 19.1881Z" fill="#005DFF"/>
<path d="M192.221 31.4668V33H185.111V31.4668H192.221ZM185.482 18.7812V33H183.598V18.7812H185.482ZM193.627 27.834V27.6094C193.627 26.8477 193.738 26.1413 193.959 25.4902C194.18 24.8327 194.499 24.263 194.916 23.7812C195.333 23.293 195.837 22.9154 196.43 22.6484C197.022 22.375 197.686 22.2383 198.422 22.2383C199.164 22.2383 199.831 22.375 200.424 22.6484C201.023 22.9154 201.531 23.293 201.947 23.7812C202.37 24.263 202.693 24.8327 202.914 25.4902C203.135 26.1413 203.246 26.8477 203.246 27.6094V27.834C203.246 28.5957 203.135 29.3021 202.914 29.9531C202.693 30.6042 202.37 31.1738 201.947 31.6621C201.531 32.1439 201.026 32.5215 200.434 32.7949C199.848 33.0618 199.184 33.1953 198.441 33.1953C197.699 33.1953 197.032 33.0618 196.439 32.7949C195.847 32.5215 195.339 32.1439 194.916 31.6621C194.499 31.1738 194.18 30.6042 193.959 29.9531C193.738 29.3021 193.627 28.5957 193.627 27.834ZM195.434 27.6094V27.834C195.434 28.3613 195.495 28.8594 195.619 29.3281C195.743 29.7904 195.928 30.2005 196.176 30.5586C196.43 30.9167 196.745 31.1999 197.123 31.4082C197.501 31.61 197.94 31.7109 198.441 31.7109C198.936 31.7109 199.369 31.61 199.74 31.4082C200.118 31.1999 200.43 30.9167 200.678 30.5586C200.925 30.2005 201.111 29.7904 201.234 29.3281C201.365 28.8594 201.43 28.3613 201.43 27.834V27.6094C201.43 27.0885 201.365 26.597 201.234 26.1348C201.111 25.666 200.922 25.2526 200.668 24.8945C200.421 24.5299 200.108 24.2435 199.73 24.0352C199.359 23.8268 198.923 23.7227 198.422 23.7227C197.927 23.7227 197.491 23.8268 197.113 24.0352C196.742 24.2435 196.43 24.5299 196.176 24.8945C195.928 25.2526 195.743 25.666 195.619 26.1348C195.495 26.597 195.434 27.0885 195.434 27.6094ZM212.357 22.4336H213.998V32.7754C213.998 33.7064 213.809 34.5007 213.432 35.1582C213.054 35.8158 212.527 36.3138 211.85 36.6523C211.179 36.9974 210.404 37.1699 209.525 37.1699C209.161 37.1699 208.731 37.1113 208.236 36.9941C207.748 36.8835 207.266 36.6914 206.791 36.418C206.322 36.151 205.928 35.7897 205.609 35.334L206.557 34.2598C206.999 34.7936 207.462 35.1647 207.943 35.373C208.432 35.5814 208.913 35.6855 209.389 35.6855C209.962 35.6855 210.456 35.5781 210.873 35.3633C211.29 35.1484 211.612 34.8294 211.84 34.4062C212.074 33.9896 212.191 33.4753 212.191 32.8633V24.7578L212.357 22.4336ZM205.082 27.834V27.6289C205.082 26.8216 205.176 26.0892 205.365 25.4316C205.561 24.7676 205.837 24.1979 206.195 23.7227C206.56 23.2474 206.999 22.8828 207.514 22.6289C208.028 22.3685 208.607 22.2383 209.252 22.2383C209.916 22.2383 210.495 22.3555 210.99 22.5898C211.492 22.8177 211.915 23.153 212.26 23.5957C212.611 24.0319 212.888 24.5592 213.09 25.1777C213.292 25.7962 213.432 26.4961 213.51 27.2773V28.1758C213.438 28.9505 213.298 29.6471 213.09 30.2656C212.888 30.8841 212.611 31.4115 212.26 31.8477C211.915 32.2839 211.492 32.6191 210.99 32.8535C210.489 33.0814 209.903 33.1953 209.232 33.1953C208.601 33.1953 208.028 33.0618 207.514 32.7949C207.006 32.528 206.57 32.1536 206.205 31.6719C205.84 31.1901 205.561 30.6237 205.365 29.9727C205.176 29.3151 205.082 28.6022 205.082 27.834ZM206.889 27.6289V27.834C206.889 28.3613 206.941 28.8561 207.045 29.3184C207.156 29.7806 207.322 30.1875 207.543 30.5391C207.771 30.8906 208.061 31.1673 208.412 31.3691C208.764 31.5645 209.184 31.6621 209.672 31.6621C210.271 31.6621 210.766 31.5352 211.156 31.2812C211.547 31.0273 211.856 30.6921 212.084 30.2754C212.318 29.8587 212.501 29.4062 212.631 28.918V26.5645C212.559 26.2064 212.449 25.8613 212.299 25.5293C212.156 25.1908 211.967 24.8913 211.732 24.6309C211.505 24.3639 211.221 24.1523 210.883 23.9961C210.544 23.8398 210.147 23.7617 209.691 23.7617C209.197 23.7617 208.77 23.8659 208.412 24.0742C208.061 24.276 207.771 24.556 207.543 24.9141C207.322 25.2656 207.156 25.6758 207.045 26.1445C206.941 26.6068 206.889 27.1016 206.889 27.6289ZM223.666 22.4336V33H221.85V22.4336H223.666ZM221.713 19.6309C221.713 19.3379 221.801 19.0905 221.977 18.8887C222.159 18.6868 222.426 18.5859 222.777 18.5859C223.122 18.5859 223.386 18.6868 223.568 18.8887C223.757 19.0905 223.852 19.3379 223.852 19.6309C223.852 19.9108 223.757 20.1517 223.568 20.3535C223.386 20.5488 223.122 20.6465 222.777 20.6465C222.426 20.6465 222.159 20.5488 221.977 20.3535C221.801 20.1517 221.713 19.9108 221.713 19.6309ZM228.373 24.6895V33H226.566V22.4336H228.275L228.373 24.6895ZM227.943 27.3164L227.191 27.2871C227.198 26.5645 227.305 25.8971 227.514 25.2852C227.722 24.6667 228.015 24.1296 228.393 23.6738C228.77 23.2181 229.219 22.8665 229.74 22.6191C230.268 22.3652 230.85 22.2383 231.488 22.2383C232.009 22.2383 232.478 22.3099 232.895 22.4531C233.311 22.5898 233.666 22.8112 233.959 23.1172C234.258 23.4232 234.486 23.8203 234.643 24.3086C234.799 24.7904 234.877 25.3796 234.877 26.0762V33H233.061V26.0566C233.061 25.5033 232.979 25.0605 232.816 24.7285C232.654 24.39 232.416 24.1458 232.104 23.9961C231.791 23.8398 231.407 23.7617 230.951 23.7617C230.502 23.7617 230.092 23.8561 229.721 24.0449C229.356 24.2337 229.04 24.4941 228.773 24.8262C228.513 25.1582 228.308 25.5391 228.158 25.9688C228.015 26.3919 227.943 26.8411 227.943 27.3164ZM245.258 31.125L247.973 22.4336H249.164L248.93 24.1621L246.166 33H245.004L245.258 31.125ZM243.432 22.4336L245.746 31.2227L245.912 33H244.691L241.625 22.4336H243.432ZM251.762 31.1543L253.969 22.4336H255.766L252.699 33H251.488L251.762 31.1543ZM249.428 22.4336L252.084 30.9785L252.387 33H251.234L248.393 24.1426L248.158 22.4336H249.428ZM259.584 22.4336V33H257.768V22.4336H259.584ZM257.631 19.6309C257.631 19.3379 257.719 19.0905 257.895 18.8887C258.077 18.6868 258.344 18.5859 258.695 18.5859C259.04 18.5859 259.304 18.6868 259.486 18.8887C259.675 19.0905 259.77 19.3379 259.77 19.6309C259.77 19.9108 259.675 20.1517 259.486 20.3535C259.304 20.5488 259.04 20.6465 258.695 20.6465C258.344 20.6465 258.077 20.5488 257.895 20.3535C257.719 20.1517 257.631 19.9108 257.631 19.6309ZM266.908 22.4336V23.8203H261.195V22.4336H266.908ZM263.129 19.8652H264.936V30.3828C264.936 30.7409 264.991 31.0111 265.102 31.1934C265.212 31.3757 265.355 31.4961 265.531 31.5547C265.707 31.6133 265.896 31.6426 266.098 31.6426C266.247 31.6426 266.404 31.6296 266.566 31.6035C266.736 31.571 266.863 31.5449 266.947 31.5254L266.957 33C266.814 33.0456 266.625 33.0879 266.391 33.127C266.163 33.1725 265.886 33.1953 265.561 33.1953C265.118 33.1953 264.711 33.1074 264.34 32.9316C263.969 32.7559 263.673 32.4629 263.451 32.0527C263.236 31.6361 263.129 31.0762 263.129 30.373V19.8652ZM270.834 18V33H269.027V18H270.834ZM270.404 27.3164L269.652 27.2871C269.659 26.5645 269.766 25.8971 269.975 25.2852C270.183 24.6667 270.476 24.1296 270.854 23.6738C271.231 23.2181 271.68 22.8665 272.201 22.6191C272.729 22.3652 273.311 22.2383 273.949 22.2383C274.47 22.2383 274.939 22.3099 275.355 22.4531C275.772 22.5898 276.127 22.8112 276.42 23.1172C276.719 23.4232 276.947 23.8203 277.104 24.3086C277.26 24.7904 277.338 25.3796 277.338 26.0762V33H275.521V26.0566C275.521 25.5033 275.44 25.0605 275.277 24.7285C275.115 24.39 274.877 24.1458 274.564 23.9961C274.252 23.8398 273.868 23.7617 273.412 23.7617C272.963 23.7617 272.553 23.8561 272.182 24.0449C271.817 24.2337 271.501 24.4941 271.234 24.8262C270.974 25.1582 270.769 25.5391 270.619 25.9688C270.476 26.3919 270.404 26.8411 270.404 27.3164ZM287.162 18.7812V33H285.277V18.7812H287.162ZM293.119 25.1777V26.7207H286.752V25.1777H293.119ZM294.086 18.7812V20.3242H286.752V18.7812H294.086ZM301.957 31.1934V25.7539C301.957 25.3372 301.872 24.9759 301.703 24.6699C301.54 24.3574 301.293 24.1165 300.961 23.9473C300.629 23.778 300.219 23.6934 299.73 23.6934C299.275 23.6934 298.874 23.7715 298.529 23.9277C298.191 24.084 297.924 24.2891 297.729 24.543C297.54 24.7969 297.445 25.0703 297.445 25.3633H295.639C295.639 24.9857 295.736 24.6113 295.932 24.2402C296.127 23.8691 296.407 23.5339 296.771 23.2344C297.143 22.9284 297.585 22.6875 298.1 22.5117C298.62 22.3294 299.2 22.2383 299.838 22.2383C300.606 22.2383 301.283 22.3685 301.869 22.6289C302.462 22.8893 302.924 23.2832 303.256 23.8105C303.594 24.3314 303.764 24.9857 303.764 25.7734V30.6953C303.764 31.0469 303.793 31.4212 303.852 31.8184C303.917 32.2155 304.011 32.5573 304.135 32.8438V33H302.25C302.159 32.7917 302.087 32.515 302.035 32.1699C301.983 31.8184 301.957 31.4928 301.957 31.1934ZM302.27 26.5938L302.289 27.8633H300.463C299.949 27.8633 299.49 27.9056 299.086 27.9902C298.682 28.0684 298.344 28.1888 298.07 28.3516C297.797 28.5143 297.589 28.7194 297.445 28.9668C297.302 29.2077 297.23 29.4909 297.23 29.8164C297.23 30.1484 297.305 30.4512 297.455 30.7246C297.605 30.998 297.829 31.2161 298.129 31.3789C298.435 31.5352 298.809 31.6133 299.252 31.6133C299.805 31.6133 300.294 31.4961 300.717 31.2617C301.14 31.0273 301.475 30.7409 301.723 30.4023C301.977 30.0638 302.113 29.735 302.133 29.416L302.904 30.2852C302.859 30.5586 302.735 30.8613 302.533 31.1934C302.331 31.5254 302.061 31.8444 301.723 32.1504C301.391 32.4499 300.993 32.7005 300.531 32.9023C300.076 33.0977 299.561 33.1953 298.988 33.1953C298.272 33.1953 297.644 33.0553 297.104 32.7754C296.57 32.4954 296.153 32.1211 295.854 31.6523C295.561 31.1771 295.414 30.6465 295.414 30.0605C295.414 29.4941 295.525 28.9961 295.746 28.5664C295.967 28.1302 296.286 27.7689 296.703 27.4824C297.12 27.1895 297.621 26.9681 298.207 26.8184C298.793 26.6686 299.447 26.5938 300.17 26.5938H302.27ZM310.834 31.7109C311.264 31.7109 311.661 31.623 312.025 31.4473C312.39 31.2715 312.689 31.0306 312.924 30.7246C313.158 30.4121 313.292 30.0573 313.324 29.6602H315.043C315.01 30.2852 314.799 30.8678 314.408 31.4082C314.024 31.9421 313.52 32.375 312.895 32.707C312.27 33.0326 311.583 33.1953 310.834 33.1953C310.04 33.1953 309.346 33.0553 308.754 32.7754C308.168 32.4954 307.68 32.1113 307.289 31.623C306.905 31.1348 306.615 30.5749 306.42 29.9434C306.231 29.3053 306.137 28.6315 306.137 27.9219V27.5117C306.137 26.8021 306.231 26.1315 306.42 25.5C306.615 24.862 306.905 24.2988 307.289 23.8105C307.68 23.3223 308.168 22.9382 308.754 22.6582C309.346 22.3783 310.04 22.2383 310.834 22.2383C311.661 22.2383 312.383 22.4076 313.002 22.7461C313.62 23.0781 314.105 23.5339 314.457 24.1133C314.815 24.6862 315.01 25.3372 315.043 26.0664H313.324C313.292 25.6302 313.168 25.2363 312.953 24.8848C312.745 24.5332 312.458 24.2533 312.094 24.0449C311.736 23.8301 311.316 23.7227 310.834 23.7227C310.281 23.7227 309.815 23.8333 309.438 24.0547C309.066 24.2695 308.77 24.5625 308.549 24.9336C308.334 25.2982 308.178 25.7051 308.08 26.1543C307.989 26.597 307.943 27.0495 307.943 27.5117V27.9219C307.943 28.3841 307.989 28.8398 308.08 29.2891C308.171 29.7383 308.324 30.1452 308.539 30.5098C308.76 30.8743 309.057 31.1673 309.428 31.3887C309.805 31.6035 310.274 31.7109 310.834 31.7109ZM321.459 33.1953C320.723 33.1953 320.056 33.0716 319.457 32.8242C318.865 32.5703 318.354 32.2155 317.924 31.7598C317.501 31.304 317.175 30.7637 316.947 30.1387C316.719 29.5137 316.605 28.8301 316.605 28.0879V27.6777C316.605 26.8184 316.732 26.0534 316.986 25.3828C317.24 24.7057 317.585 24.1328 318.021 23.6641C318.458 23.1953 318.952 22.8405 319.506 22.5996C320.059 22.3587 320.632 22.2383 321.225 22.2383C321.98 22.2383 322.631 22.3685 323.178 22.6289C323.731 22.8893 324.184 23.2539 324.535 23.7227C324.887 24.1849 325.147 24.7318 325.316 25.3633C325.486 25.9883 325.57 26.6719 325.57 27.4141V28.2246H317.68V26.75H323.764V26.6133C323.738 26.1445 323.64 25.6888 323.471 25.2461C323.308 24.8034 323.048 24.4388 322.689 24.1523C322.331 23.8659 321.843 23.7227 321.225 23.7227C320.814 23.7227 320.437 23.8105 320.092 23.9863C319.747 24.1556 319.451 24.4095 319.203 24.748C318.956 25.0866 318.764 25.5 318.627 25.9883C318.49 26.4766 318.422 27.0397 318.422 27.6777V28.0879C318.422 28.5892 318.49 29.0612 318.627 29.5039C318.77 29.9401 318.975 30.3242 319.242 30.6562C319.516 30.9883 319.844 31.2487 320.229 31.4375C320.619 31.6263 321.062 31.7207 321.557 31.7207C322.195 31.7207 322.735 31.5905 323.178 31.3301C323.62 31.0697 324.008 30.7214 324.34 30.2852L325.434 31.1543C325.206 31.4993 324.916 31.8281 324.564 32.1406C324.213 32.4531 323.78 32.707 323.266 32.9023C322.758 33.0977 322.156 33.1953 321.459 33.1953ZM327.67 18H329.486V30.9492L329.33 33H327.67V18ZM336.625 27.6289V27.834C336.625 28.6022 336.534 29.3151 336.352 29.9727C336.169 30.6237 335.902 31.1901 335.551 31.6719C335.199 32.1536 334.77 32.528 334.262 32.7949C333.754 33.0618 333.171 33.1953 332.514 33.1953C331.843 33.1953 331.254 33.0814 330.746 32.8535C330.245 32.6191 329.822 32.2839 329.477 31.8477C329.132 31.4115 328.855 30.8841 328.646 30.2656C328.445 29.6471 328.305 28.9505 328.227 28.1758V27.2773C328.305 26.4961 328.445 25.7962 328.646 25.1777C328.855 24.5592 329.132 24.0319 329.477 23.5957C329.822 23.153 330.245 22.8177 330.746 22.5898C331.247 22.3555 331.83 22.2383 332.494 22.2383C333.158 22.2383 333.747 22.3685 334.262 22.6289C334.776 22.8828 335.206 23.2474 335.551 23.7227C335.902 24.1979 336.169 24.7676 336.352 25.4316C336.534 26.0892 336.625 26.8216 336.625 27.6289ZM334.809 27.834V27.6289C334.809 27.1016 334.76 26.6068 334.662 26.1445C334.564 25.6758 334.408 25.2656 334.193 24.9141C333.979 24.556 333.695 24.276 333.344 24.0742C332.992 23.8659 332.559 23.7617 332.045 23.7617C331.589 23.7617 331.192 23.8398 330.854 23.9961C330.521 24.1523 330.238 24.3639 330.004 24.6309C329.77 24.8913 329.577 25.1908 329.428 25.5293C329.285 25.8613 329.177 26.2064 329.105 26.5645V28.918C329.21 29.3737 329.379 29.8132 329.613 30.2363C329.854 30.653 330.173 30.9948 330.57 31.2617C330.974 31.5286 331.472 31.6621 332.064 31.6621C332.553 31.6621 332.969 31.5645 333.314 31.3691C333.666 31.1673 333.949 30.8906 334.164 30.5391C334.385 30.1875 334.548 29.7806 334.652 29.3184C334.757 28.8561 334.809 28.3613 334.809 27.834ZM338.432 27.834V27.6094C338.432 26.8477 338.542 26.1413 338.764 25.4902C338.985 24.8327 339.304 24.263 339.721 23.7812C340.137 23.293 340.642 22.9154 341.234 22.6484C341.827 22.375 342.491 22.2383 343.227 22.2383C343.969 22.2383 344.636 22.375 345.229 22.6484C345.827 22.9154 346.335 23.293 346.752 23.7812C347.175 24.263 347.497 24.8327 347.719 25.4902C347.94 26.1413 348.051 26.8477 348.051 27.6094V27.834C348.051 28.5957 347.94 29.3021 347.719 29.9531C347.497 30.6042 347.175 31.1738 346.752 31.6621C346.335 32.1439 345.831 32.5215 345.238 32.7949C344.652 33.0618 343.988 33.1953 343.246 33.1953C342.504 33.1953 341.837 33.0618 341.244 32.7949C340.652 32.5215 340.144 32.1439 339.721 31.6621C339.304 31.1738 338.985 30.6042 338.764 29.9531C338.542 29.3021 338.432 28.5957 338.432 27.834ZM340.238 27.6094V27.834C340.238 28.3613 340.3 28.8594 340.424 29.3281C340.548 29.7904 340.733 30.2005 340.98 30.5586C341.234 30.9167 341.55 31.1999 341.928 31.4082C342.305 31.61 342.745 31.7109 343.246 31.7109C343.741 31.7109 344.174 31.61 344.545 31.4082C344.923 31.1999 345.235 30.9167 345.482 30.5586C345.73 30.2005 345.915 29.7904 346.039 29.3281C346.169 28.8594 346.234 28.3613 346.234 27.834V27.6094C346.234 27.0885 346.169 26.597 346.039 26.1348C345.915 25.666 345.727 25.2526 345.473 24.8945C345.225 24.5299 344.913 24.2435 344.535 24.0352C344.164 23.8268 343.728 23.7227 343.227 23.7227C342.732 23.7227 342.296 23.8268 341.918 24.0352C341.547 24.2435 341.234 24.5299 340.98 24.8945C340.733 25.2526 340.548 25.666 340.424 26.1348C340.3 26.597 340.238 27.0885 340.238 27.6094ZM349.838 27.834V27.6094C349.838 26.8477 349.949 26.1413 350.17 25.4902C350.391 24.8327 350.71 24.263 351.127 23.7812C351.544 23.293 352.048 22.9154 352.641 22.6484C353.233 22.375 353.897 22.2383 354.633 22.2383C355.375 22.2383 356.042 22.375 356.635 22.6484C357.234 22.9154 357.742 23.293 358.158 23.7812C358.581 24.263 358.904 24.8327 359.125 25.4902C359.346 26.1413 359.457 26.8477 359.457 27.6094V27.834C359.457 28.5957 359.346 29.3021 359.125 29.9531C358.904 30.6042 358.581 31.1738 358.158 31.6621C357.742 32.1439 357.237 32.5215 356.645 32.7949C356.059 33.0618 355.395 33.1953 354.652 33.1953C353.91 33.1953 353.243 33.0618 352.65 32.7949C352.058 32.5215 351.55 32.1439 351.127 31.6621C350.71 31.1738 350.391 30.6042 350.17 29.9531C349.949 29.3021 349.838 28.5957 349.838 27.834ZM351.645 27.6094V27.834C351.645 28.3613 351.706 28.8594 351.83 29.3281C351.954 29.7904 352.139 30.2005 352.387 30.5586C352.641 30.9167 352.956 31.1999 353.334 31.4082C353.712 31.61 354.151 31.7109 354.652 31.7109C355.147 31.7109 355.58 31.61 355.951 31.4082C356.329 31.1999 356.641 30.9167 356.889 30.5586C357.136 30.2005 357.322 29.7904 357.445 29.3281C357.576 28.8594 357.641 28.3613 357.641 27.834V27.6094C357.641 27.0885 357.576 26.597 357.445 26.1348C357.322 25.666 357.133 25.2526 356.879 24.8945C356.632 24.5299 356.319 24.2435 355.941 24.0352C355.57 23.8268 355.134 23.7227 354.633 23.7227C354.138 23.7227 353.702 23.8268 353.324 24.0352C352.953 24.2435 352.641 24.5299 352.387 24.8945C352.139 25.2526 351.954 25.666 351.83 26.1348C351.706 26.597 351.645 27.0885 351.645 27.6094ZM363.539 18V33H361.723V18H363.539ZM369.994 22.4336L365.385 27.3652L362.807 30.041L362.66 28.1172L364.506 25.9102L367.787 22.4336H369.994ZM368.344 33L364.574 27.9609L365.512 26.3496L370.473 33H368.344Z" fill="#444545"/>
</svg>
