<svg width="105" height="124" viewBox="0 0 105 124" fill="none" xmlns="http://www.w3.org/2000/svg">
<path d="M68.9418 101.7C68.301 90.7061 67.2385 79.7671 66.0387 68.8151C65.5607 64.4547 65.2499 60.0899 65.0346 55.7128C65.0295 55.5828 64.9981 55.4793 64.9549 55.3858C69.5252 45.6352 71.9028 34.9717 75.3819 24.7968C78.1794 26.1462 82.9388 26.4311 83.5583 22.8885C84.4915 17.5388 74.8207 14.5212 71.1916 13.662C67.5024 12.7849 62.178 9.80214 58.4286 11.6967C58.3859 11.7087 58.3469 11.7298 58.3079 11.7509C54.3859 13.8582 59.0146 17.8097 61.8562 19.268C61.7056 19.5351 61.565 19.814 61.4208 20.0838C61.3842 20.0457 61.3477 20.0077 61.3175 19.9724C60.994 19.6174 60.448 19.9127 60.5956 20.3812C60.6861 20.6826 60.752 20.9888 60.8207 21.2885C59.1501 24.8449 58.0871 28.8313 56.8023 32.4532C55.4089 36.3675 53.8987 40.2023 52.2466 43.9996C52.1443 44.0991 52.0822 44.2458 52.0729 44.3922C51.6634 45.3243 51.2539 46.2563 50.8253 47.1802C50.8226 47.1866 50.8162 47.1839 50.8135 47.1903C50.7323 47.3288 50.6638 47.4728 50.6072 47.6067C41.2375 51.0552 34.0697 58.8418 26.8463 65.4093C19.7787 71.8398 10.0308 77.3012 5.54699 86.0658C-0.325695 97.5436 18.7419 104.493 26.2175 107.243C31.8661 109.318 37.6835 110.923 43.2386 113.236C49.1125 115.685 56.5693 119.901 63.1678 118.505C69.7736 117.128 69.225 106.609 68.9418 101.7ZM70.4036 15.1331C73.6628 16.0312 77.2288 17.4126 80.035 19.292C82.731 21.0947 82.3143 24.2644 78.9371 24.0006C77.8674 23.9163 76.8773 23.5198 75.8523 23.259C75.8504 22.4461 74.6255 22.0179 74.3004 22.9105C70.3903 33.4819 67.6222 44.4464 63.9407 55.0995C63.6295 55.2309 63.3807 55.5166 63.3853 55.9321C63.4847 61.6136 64.0604 67.2711 64.7007 72.9183C61.0127 69.9063 56.5216 70.4267 53.0074 73.0449C53.0891 70.2222 51.7266 68.1117 48.2453 68.3602C48.1989 68.3631 46.4409 65.2505 45.7088 64.8129C44.2509 63.9402 42.426 64.5213 40.9444 65.2327C40.7732 63.1677 39.8415 61.638 38.5721 60.7999C38.5773 60.3435 38.5734 59.8907 38.5631 59.4352C39.4408 60.7015 40.478 61.8397 41.4085 63.1057C41.6601 63.4528 42.2601 63.2255 42.189 62.7894C41.924 61.1057 41.73 59.4145 41.4986 57.7225C41.5871 58.384 43.9158 60.4148 44.1755 60.7427C44.4416 61.0734 45.0281 60.878 44.956 60.4264C44.7384 58.9508 44.638 57.4646 44.4822 55.9851C44.2742 54.0247 44.7558 55.1609 46.4739 55.8806C46.8501 56.0398 47.1521 55.6638 47.0523 55.3133C46.7476 54.2745 46.5846 53.2205 46.3689 52.1667C47.3129 53.0099 48.2542 53.8594 49.1981 54.7026C49.5962 55.059 50.0613 54.5641 49.9475 54.14C49.3128 51.9088 48.3367 50.6084 50.4211 51.0845C50.5658 51.1157 50.7809 51.0338 50.8658 50.9043C51.2747 50.2578 51.285 50.3223 51.3116 49.5666C51.3788 47.5423 52.7455 49.5719 53.5269 50.053C53.9564 50.3175 54.4622 49.9751 54.2999 49.4703C53.8801 48.1347 53.6593 46.7555 53.3195 45.4086C54.0882 45.8843 54.8306 46.3865 55.6417 46.7974C56.0363 47.002 56.3707 46.5495 56.2581 46.1936C55.8006 44.7518 55.6786 43.5121 55.601 42.0431C55.5026 40.1969 55.7294 41.2779 56.943 42.017C57.3432 42.2616 57.7919 41.9477 57.657 41.4846C57.0215 39.2907 55.6929 36.4426 58.4424 39.6289C58.7706 40.0084 59.3392 39.6776 59.1916 39.2091C58.5918 37.286 58.4331 35.3691 58.2178 33.3906C58.2205 33.3843 58.2205 33.3843 58.2232 33.3779C58.3138 33.9276 59.7869 34.3555 60.237 34.5535C60.6042 34.7164 60.9152 34.3368 60.8064 33.9899C60.3775 32.658 60.2494 31.2729 59.8643 29.9444C59.8834 29.9525 59.8871 29.9616 59.9062 29.9697C60.148 30.1622 60.3808 30.3585 60.6172 30.5638C60.975 30.8732 61.3977 30.443 61.2869 30.0652C60.9941 29.0691 60.9204 28.0529 60.6905 27.0683C60.7219 26.9763 60.7597 26.8871 60.7911 26.7951C61.2654 27.1312 62.424 27.7869 62.4915 27.823C62.8169 28.0134 63.1933 27.5862 63.0464 27.2759C62.4569 26.0038 62.2326 24.6682 62.0238 23.3316C62.1413 22.9828 62.2488 22.6223 62.3599 22.2708C62.7482 22.6682 63.1391 23.0592 63.5156 23.4667C63.829 23.8099 64.4069 23.5281 64.2375 23.0579C63.8839 22.0811 63.5612 21.1024 63.2049 20.1321C63.1588 19.9922 63.1174 19.8769 63.086 19.7734C63.2653 19.8117 63.4103 19.7001 63.4751 19.5471C63.749 19.8059 64.1088 20.1461 64.4635 20.3564C64.6567 20.4683 64.8191 20.3866 64.9121 20.238C65.021 20.3893 65.1299 20.5407 65.2424 20.7011C65.559 21.1434 66.2591 20.7329 66.0605 20.2428C65.7515 19.4804 65.4345 18.7372 65.102 17.9949C65.36 18.3447 65.6035 18.7109 65.8171 19.0946C66.0839 19.5835 66.7432 19.4114 66.7389 18.8531C66.6834 15.0399 67.2921 17.5458 68.7543 17.5555C69.4062 17.5608 69.5498 16.5463 68.8888 16.5448C68.0195 16.5378 67.4717 15.4337 66.5187 15.8199C65.9742 16.0406 65.7897 16.6543 65.7444 17.3119C64.9268 16.259 63.976 15.3077 63.1664 14.2357C62.8106 13.7618 62.161 14.2839 62.4496 14.7745C62.8629 15.4682 63.2216 16.184 63.5713 16.9035C62.4876 15.5199 61.3423 14.1931 60.0728 12.9641C61.0552 12.8459 62.1886 12.9572 62.6208 13.0198C65.2821 13.3942 67.8172 14.422 70.4036 15.1331ZM37.6791 62.1815C37.6796 62.0915 37.2084 61.659 36.7255 61.2366C37.0714 61.3077 37.401 61.4172 37.6973 61.5877C37.6882 61.7869 37.6882 61.9823 37.6791 62.1815ZM48.0486 50.0278C48.3185 51.0068 48.4867 51.9953 48.6884 52.9755C47.9399 52.3278 47.185 51.6775 46.4365 51.0299C46.9668 50.6829 47.5045 50.354 48.0486 50.0278ZM59.2711 30.6708C59.8669 32.3366 60.3428 34.0193 58.5195 32.5709C58.7649 31.9379 59.0193 31.3012 59.2711 30.6708ZM54.6584 42.1028C54.7397 43.1899 54.8146 44.2743 55.0041 45.3546C54.9901 45.281 54.2033 44.8127 53.5232 44.412C53.9253 43.6574 54.2982 42.8828 54.6584 42.1028ZM56.145 38.6791C56.2634 39.3233 56.3727 39.9711 56.5002 40.6115C56.2073 40.3973 55.9054 40.1869 55.6008 39.9827C55.7843 39.5491 55.9678 39.1155 56.145 38.6791ZM57.5104 35.2042C57.6199 36.1002 57.7513 36.9979 57.9408 37.8827C57.5984 37.5724 57.2234 37.2858 56.8121 37.014C57.0467 36.4065 57.2785 35.8053 57.5104 35.2042ZM52.5051 46.267C52.674 47.0227 52.8274 47.7794 53.0054 48.5315C52.5774 48.1924 52.1892 47.795 51.8444 47.3483C52.0637 46.99 52.2894 46.6344 52.5051 46.267ZM45.4158 51.7182C46.1883 54.2634 46.4914 54.933 43.8195 53.8022C43.4368 53.6403 43.1412 54.019 43.241 54.3695C43.6899 55.9204 43.7746 57.5503 43.9356 59.1599C43.0284 58.212 42.0643 57.3453 41.2231 56.3126C40.9607 55.991 40.3769 56.18 40.4517 56.6252C40.6968 58.1426 40.8646 59.6648 41.0606 61.1915C40.9949 61.1336 40.9292 61.0757 40.8443 61.0097C39.8726 59.8766 39.1065 58.9508 38.4164 57.561C38.3632 57.4558 38.2874 57.3861 38.1982 57.3483C40.5041 55.3466 42.8813 53.4428 45.4158 51.7182ZM58.8542 13.3205C59.8033 14.6847 60.7288 16.0689 61.7169 17.4119C61.8459 17.5868 61.9913 17.7762 62.1431 17.9683C62.0821 17.9349 62.0401 17.9097 61.9754 17.8672C61.8724 17.8086 61.7823 17.8081 61.7097 17.8375C60.8759 17.2139 60.0736 16.5511 59.3536 15.7651C58.1465 14.4421 58.2395 13.707 58.8542 13.3205ZM61.4503 25.3973C61.6596 26.6438 61.5027 26.5173 61.0406 26.0811C61.1655 25.7505 61.284 25.4171 61.4062 25.0929C61.4248 25.191 61.4344 25.2928 61.4503 25.3973ZM37.6104 57.8665C37.707 58.7044 37.7316 59.5344 37.7281 60.3601C36.8792 60.0384 35.9378 59.9708 34.9824 60.2206C35.8508 59.4302 36.7256 58.6425 37.6104 57.8665ZM35.1072 61.2584C35.2409 62.879 35.1355 64.4962 35.2601 66.1204C35.2011 65.336 32.7026 64.1508 31.7522 63.5004C31.773 63.4867 31.7948 63.4884 31.8147 63.4592C32.8166 62.229 33.9872 61.5063 35.1072 61.2584ZM22.7146 71.21C23.0141 72.5098 22.9002 73.8451 23.2478 75.1201C23.1711 74.8395 20.9713 73.7656 20.0994 73.374C20.969 72.6518 21.845 71.9322 22.7146 71.21ZM25.4156 68.9319C25.5956 71.7225 26.3135 71.8383 23.4247 70.6158C24.0969 70.0581 24.7563 69.495 25.4156 68.9319ZM28.4903 66.2329C28.7213 67.233 28.804 68.2455 29.0894 69.2235C29.1365 69.3788 27.0807 68.5688 26.2462 68.2307C26.9962 67.5781 27.7451 66.9101 28.4903 66.2329ZM30.9179 63.997C30.9946 64.8641 31.1191 65.6537 31.3054 66.4393C30.7089 66.0365 30.081 65.7256 29.385 65.416C29.8947 64.94 30.4108 64.4667 30.9179 63.997ZM19.2651 74.0661C19.3763 74.9403 19.5148 75.8035 19.7097 76.6755C19.7533 76.8744 18.2254 75.5811 18.1861 75.5495C17.9151 75.337 17.5737 75.6286 17.6769 75.9355C17.1333 74.3595 18.892 79.8334 18.5614 79.513C17.8473 78.8197 16.8819 78.2758 16.1044 77.6611C15.9082 77.5028 15.5808 77.6725 15.6283 77.9333C15.6928 78.314 15.9228 80.7197 16.12 80.8934C15.4161 80.2647 14.3151 79.8814 13.4696 79.5161C13.2401 79.4189 13.0438 79.6517 13.1103 79.8678C13.62 81.3994 13.8963 82.9675 14.2407 84.5344C14.1274 84.0203 11.7047 82.3182 10.7983 81.5285C13.0912 79.0777 15.8592 76.9257 18.1899 74.9721C18.5485 74.6577 18.9055 74.3651 19.2651 74.0661ZM6.56682 88.5953C7.73047 90.3585 9.05086 92.0001 10.4012 93.6243C9.11162 92.5672 7.79041 91.5494 6.40223 90.601C6.36748 89.9546 6.42447 89.287 6.56682 88.5953ZM7.1486 86.7587C7.42756 86.1173 7.76661 85.4939 8.14393 84.8866C9.09638 86.7935 10.2681 88.5376 11.4754 90.3043C13.1376 92.7372 10.2277 90.0544 9.69501 89.6786C8.7044 88.9811 7.81855 88.125 6.95992 87.2578C7.02739 87.0984 7.07573 86.9309 7.1486 86.7587ZM8.60809 84.1807C9.10855 83.4602 9.67548 82.7602 10.2716 82.0801C10.8858 83.5958 11.4974 85.1178 12.118 86.6362C12.5501 87.2852 12.3353 87.2244 11.4707 86.46C10.3918 85.7402 9.47701 85.1124 8.60809 84.1807ZM46.3439 112.686C41.4957 110.656 36.5736 108.979 31.5896 107.306C27.4298 105.907 18.9998 103.422 13.0348 99.5361C13.0434 99.427 13.011 99.308 12.8997 99.2158C12.5281 98.8856 12.1656 98.5517 11.8058 98.2115C11.8366 97.7658 11.4447 97.3593 10.6093 97.0058C9.19589 95.5128 7.96747 93.9026 6.96179 92.0859C9.22775 93.7142 11.3517 95.5003 13.4513 97.3439C13.8091 97.6532 14.3351 97.1389 14.0415 96.7665C11.8458 93.9951 9.42916 91.4083 7.36669 88.5353C7.08392 88.1374 6.89729 87.8855 6.78105 87.716C6.78375 87.7096 6.78645 87.7032 6.78915 87.6969C7.11287 88.1046 7.83536 89.0269 8.27265 89.415C9.63014 90.6136 11.1498 91.4823 12.7718 92.2515C13.0852 92.3992 13.3153 92.0153 13.1596 91.7615C11.8635 89.6715 10.3953 87.7042 9.1527 85.5767C9.19831 85.611 9.24123 85.6518 9.28955 85.6797C10.3329 86.5724 11.6168 87.1985 12.7154 88.0319C12.9371 88.2009 13.2515 87.9731 13.1449 87.7099C12.4728 86.0645 11.9086 83.773 10.8171 82.4613C11.7578 83.5964 13.3315 84.3376 14.493 85.2352C14.7248 85.416 14.9882 85.1666 14.9135 84.9168C14.1755 82.3788 12.5789 78.3872 16.4721 81.9447C16.6565 82.113 16.9548 81.9234 16.9183 81.6899C16.4445 78.6697 16.515 78.3612 18.7983 80.6058C19.0102 80.8157 19.3327 80.5688 19.3107 80.3188C19.1899 79.1474 19.0544 77.9396 18.6729 76.8157C18.872 77.4112 19.6799 77.5276 20.1415 77.6628C20.4292 77.747 20.6755 77.5203 20.5823 77.2253C19.4535 73.5143 20.7024 74.2233 23.6073 76.1896C23.922 76.4054 24.2607 76.1202 24.1673 75.7724C23.813 74.442 23.7924 73.0873 23.6444 71.7313C23.611 71.4014 26.0959 72.5658 26.3764 72.6846C26.6698 72.8087 27.053 72.4897 26.8906 72.1803C24.8243 68.2681 27.4036 69.6003 29.6392 70.554C30.0027 70.7078 30.2838 70.3455 30.1914 70.0132C29.3987 67.249 28.8525 65.0929 31.8004 67.9346C32.1475 68.2695 32.5927 67.8037 32.4819 67.426C30.9992 62.6855 33.6597 65.6913 35.6433 67.2225C35.9335 67.4431 36.4871 67.2187 36.3834 66.8064C36.0547 65.4867 36.1716 64.1978 36.1391 62.8531C36.0974 60.873 36.7828 62.4338 37.8447 63.4246C38.1616 63.7241 38.5636 63.3604 38.5576 63.0195C38.5546 62.7776 38.5581 62.5385 38.5589 62.3057C39.3147 63.167 39.7372 64.4962 39.5824 66.2654C39.5409 66.7366 40.0425 67.2572 40.535 66.9994C43.5193 65.4202 46.2564 65.4732 46.5679 69.4098C46.5941 69.7743 47.0067 70.1143 47.3736 70.029C50.9769 69.208 51.9071 72.0379 51.2794 74.7649C51.1002 75.5613 52.1414 75.7839 52.593 75.3208C55.7953 72.0894 60.2149 71.2229 63.8899 74.1767C64.2266 74.4471 64.5899 74.3527 64.8298 74.1234C65.3088 78.3038 65.8006 82.4896 66.1496 86.6751C66.5133 91.0924 66.6006 95.5055 67.0261 99.9189C67.4418 104.178 67.6375 108.637 66.3515 112.777C63.7267 121.253 51.5748 114.877 46.3439 112.686Z" fill="white" fill-opacity="0.4"/>
<path d="M29.72 74.9116C29.3433 74.6469 28.977 74.8904 28.9112 75.2235C26.3923 76.7516 25.5484 79.545 29.308 80.1135C33.7573 80.7935 31.8927 76.4402 29.72 74.9116ZM29.4627 78.9308C26.9218 78.8405 28.0356 77.026 29.2335 75.9013C30.2547 76.935 32.1436 79.0277 29.4627 78.9308Z" fill="white" fill-opacity="0.4"/>
<path d="M23.0029 83.8364C21.5582 81.4579 18.6875 81.01 16.4258 82.5341C16.182 82.7016 16.1851 82.9962 16.3134 83.2084C14.9831 84.3973 14.2001 86.1939 14.8801 87.963C15.8315 90.4409 20.0662 90.9173 22.0752 89.6171C24.0153 88.3553 24.1388 85.7006 23.0029 83.8364ZM21.7327 88.472C20.2655 89.7535 16.7313 89.363 15.8331 87.5768C15.0697 86.0582 16.012 84.329 17.2484 83.2732C18.9527 82.5508 20.6265 82.5224 21.8605 84.1725C22.7699 85.3995 22.9681 87.4008 21.7327 88.472Z" fill="white" fill-opacity="0.4"/>
<path d="M31.2296 88.2053C31.1114 87.8094 30.8497 87.4506 30.5846 87.1353C30.2994 86.7966 29.9109 86.3464 29.4923 86.0565C29.6463 85.9412 29.7977 85.8323 29.9554 85.7261C30.1965 85.565 29.9646 85.136 29.7006 85.2799C29.4548 85.4165 29.1374 85.598 28.8038 85.8177C28.6502 85.843 28.5224 85.9317 28.4466 86.0576C27.2584 86.8931 26.0765 88.1223 27.095 89.3579C27.9014 90.3308 29.61 90.5576 30.6709 89.9163C31.2839 89.5517 31.4162 88.8482 31.2296 88.2053ZM30.0122 89.021C29.9759 89.0357 29.9369 89.0568 29.9006 89.0715C29.8733 89.0825 29.8061 89.0992 29.7698 89.1139C29.6535 89.1399 29.54 89.1595 29.4227 89.1701C29.3518 89.1777 29.29 89.1816 29.2218 89.1828C29.1782 89.1793 29.1318 89.1823 29.0882 89.1788C28.9481 89.1722 28.8135 89.1528 28.6751 89.1243C28.6405 89.1172 28.606 89.1101 28.5714 89.103C28.4985 89.0797 28.4257 89.0564 28.3555 89.0267C28.2918 88.9997 28.2344 88.9754 28.1733 88.942C28.1414 88.9285 28.135 88.9258 28.1223 88.9204C28.1159 88.9177 28.1159 88.9177 28.0931 88.9006C28.0411 88.8635 27.9891 88.8265 27.9435 88.7921C27.9207 88.775 27.9006 88.7514 27.8778 88.7342C27.8741 88.7252 27.8714 88.7316 27.8613 88.7198C27.8375 88.6872 27.8074 88.6518 27.7836 88.6192C27.7762 88.601 27.7377 88.5321 27.7267 88.5049C27.7157 88.4777 27.712 88.4686 27.7083 88.4595C27.711 88.4531 27.711 88.4531 27.7063 88.4286C27.684 88.3214 27.6965 88.2741 27.6921 88.3023C27.702 88.0658 27.712 88.0776 27.8092 87.848C27.8992 87.653 28.0248 87.4806 28.1885 87.2717C28.3177 87.1083 28.4571 86.9568 28.6065 86.817C28.7865 87.0135 29.02 87.1724 29.2108 87.3434C29.4281 87.5406 29.5642 87.681 29.7489 87.902C29.8192 87.9844 29.8806 88.0705 29.9419 88.1566C29.962 88.1802 30.0417 88.3116 30.0554 88.3325C30.0902 88.3923 30.1224 88.4586 30.1454 88.5285C30.1601 88.5648 30.1685 88.5984 30.1832 88.6347C30.1868 88.6438 30.1805 88.6411 30.1878 88.6592C30.1925 88.6838 30.1927 88.7365 30.1984 88.7765C30.1966 88.7983 30.1912 88.8111 30.1895 88.8329C30.1814 88.852 30.177 88.8802 30.1689 88.8994C30.1544 88.9158 30.1373 88.9386 30.1228 88.955C30.1201 88.9614 30.1228 88.955 30.1201 88.9614C30.111 88.9651 30.111 88.9651 30.0902 88.9788C30.0811 88.9825 30.0421 89.0036 30.0122 89.021Z" fill="white" fill-opacity="0.4"/>
<path d="M26.1818 94.7312C25.7136 93.9541 25.1155 93.1821 24.1167 93.2857C23.7313 93.3256 23.3668 93.5473 23.0403 93.7325C22.4835 94.0533 21.9002 94.3478 21.3745 94.7193C21.0419 94.9545 21.2554 95.5336 21.6643 95.4736C21.3407 96.0961 21.2555 96.7593 21.7436 97.3117C23.0642 98.8106 25.4121 96.2476 26.1655 95.3559C26.3365 95.1651 26.3027 94.9252 26.1818 94.7312ZM23.4312 96.5221C23.2372 96.643 22.6693 96.9366 22.4527 96.702C22.0863 96.3064 22.3162 95.6743 22.6629 95.1217C23.0085 94.9447 23.3458 94.734 23.6995 94.5378C24.4097 94.1391 24.7766 94.4448 25.14 94.9896C24.6334 95.5647 24.0876 96.1082 23.4312 96.5221Z" fill="white" fill-opacity="0.4"/>
<path d="M62.0102 105.233C61.7908 104.756 61.4842 104.326 60.9373 104.215C60.7297 104.172 60.5252 104.175 60.3189 104.201C60.208 104.214 60.0918 104.24 59.9782 104.26C59.9446 104.268 59.9291 104.269 59.9073 104.267C59.6027 103.868 59.0447 104.12 58.9747 104.534C58.7199 104.479 58.4704 104.411 58.1886 104.42C57.494 104.427 57.1046 104.991 56.7889 105.542C56.0357 106.877 58.7774 107.541 59.2252 108.438C59.3573 108.712 59.7738 108.918 60.04 108.662C60.8674 107.862 61.0147 106.661 61.825 105.884C62.0097 105.714 62.125 105.477 62.0102 105.233ZM57.7207 105.898C57.7989 105.714 57.9 105.546 58.0175 105.393C58.1522 105.216 58.4534 105.269 58.6435 105.281C58.9055 105.302 59.15 105.293 59.3953 105.246C59.8326 105.439 60.4323 105.159 60.7926 105.409C60.3344 106.012 60.1204 106.749 59.7195 107.376C59.1415 106.823 58.3333 106.459 57.7481 105.94C57.7371 105.913 57.7371 105.913 57.7207 105.898Z" fill="white" fill-opacity="0.4"/>
<path d="M61.1971 95.5873C60.1696 93.7689 57.4059 92.6594 55.4864 93.6592C55.0147 93.9032 55.1488 94.599 55.6916 94.5957C54.7658 95.5573 54.2101 96.9237 54.5842 98.225C55.2438 100.504 58.0488 100.699 59.9358 99.971C61.8501 99.2322 62.1192 97.2107 61.1971 95.5873ZM59.6951 98.8165C58.4271 99.5205 55.9859 99.5325 55.5806 97.7895C55.3043 96.6123 55.8505 95.3396 56.7279 94.5455C57.8845 94.5312 58.931 94.741 59.8238 95.7053C60.6836 96.6407 60.9694 98.1151 59.6951 98.8165Z" fill="white" fill-opacity="0.4"/>
<path d="M53.6377 103.607C53.2381 102.294 51.6973 101.778 50.2592 101.853C50.3004 101.72 50.2278 101.554 50.0387 101.557C48.6803 101.569 47.3644 101.906 46.3804 102.881C45.1774 104.071 45.7882 105.826 46.5602 107.04C47.7462 108.911 50.2541 109.363 51.9867 108.058C53.3116 107.078 54.1215 105.217 53.6377 103.607ZM51.7747 106.818C50.8756 107.859 49.5071 108.054 48.3591 107.32C47.2365 106.597 46.3593 105.045 46.9371 103.733C47.1459 103.258 47.5735 102.905 48.0687 102.641C47.9326 102.891 48.0525 103.265 48.3762 103.282C49.5877 103.351 51.7649 102.258 52.5511 103.793C53.0639 104.785 52.425 106.063 51.7747 106.818Z" fill="white" fill-opacity="0.4"/>
<path d="M16.118 99.7131C15.4592 99.4042 14.8014 99.1108 14.1237 98.8465C13.9935 98.7989 13.9125 98.9902 14.0401 99.0442C14.7016 99.3467 15.3702 99.6147 16.0505 99.8725C16.1553 99.9093 16.2201 99.7563 16.118 99.7131Z" fill="white" fill-opacity="0.4"/>
</svg>
