<svg width="203" height="282" viewBox="0 0 203 282" fill="none" xmlns="http://www.w3.org/2000/svg">
<g clip-path="url(#clip0_18_1915)">
<path d="M150.799 187.912H50.8291C26.5451 187.912 6.85815 168.225 6.85815 143.941V43.971C6.85815 19.687 26.5451 0 50.8291 0H150.799C175.083 0 194.77 19.687 194.77 43.971V143.941C194.77 168.225 175.083 187.912 150.799 187.912Z" fill="white"/>
<path d="M85.4663 38.0749H52.312V149.821H85.4663V38.0749Z" fill="#4E8CDB"/>
<path d="M163.976 149.365L118.017 149.387L67.4709 98.8413L67.8202 53.2101L163.976 149.365Z" fill="#4E8CDB"/>
<path d="M85.4664 70.8544L118.466 38.0749H164.892L85.4664 116.91L52.306 83.7212L52.3121 38.0749L85.4664 70.8544Z" fill="#4DD4B2"/>
</g>
<path d="M24.0462 247.739C24.0462 247.896 24.0034 248.039 23.9177 248.167C23.8462 248.281 23.6962 248.381 23.4676 248.467C23.2533 248.539 22.9532 248.596 22.5675 248.639C22.1817 248.681 21.6959 248.703 21.1101 248.703C20.1814 248.703 19.5099 248.667 19.0956 248.596C18.6955 248.524 18.4026 248.417 18.2169 248.274C18.0454 248.131 17.9097 247.96 17.8097 247.76L9.42991 234.601V247.76C9.42991 247.917 9.38704 248.053 9.30132 248.167C9.21559 248.281 9.06557 248.381 8.85125 248.467C8.63694 248.539 8.35118 248.596 7.99399 248.639C7.6368 248.681 7.17959 248.703 6.62237 248.703C6.07944 248.703 5.62223 248.681 5.25075 248.639C4.89355 248.596 4.6078 248.539 4.39348 248.467C4.17917 248.381 4.022 248.281 3.92199 248.167C3.83626 248.053 3.7934 247.917 3.7934 247.76V221.635C3.7934 221.478 3.83626 221.342 3.92199 221.228C4.022 221.113 4.17917 221.02 4.39348 220.949C4.6078 220.878 4.89355 220.82 5.25075 220.778C5.62223 220.735 6.07944 220.713 6.62237 220.713C7.17959 220.713 7.6368 220.735 7.99399 220.778C8.35118 220.82 8.63694 220.878 8.85125 220.949C9.06557 221.02 9.21559 221.113 9.30132 221.228C9.38704 221.342 9.42991 221.478 9.42991 221.635V233.444L17.5525 221.656C17.6525 221.471 17.7739 221.321 17.9168 221.206C18.0597 221.078 18.2454 220.978 18.474 220.906C18.7026 220.835 18.9955 220.785 19.3527 220.756C19.7099 220.728 20.1671 220.713 20.7244 220.713C21.2959 220.713 21.7674 220.735 22.1388 220.778C22.5103 220.82 22.8032 220.885 23.0175 220.97C23.2461 221.042 23.4033 221.135 23.489 221.249C23.5748 221.363 23.6176 221.492 23.6176 221.635C23.6176 221.878 23.5533 222.128 23.4247 222.385C23.2961 222.642 23.0533 223.049 22.6961 223.607L15.0878 233.572L23.3819 246.11C23.6962 246.696 23.8819 247.088 23.9391 247.288C24.0105 247.474 24.0462 247.624 24.0462 247.739ZM48.3711 247.846C48.3711 248.003 48.3425 248.139 48.2854 248.253C48.2282 248.353 48.0925 248.439 47.8782 248.51C47.6639 248.581 47.3495 248.631 46.9352 248.66C46.5208 248.689 45.9565 248.703 45.2421 248.703C44.642 248.703 44.1634 248.689 43.8062 248.66C43.449 248.631 43.1632 248.581 42.9489 248.51C42.7489 248.424 42.606 248.324 42.5203 248.21C42.4346 248.081 42.3631 247.931 42.306 247.76L39.8199 241.566C39.5199 240.866 39.227 240.245 38.9412 239.702C38.6554 239.159 38.334 238.709 37.9768 238.351C37.6339 237.98 37.2338 237.701 36.7766 237.516C36.3194 237.33 35.7908 237.237 35.1907 237.237H33.4333V247.803C33.4333 247.946 33.3833 248.074 33.2833 248.189C33.1975 248.303 33.0475 248.396 32.8332 248.467C32.6189 248.539 32.3331 248.596 31.9759 248.639C31.6187 248.681 31.1615 248.703 30.6043 248.703C30.0614 248.703 29.6042 248.681 29.2327 248.639C28.8755 248.596 28.5897 248.539 28.3754 248.467C28.1611 248.396 28.0111 248.303 27.9254 248.189C27.8396 248.074 27.7968 247.946 27.7968 247.803V222.621C27.7968 221.992 27.9539 221.542 28.2683 221.27C28.5969 220.985 28.9969 220.842 29.4684 220.842H36.648C37.3767 220.842 37.9768 220.856 38.4483 220.885C38.9198 220.913 39.3484 220.949 39.7342 220.992C40.8486 221.149 41.8488 221.421 42.7346 221.806C43.6347 222.192 44.392 222.699 45.0063 223.328C45.635 223.942 46.1136 224.678 46.4423 225.535C46.7709 226.378 46.9352 227.35 46.9352 228.45C46.9352 229.379 46.8137 230.229 46.5708 231C46.3422 231.758 45.9993 232.436 45.5421 233.036C45.0849 233.637 44.5206 234.158 43.849 234.601C43.1775 235.044 42.4131 235.401 41.5559 235.673C41.9702 235.873 42.356 236.115 42.7132 236.401C43.0846 236.687 43.4275 237.037 43.7419 237.451C44.0705 237.851 44.3777 238.316 44.6634 238.844C44.9492 239.359 45.2278 239.945 45.4993 240.602L47.8353 246.067C48.0496 246.61 48.1925 247.01 48.2639 247.267C48.3354 247.51 48.3711 247.703 48.3711 247.846ZM41.1058 229.029C41.1058 228.114 40.8986 227.343 40.4843 226.714C40.0699 226.085 39.3913 225.643 38.4483 225.385C38.1625 225.314 37.8339 225.257 37.4624 225.214C37.1052 225.171 36.6052 225.15 35.9622 225.15H33.4333V233.015H36.3051C37.1052 233.015 37.8053 232.922 38.4054 232.736C39.0055 232.536 39.5056 232.265 39.9056 231.922C40.3057 231.565 40.6057 231.143 40.8058 230.658C41.0058 230.172 41.1058 229.629 41.1058 229.029ZM77.0466 234.387C77.0466 236.687 76.7608 238.744 76.1893 240.559C75.6178 242.373 74.7677 243.917 73.6389 245.188C72.5102 246.445 71.11 247.41 69.4384 248.081C67.781 248.739 65.8593 249.067 63.6733 249.067C61.5158 249.067 59.6298 248.789 58.0153 248.231C56.4151 247.66 55.0792 246.796 54.0076 245.638C52.936 244.481 52.1288 243.009 51.5858 241.223C51.0572 239.437 50.7929 237.323 50.7929 234.88C50.7929 232.636 51.0786 230.622 51.6501 228.836C52.2216 227.036 53.0718 225.507 54.2005 224.249C55.3292 222.992 56.7223 222.028 58.3797 221.356C60.0513 220.685 61.9873 220.349 64.1876 220.349C66.2879 220.349 68.1382 220.628 69.7384 221.185C71.3529 221.742 72.696 222.599 73.7675 223.757C74.8534 224.914 75.6678 226.378 76.2107 228.15C76.768 229.907 77.0466 231.986 77.0466 234.387ZM71.1314 234.687C71.1314 233.229 71.0171 231.908 70.7885 230.722C70.5599 229.522 70.167 228.5 69.6098 227.657C69.0669 226.8 68.3382 226.143 67.4238 225.685C66.5094 225.214 65.3664 224.978 63.9947 224.978C62.6088 224.978 61.4515 225.242 60.5228 225.771C59.5941 226.285 58.844 226.978 58.2725 227.85C57.701 228.722 57.2938 229.743 57.0509 230.915C56.8223 232.072 56.708 233.301 56.708 234.601C56.708 236.115 56.8223 237.48 57.0509 238.694C57.2795 239.895 57.6653 240.923 58.2082 241.781C58.7511 242.638 59.4798 243.295 60.3942 243.752C61.3086 244.195 62.4588 244.417 63.8447 244.417C65.2306 244.417 66.3879 244.159 67.3166 243.645C68.2453 243.131 68.9954 242.431 69.5669 241.545C70.1385 240.659 70.5385 239.63 70.7671 238.459C71.01 237.273 71.1314 236.015 71.1314 234.687ZM102.057 247.739C102.057 247.896 102.014 248.039 101.929 248.167C101.857 248.281 101.707 248.381 101.479 248.467C101.264 248.539 100.964 248.596 100.578 248.639C100.193 248.681 99.7069 248.703 99.1211 248.703C98.1924 248.703 97.5209 248.667 97.1065 248.596C96.7065 248.524 96.4136 248.417 96.2278 248.274C96.0564 248.131 95.9207 247.96 95.8206 247.76L87.4409 234.601V247.76C87.4409 247.917 87.398 248.053 87.3123 248.167C87.2266 248.281 87.0765 248.381 86.8622 248.467C86.6479 248.539 86.3622 248.596 86.005 248.639C85.6478 248.681 85.1906 248.703 84.6333 248.703C84.0904 248.703 83.6332 248.681 83.2617 248.639C82.9045 248.596 82.6188 248.539 82.4045 248.467C82.1901 248.381 82.033 248.281 81.933 248.167C81.8472 248.053 81.8044 247.917 81.8044 247.76V221.635C81.8044 221.478 81.8472 221.342 81.933 221.228C82.033 221.113 82.1901 221.02 82.4045 220.949C82.6188 220.878 82.9045 220.82 83.2617 220.778C83.6332 220.735 84.0904 220.713 84.6333 220.713C85.1906 220.713 85.6478 220.735 86.005 220.778C86.3622 220.82 86.6479 220.878 86.8622 220.949C87.0765 221.02 87.2266 221.113 87.3123 221.228C87.398 221.342 87.4409 221.478 87.4409 221.635V233.444L95.5635 221.656C95.6635 221.471 95.7849 221.321 95.9278 221.206C96.0707 221.078 96.2564 220.978 96.485 220.906C96.7136 220.835 97.0065 220.785 97.3637 220.756C97.7209 220.728 98.1781 220.713 98.7353 220.713C99.3068 220.713 99.7783 220.735 100.15 220.778C100.521 220.82 100.814 220.885 101.029 220.97C101.257 221.042 101.414 221.135 101.5 221.249C101.586 221.363 101.629 221.492 101.629 221.635C101.629 221.878 101.564 222.128 101.436 222.385C101.307 222.642 101.064 223.049 100.707 223.607L93.0988 233.572L101.393 246.11C101.707 246.696 101.893 247.088 101.95 247.288C102.022 247.474 102.057 247.624 102.057 247.739ZM134.74 229.264C134.74 230.822 134.498 232.201 134.012 233.401C133.526 234.601 132.819 235.615 131.89 236.444C130.961 237.258 129.818 237.88 128.461 238.309C127.118 238.737 125.532 238.952 123.703 238.952H121.389V247.803C121.389 247.946 121.339 248.074 121.238 248.189C121.153 248.303 121.003 248.396 120.788 248.467C120.574 248.539 120.288 248.596 119.931 248.639C119.574 248.681 119.117 248.703 118.56 248.703C118.017 248.703 117.559 248.681 117.188 248.639C116.831 248.596 116.545 248.539 116.331 248.467C116.116 248.396 115.966 248.303 115.881 248.189C115.795 248.074 115.752 247.946 115.752 247.803V222.856C115.752 222.185 115.923 221.685 116.266 221.356C116.624 221.013 117.088 220.842 117.659 220.842H124.196C124.853 220.842 125.475 220.87 126.061 220.928C126.661 220.97 127.375 221.078 128.204 221.249C129.032 221.406 129.868 221.706 130.711 222.149C131.569 222.592 132.297 223.156 132.897 223.842C133.497 224.514 133.955 225.307 134.269 226.221C134.583 227.121 134.74 228.136 134.74 229.264ZM128.847 229.672C128.847 228.7 128.675 227.9 128.332 227.271C127.989 226.643 127.568 226.178 127.068 225.878C126.568 225.578 126.039 225.393 125.482 225.321C124.939 225.235 124.375 225.192 123.789 225.192H121.389V234.601H123.917C124.818 234.601 125.568 234.48 126.168 234.237C126.782 233.994 127.282 233.658 127.668 233.229C128.054 232.786 128.347 232.265 128.547 231.665C128.747 231.05 128.847 230.386 128.847 229.672ZM154.35 246.217C154.35 246.645 154.329 247.01 154.286 247.31C154.257 247.596 154.207 247.839 154.136 248.039C154.065 248.224 153.972 248.36 153.857 248.446C153.757 248.531 153.636 248.574 153.493 248.574H140.784C140.313 248.574 139.913 248.439 139.584 248.167C139.27 247.881 139.112 247.424 139.112 246.796V221.613C139.112 221.471 139.155 221.342 139.241 221.228C139.341 221.113 139.498 221.02 139.713 220.949C139.927 220.878 140.213 220.82 140.57 220.778C140.941 220.735 141.398 220.713 141.941 220.713C142.499 220.713 142.956 220.735 143.313 220.778C143.67 220.82 143.956 220.878 144.17 220.949C144.385 221.02 144.535 221.113 144.62 221.228C144.72 221.342 144.77 221.471 144.77 221.613V243.924H153.493C153.636 243.924 153.757 243.967 153.857 244.052C153.972 244.124 154.065 244.252 154.136 244.438C154.207 244.609 154.257 244.845 154.286 245.145C154.329 245.431 154.35 245.788 154.35 246.217ZM179.232 238.244C179.232 239.945 178.982 241.466 178.482 242.809C177.982 244.152 177.246 245.288 176.275 246.217C175.303 247.146 174.103 247.853 172.674 248.339C171.246 248.824 169.602 249.067 167.745 249.067C166.002 249.067 164.437 248.853 163.052 248.424C161.666 247.981 160.494 247.317 159.537 246.431C158.579 245.545 157.844 244.445 157.329 243.131C156.829 241.802 156.579 240.252 156.579 238.48V221.613C156.579 221.471 156.622 221.342 156.708 221.228C156.794 221.113 156.944 221.02 157.158 220.949C157.386 220.878 157.679 220.82 158.037 220.778C158.394 220.735 158.851 220.713 159.408 220.713C159.951 220.713 160.401 220.735 160.758 220.778C161.116 220.82 161.401 220.878 161.616 220.949C161.83 221.02 161.98 221.113 162.066 221.228C162.166 221.342 162.216 221.471 162.216 221.613V237.987C162.216 239.087 162.351 240.045 162.623 240.859C162.894 241.659 163.28 242.323 163.78 242.852C164.295 243.381 164.902 243.781 165.602 244.052C166.316 244.309 167.109 244.438 167.981 244.438C168.867 244.438 169.66 244.302 170.36 244.031C171.06 243.759 171.653 243.366 172.139 242.852C172.624 242.323 172.996 241.681 173.253 240.923C173.524 240.152 173.66 239.28 173.66 238.309V221.613C173.66 221.471 173.703 221.342 173.789 221.228C173.874 221.113 174.025 221.02 174.239 220.949C174.453 220.878 174.739 220.82 175.096 220.778C175.468 220.735 175.925 220.713 176.468 220.713C177.011 220.713 177.454 220.735 177.796 220.778C178.154 220.82 178.439 220.878 178.654 220.949C178.868 221.02 179.018 221.113 179.104 221.228C179.19 221.342 179.232 221.471 179.232 221.613V238.244ZM201.714 240.259C201.714 241.716 201.443 242.995 200.9 244.095C200.357 245.195 199.621 246.117 198.692 246.86C197.764 247.588 196.678 248.139 195.435 248.51C194.192 248.882 192.863 249.067 191.448 249.067C190.491 249.067 189.598 248.989 188.769 248.832C187.955 248.674 187.233 248.489 186.605 248.274C185.976 248.046 185.448 247.81 185.019 247.567C184.605 247.324 184.305 247.11 184.119 246.924C183.933 246.738 183.797 246.474 183.712 246.131C183.64 245.774 183.604 245.267 183.604 244.609C183.604 244.167 183.619 243.795 183.647 243.495C183.676 243.195 183.719 242.952 183.776 242.766C183.847 242.581 183.933 242.452 184.033 242.381C184.147 242.295 184.276 242.252 184.419 242.252C184.619 242.252 184.897 242.373 185.255 242.616C185.626 242.845 186.098 243.102 186.669 243.388C187.241 243.674 187.919 243.938 188.705 244.181C189.505 244.409 190.427 244.524 191.47 244.524C192.156 244.524 192.77 244.445 193.313 244.288C193.856 244.117 194.313 243.881 194.685 243.581C195.07 243.281 195.363 242.909 195.563 242.466C195.763 242.023 195.863 241.53 195.863 240.988C195.863 240.359 195.692 239.823 195.349 239.38C195.006 238.923 194.556 238.523 193.999 238.18C193.456 237.823 192.834 237.494 192.134 237.194C191.434 236.88 190.713 236.551 189.97 236.208C189.227 235.865 188.505 235.48 187.805 235.051C187.105 234.608 186.476 234.087 185.919 233.487C185.376 232.872 184.933 232.151 184.59 231.322C184.247 230.493 184.076 229.5 184.076 228.343C184.076 227.014 184.319 225.85 184.805 224.85C185.305 223.835 185.969 222.999 186.798 222.342C187.641 221.671 188.627 221.17 189.755 220.842C190.898 220.513 192.106 220.349 193.377 220.349C194.034 220.349 194.692 220.399 195.349 220.499C196.006 220.599 196.621 220.735 197.192 220.906C197.764 221.078 198.271 221.27 198.714 221.485C199.157 221.699 199.45 221.878 199.592 222.021C199.735 222.163 199.828 222.285 199.871 222.385C199.928 222.485 199.971 222.621 200 222.792C200.042 222.949 200.071 223.156 200.085 223.414C200.1 223.657 200.107 223.964 200.107 224.335C200.107 224.75 200.092 225.1 200.064 225.385C200.05 225.671 200.014 225.907 199.957 226.093C199.914 226.278 199.842 226.414 199.742 226.5C199.657 226.586 199.535 226.628 199.378 226.628C199.221 226.628 198.971 226.528 198.628 226.328C198.285 226.128 197.864 225.914 197.363 225.685C196.863 225.443 196.285 225.228 195.628 225.042C194.97 224.842 194.249 224.742 193.463 224.742C192.849 224.742 192.313 224.821 191.856 224.978C191.398 225.121 191.013 225.328 190.698 225.6C190.398 225.857 190.17 226.171 190.012 226.543C189.87 226.914 189.798 227.307 189.798 227.721C189.798 228.336 189.962 228.872 190.291 229.329C190.634 229.772 191.084 230.172 191.641 230.529C192.213 230.872 192.856 231.2 193.57 231.515C194.284 231.815 195.013 232.136 195.756 232.479C196.499 232.822 197.228 233.215 197.942 233.658C198.657 234.087 199.292 234.608 199.85 235.222C200.407 235.823 200.857 236.537 201.2 237.366C201.543 238.18 201.714 239.144 201.714 240.259Z" fill="white"/>
<defs>
<clipPath id="clip0_18_1915">
<rect width="187.912" height="187.912" fill="white" transform="translate(6.85815)"/>
</clipPath>
</defs>
</svg>
