<svg width="102" height="173" viewBox="0 0 102 173" fill="none" xmlns="http://www.w3.org/2000/svg">
<g clip-path="url(#clip0_18_36204)">
<path d="M63.0728 16.0469C57.4298 12.1595 49.9847 14.8405 43.9743 16.3864C43.3837 10.6819 38.8578 5.72743 32.8394 7.46817C27.3721 9.0543 25.5328 15.0195 27.7476 19.8252C22.8396 20.8351 16.8403 21.1761 12.9937 24.5067C12.8309 24.4907 12.6614 24.5613 12.608 24.7788C12.5986 24.8095 12.5959 24.8442 12.5866 24.8749C11.7871 25.6472 11.0863 26.565 10.5335 27.667C9.40659 29.9217 9.69529 32.5771 10.0775 34.971C10.6648 38.5726 11.3695 42.1449 11.9448 45.7438C11.6819 45.8264 11.6511 46.18 11.8739 46.3228C11.9339 46.3589 11.9913 46.4069 12.0513 46.443C12.1299 46.9621 12.2178 47.4731 12.291 47.9936C12.4228 48.9757 12.5533 49.9525 12.6837 50.9292C12.5209 51.0493 12.5462 51.3322 12.7156 51.443C12.7289 51.451 12.7436 51.4643 12.7569 51.4723C12.8368 52.0648 12.9113 52.6586 12.9899 53.2457C12.6923 53.2577 12.4001 53.2682 12.1492 53.2628C11.8197 53.2601 11.7061 53.691 11.9756 53.8619C12.3758 54.1249 12.776 54.3879 13.1722 54.6575C14.1586 62.2876 15.1022 69.9283 16.5916 77.4839C16.6289 77.6787 16.6688 77.8842 16.7075 78.0843C16.5474 78.0563 16.3966 78.0202 16.2378 77.9975C15.7828 77.9239 15.4571 78.5043 15.8986 78.7739C16.2468 78.9875 16.6084 79.1865 16.9592 79.3881C18.1701 85.8053 19.6407 93.7171 24.4816 98.1166C30.2123 103.332 38.981 101.001 46.4462 98.2183C46.816 101.857 50.8962 102.574 55.1917 101.677C54.8288 105.811 55.2358 109.826 57.9821 113.149C61.0113 116.81 65.9279 118.038 69.981 120.122C74.6531 122.528 79.3541 126.299 81.2846 131.329C83.8511 138.02 77.9541 143.904 71.8264 145.139C67.1132 146.089 62.2111 145.51 57.7617 147.63C53.7981 149.515 51.5601 154.565 52.1112 158.771C52.6596 162.967 57.0582 165.322 60.7888 165.955C63.0984 166.348 65.4324 165.839 67.5836 165.007C68.9074 164.495 68.6927 164.181 68.7999 162.861C68.8199 162.623 68.5958 162.407 68.369 162.407C63.8269 162.339 54.9556 160.057 59.8052 153.953C63.3814 149.448 70.2839 149.386 75.3909 147.969C83.4937 145.719 91.2738 138.838 87.9221 129.706C85.4051 122.849 77.5445 118.756 71.6651 115.262C67.1853 112.604 56.1212 107.603 59.9476 100.807C60.0998 100.531 59.9958 100.274 59.8037 100.117C63.7245 98.2425 66.629 95.2718 65.1968 92.4199C68.0966 91.7697 70.9736 91.0514 73.7427 89.9234C79.0595 87.7568 80.4687 82.9763 80.1795 77.6161C79.8174 70.9417 77.1734 64.6441 75.5235 58.2401C73.5391 50.5416 72.8465 42.5207 71.2317 34.7356C70.0193 28.9709 68.3743 19.702 63.0728 16.0469ZM11.4278 30.9991C11.5945 31.2127 11.7746 31.4115 11.964 31.6024C11.7732 31.6104 11.5784 31.625 11.3849 31.6449C11.3996 31.4314 11.4077 31.214 11.4278 30.9991ZM11.455 33.5157C11.7898 33.7667 12.1327 34.0043 12.4916 34.2152C12.17 34.2218 11.8457 34.2177 11.5255 34.1842C11.4975 33.9587 11.4763 33.7372 11.455 33.5157ZM12.0942 37.3935C12.8866 38.1143 13.6843 38.8338 14.4754 39.5492C13.8495 39.6317 13.229 39.781 12.6045 39.8915C12.4486 39.0629 12.2741 38.2275 12.0942 37.3935ZM12.8362 41.274C13.5967 41.6172 14.2771 42.0257 15.0482 42.525C14.8454 42.3941 13.8433 42.4686 13.024 42.5257C12.9601 42.1107 12.9015 41.6943 12.8362 41.274ZM13.261 44.1109C13.9734 44.6249 14.6964 45.0908 15.3689 45.1497C14.7485 45.0948 14.0893 45.2027 13.4461 45.3519C13.3835 44.9423 13.3196 44.5273 13.261 44.1109ZM13.7509 47.6177C14.0751 47.826 14.4059 48.0156 14.7502 48.1678C14.6434 48.1945 14.5166 48.2318 14.3565 48.2718C14.191 48.3131 14.0202 48.3557 13.8547 48.397C13.8241 48.1382 13.7869 47.8753 13.7509 47.6177ZM14.1276 50.4213C14.4465 50.6082 14.7734 50.7364 15.0336 50.7112C14.7453 50.7377 14.4598 50.7523 14.1742 50.7669C14.1569 50.6522 14.1449 50.5361 14.1276 50.4213ZM14.4098 52.6191C14.798 52.8794 15.1929 53.121 15.6132 53.3053C15.3904 53.2078 14.9714 53.1877 14.479 53.1915C14.4551 53.0047 14.4298 52.8125 14.4098 52.6191ZM14.9835 57.188C15.4664 57.5324 15.944 57.8782 16.4189 58.2359C16.8845 58.579 15.9397 58.6561 15.1698 58.6612C15.1099 58.1715 15.05 57.6818 14.9835 57.188ZM17.0658 58.9874C17.0605 58.9887 17.0551 58.99 17.0485 58.986C17.0832 58.9434 17.1125 58.902 17.1472 58.8593C17.25 58.8393 17.3514 58.814 17.4488 58.7954C17.6476 58.7514 17.7104 58.5486 17.6371 58.3911C18.1029 58.0083 18.6687 57.7083 19.3547 57.503C21.0348 57.0098 22.5397 57.6321 23.6949 58.7159C21.7161 58.6032 19.7399 58.7961 17.9209 59.5734C17.5059 59.7508 17.5684 60.3646 17.9099 60.5742C17.9833 60.6182 18.062 60.661 18.1354 60.705C17.4415 60.7648 16.7396 60.8607 16.0404 60.9899C16.2381 60.2828 16.5425 59.6397 16.9724 59.0901C17.0111 59.0861 17.0391 59.0848 17.0778 59.0808C17.1272 59.0741 17.1165 58.9861 17.0658 58.9874ZM57.6262 53.4881C61.2831 54.9397 65.0109 56.2205 68.565 57.8736C59.8459 55.2475 51.3967 51.7715 42.5934 49.4216C41.8943 49.2332 41.4417 50.2138 42.0807 50.593C50.1466 55.3044 59.2394 57.565 67.9543 60.7649C57.7903 57.7794 47.9415 53.6492 37.386 52.2074C41.2078 46.9833 49.7314 47.5998 54.6694 53.0695C54.9348 53.3605 55.3805 53.2606 55.5835 52.9604C57.0613 50.7939 59.1938 50.0687 61.487 51.4865C61.7085 51.624 61.9634 51.5774 62.1489 51.4347C64.1969 52.2106 66.2328 52.9611 68.0819 54.0759C64.7009 53.2075 61.3627 52.1923 57.8267 52.2246C57.0635 52.2337 56.9591 53.2237 57.6262 53.4881ZM73.6507 60.6186C74.0669 60.7188 74.3726 60.444 74.4434 60.1145C74.4594 60.1785 74.4741 60.2372 74.4954 60.2999C74.6847 60.9672 74.8806 61.6384 75.0765 62.3097C66.8155 58.4975 57.8467 56.393 49.4962 52.8357C57.5388 55.4549 65.4238 58.5784 73.6507 60.6186ZM40.2682 60.4585C37.629 59.9039 34.9712 59.4561 32.2799 59.147C33.09 58.803 33.9 58.459 34.7101 58.115C35.0556 58.2952 35.44 58.0859 35.4734 57.6976C35.4734 57.6749 35.4801 57.6562 35.4801 57.6335C37.0236 58.7055 38.6232 59.6387 40.2682 60.4585ZM35.6473 56.4634C35.8558 55.2999 36.1977 54.2619 36.665 53.3627C47.5528 59.0878 59.9522 60.9652 71.0283 66.1499C59.2591 62.8223 48.1393 56.8263 35.7234 56.4501C35.6953 56.4514 35.6686 56.458 35.6473 56.4634ZM41.2947 67.4775C41.4068 67.5175 41.5189 67.5576 41.6309 67.5977C35.1558 66.2826 28.7755 64.7114 22.8239 61.9047C29.1751 62.5873 35.5577 65.3941 41.2947 67.4775ZM26.763 61.4657C26.8552 61.1535 27.0008 60.6918 27.149 60.3089C28.5833 60.6029 29.9762 60.981 31.2651 61.3283C32.5113 61.6636 33.7441 62.0363 34.9729 62.4383C39.8973 64.5148 44.8911 66.4152 49.9197 68.2275C52.0663 69.1261 54.2344 69.9741 56.4532 70.6167C54.1649 70.0822 51.858 69.6091 49.5444 69.1547C46.265 68.0568 43.0122 66.9069 39.8182 65.7424C35.6929 64.2319 31.2674 62.4732 26.763 61.4657ZM46.673 73.0074C41.8699 71.5527 37.0387 70.1902 32.1821 68.9304C28.3995 67.9524 24.6423 66.9852 21.0774 65.4482C29.8328 67.1523 38.2543 70.0852 46.673 73.0074ZM40.2692 69.7068C41.41 69.9834 42.5455 70.2613 43.6836 70.5499C53.6983 73.0736 63.6382 75.8883 73.263 79.6208C61.9298 77.585 51.1696 73.3931 40.2692 69.7068ZM30.7618 66.2852C26.0946 65.2843 21.3113 64.25 17.1049 61.9376C18.059 61.8072 19.0144 61.7501 19.9778 61.7477C24.407 64.1349 29.1127 65.7443 33.94 67.0001C32.8806 66.7543 31.8225 66.5137 30.7618 66.2852ZM20.3544 60.6443C20.0983 60.5042 19.8408 60.3586 19.5833 60.2131C21.2087 59.7506 22.958 59.7165 24.7139 59.9132C24.9967 60.3189 25.2354 60.7526 25.4301 61.1917C23.7449 60.8696 22.0504 60.6689 20.3544 60.6443ZM15.2297 59.1056C15.5193 59.1297 15.8115 59.1418 16.0944 59.1392C15.814 59.6061 15.583 60.1344 15.4333 60.7389C15.3655 60.1944 15.2976 59.65 15.2297 59.1056ZM15.7369 62.9993C15.7436 62.8219 15.761 62.6417 15.7744 62.4683C16.6736 63.0036 17.5968 63.4763 18.5414 63.8982C18.1931 63.8434 17.8422 63.7779 17.4953 63.7284C16.9362 63.6469 16.7545 64.4861 17.1987 64.7438C19.6121 66.1202 22.1871 67.2125 24.8461 68.1421C22.0428 67.6795 19.2048 67.3504 16.3293 67.212C16.1256 65.8056 15.9232 64.4044 15.7369 62.9993ZM16.525 68.473C19.132 69.6027 21.7656 70.635 24.4233 71.6046C22.7541 71.4373 21.0729 71.3353 19.3743 71.3228C18.8112 71.3159 18.7029 72.1085 19.2232 72.2848C23.6301 73.7646 28.0196 75.2885 32.3984 76.8377C27.5965 75.4338 22.6851 74.5222 17.5505 74.602C17.1736 72.5697 16.8433 70.52 16.525 68.473ZM18.2873 78.2797C18.126 77.5204 17.9822 76.7624 17.833 76.0058C18.8869 76.5932 19.9542 77.1433 21.0349 77.6561C21.0055 77.6521 20.9762 77.648 20.9415 77.6454C20.4091 77.5798 20.3274 78.3884 20.8024 78.542C32.1592 82.1256 43.6975 85.4371 54.3692 90.7739C42.2226 87.0018 30.8199 80.895 18.3059 78.3998C18.3006 78.3557 18.2966 78.317 18.2873 78.2797ZM18.4938 79.2885C32.1378 82.0856 44.4556 89.1548 57.9046 92.6925C55.209 93.4789 52.5747 94.3747 49.9164 95.3106C50.1259 95.1051 50.1154 94.6768 49.7512 94.5353C40.6961 90.995 31.4167 88.0779 22.3083 84.6871C32.6261 86.5171 42.4122 90.646 52.5363 93.3126C53.022 93.4408 53.3678 92.7364 52.8969 92.4854C41.9518 86.7576 29.3441 85.1817 18.4938 79.2885ZM18.7069 80.3694C27.5988 85.0504 37.6177 87.0004 46.9116 90.7475C37.7842 87.9398 28.7999 84.5464 19.2971 83.3238C19.0826 82.3056 18.8908 81.3101 18.7069 80.3694ZM26.6033 97.8931C22.5571 95.3366 20.7321 89.7758 19.5742 84.6155C22.9163 85.8962 26.2878 87.1129 29.6673 88.2935C26.9748 87.6388 24.2503 87.1282 21.4589 86.8725C20.9132 86.8216 20.8903 87.5702 21.3212 87.7518C22.8235 88.3861 24.3297 89.0364 25.832 89.6707C24.5951 89.4181 23.3503 89.1788 22.0934 88.9823C21.5263 88.8914 21.2872 89.6372 21.8396 89.8508C27.4138 91.9862 33.3138 93.3145 38.7625 95.7193C33.5792 93.9457 28.3144 92.2547 22.8102 92.3757C22.3592 92.3863 22.2549 93.0134 22.6872 93.1549C24.3296 93.6919 25.9787 94.1874 27.6384 94.6577C26.6217 94.4919 25.605 94.3261 24.587 94.1777C24.2227 94.1268 24.0624 94.7112 24.3853 94.8688C27.1549 96.2187 29.9967 97.4031 32.8745 98.4822C30.8451 98.2347 28.8062 98.0633 26.7808 97.7864C26.7021 97.7664 26.6354 97.8171 26.6033 97.8931ZM38.362 96.4317C34.103 95.6124 29.9175 94.5423 25.7748 93.28C30.0739 93.6697 34.2473 95.0094 38.362 96.4317ZM28.794 98.8999C28.327 98.7556 27.8814 98.5834 27.4611 98.3764C27.8467 98.4446 28.2363 98.5061 28.6206 98.6143C28.7247 98.645 28.7967 98.593 28.8368 98.5263C28.9435 98.545 29.0623 98.5664 29.197 98.5838C31.2398 98.862 33.2786 99.0788 35.3027 99.4637C33.1063 99.6605 30.9114 99.5451 28.794 98.8999ZM36.3115 99.348C36.3543 99.2012 36.2943 99.029 36.0995 98.9529C33.0789 97.8244 30.0743 96.6466 27.1352 95.322C30.8965 95.9423 34.6404 96.6747 38.4124 97.2243L38.4178 97.223C38.4525 97.2257 38.4831 97.2351 38.5178 97.2377C38.8768 97.2899 39.009 96.7976 38.8009 96.5773C40.0551 97.0127 41.3092 97.4481 42.5594 97.8675C40.5203 98.5127 38.4185 99.0657 36.3115 99.348ZM45.8435 96.7584C45.1976 96.9877 44.5357 97.221 43.8658 97.4449C39.1912 94.4839 33.9438 92.885 28.7164 91.2301C29.4996 91.4145 30.2787 91.6055 31.0539 91.8033C35.7662 93.6435 40.5667 95.2008 45.6183 95.9243C45.6183 95.9243 45.6183 95.9243 45.6236 95.923C45.665 95.9297 45.701 95.9377 45.7357 95.9404C46.2467 96.0113 46.3537 95.1907 45.8734 95.0611C40.9688 93.6998 36.1016 92.1705 31.1743 90.8999C28.9556 90.0306 26.7596 89.0932 24.5649 88.1611C33.1296 89.5102 41.1932 92.9634 49.492 95.4052C49.5347 95.4172 49.5681 95.4145 49.6081 95.4159C48.3644 95.8625 47.11 96.3118 45.8435 96.7584ZM47.044 98.001C47.722 97.741 48.3892 97.4837 49.0405 97.2304C49.0591 97.2371 49.0725 97.2451 49.0912 97.2518C49.4527 97.3373 49.8103 97.4521 50.1665 97.5617C49.6434 97.6923 49.115 97.8242 48.5919 97.9548C48.2983 98.0281 48.2261 98.375 48.4102 98.5899C48.5543 98.7581 48.7824 99.013 49.0385 99.2439C48.6862 99.3999 48.4085 99.628 48.3417 99.9736C47.6987 99.533 47.2279 98.8964 47.044 98.001ZM70.0278 115.586C78.3725 120.551 92.3954 128.113 85.9081 139.877C82.083 146.814 72.8812 147.229 66.1542 149.13C62.351 150.204 57.2582 153.131 57.4996 157.709C57.5832 159.225 58.6023 160.4 59.7362 161.285C60.5192 161.9 67.7919 164.366 67.8884 163.049C67.6271 166.59 59.5029 164.779 57.423 163.785C52.2318 161.298 52.4938 155.761 55.1452 151.459C59.1115 145.019 69.8188 147.704 75.9776 145.163C81.6639 142.819 84.3708 135.946 82.2256 130.374C80.0218 124.658 73.9919 120.584 68.6579 118.139C65.3172 116.614 62.0045 115.406 59.3046 112.813C56.2339 109.872 55.8843 105.519 55.943 101.506C56.9251 101.261 57.9086 100.931 58.8495 100.543C55.1524 107.675 65.0997 112.654 70.0278 115.586ZM56.8308 99.9523C55.7872 100.292 54.2566 100.657 52.7074 100.766C52.6594 100.687 52.5767 100.629 52.4646 100.611C51.4185 100.487 50.4459 100.089 49.4306 99.8605C49.572 99.8139 49.7308 99.7685 49.8803 99.7312C50.1084 99.782 50.33 99.738 50.5168 99.5326C50.7624 99.2672 50.5398 98.8067 50.1661 98.9C50.086 98.92 50.0006 98.9413 49.9099 98.964C49.8018 98.8946 49.6044 98.717 49.4163 98.5315C50.1796 98.3409 50.9469 98.1437 51.7116 97.9585C52.0759 97.8732 52.0961 97.3181 51.7265 97.2232C51.3876 97.1377 51.058 97.0215 50.7298 96.9107C50.99 96.8401 51.2476 96.7587 51.4878 96.6534C51.6666 96.5747 51.7001 96.3679 51.6414 96.2011C52.4208 95.8931 53.1868 95.5998 53.8927 95.3385C57.2023 94.1267 60.6491 93.4192 64.0853 92.6691C64.2921 96.7682 60.4259 98.7712 56.8308 99.9523ZM78.7193 79.0354C78.8023 82.3206 77.9566 85.6108 75.1179 87.5274C71.784 89.7773 67.247 90.4564 63.3878 91.2838C61.8052 91.6222 60.2586 92.014 58.7333 92.4459C58.7814 92.2751 58.7401 92.0869 58.548 91.9761C56.4654 90.8119 54.3428 89.7371 52.1922 88.7317C54.7005 89.5117 57.2502 90.1623 59.8734 90.5848C60.4578 90.6771 60.6715 89.9433 60.1312 89.7096C53.7353 86.9401 46.9547 85.174 40.2195 83.3171C35.1017 81.2833 29.9624 79.3228 24.564 78.2323C22.6095 77.4217 20.6923 76.5111 18.8112 75.4951C36.0081 75.7607 50.8211 86.9419 67.6169 89.5532L67.6236 89.5572C67.6649 89.5639 67.701 89.5719 67.7423 89.5786C68.2961 89.6615 68.3604 88.8289 67.8867 88.6579C52.8277 83.2597 37.8689 77.5814 22.7245 72.4313C24.8941 72.5815 27.0409 72.8677 29.1664 73.25C35.9028 75.4978 42.7487 77.4121 49.5839 79.3517C57.8478 82.426 66.077 85.7018 74.6322 87.3991C75.282 87.5261 75.5305 86.6588 74.9208 86.4198C66.5341 83.1266 57.8777 80.638 49.212 78.1801C42.8492 75.839 36.4544 73.6419 29.8712 72.3936C26.3022 71.2035 22.7666 69.9201 19.2778 68.4833C39.1002 70.3163 57.0905 80.4376 76.5146 84.2867C77.1951 84.423 77.4689 83.4984 76.8179 83.2527C72.2163 81.5379 67.6 79.8779 62.9596 78.2805C67.7895 79.6377 72.6822 80.7468 77.7031 81.3702C78.3583 81.4505 78.3786 80.5324 77.8662 80.3201C67.6452 75.9936 57.0289 72.8545 46.3043 70.077C43.6252 69.385 40.9394 68.689 38.2496 68.0223C41.8561 68.8173 45.5066 69.4937 49.1438 70.2074C55.5306 72.3497 62.0642 74.2852 68.5514 75.6256C69.0477 75.7285 69.3174 75.3323 69.2494 74.9694C72.202 76.0071 75.1466 77.0581 78.0831 78.1452C78.3339 78.2414 78.5528 78.1187 78.6876 77.9319C78.6902 78.3055 78.7074 78.6698 78.7193 79.0354ZM49.436 86.868C50.853 87.2968 52.2592 87.7509 53.6588 88.2237C52.2405 87.8123 50.8289 87.3595 49.436 86.868ZM44.5075 81.1862C49.9576 83.1654 55.3998 85.158 60.8539 87.1305C55.2995 85.5743 49.9055 83.3429 44.5075 81.1862ZM49.3464 74.9483C55.1769 76.7476 60.9633 78.6882 66.7164 80.7222C60.8765 78.9991 55.1168 76.9384 49.3464 74.9483ZM78.6078 77.158C78.5798 77.1366 78.5625 77.1126 78.5251 77.0992C78.4797 77.0765 78.4357 77.0592 78.3863 77.0432C78.3797 77.0391 78.3677 77.0365 78.361 77.0325C71.7423 74.1202 64.8992 71.8309 57.9559 69.8446C55.3168 68.927 52.6872 68.0015 50.0641 67.0573C48.0589 66.2254 46.0683 65.3614 44.0711 64.5615C41.2186 63.4251 38.3315 62.3313 35.4056 61.3777C34.6504 61.0559 33.8953 60.734 33.1442 60.4056C38.3959 61.0677 43.5381 62.2676 48.6255 63.7023C49.4847 63.9641 50.3519 64.2126 51.2232 64.4544C59.5207 66.9135 67.7139 69.8637 76.0675 71.9799C76.6906 72.1362 77.1539 71.221 76.5322 70.9113C68.5088 66.915 59.3836 65.5925 50.7606 63.1239C50.5765 63.0678 50.3937 63.017 50.2096 62.9609C45.9147 61.7026 41.7521 60.1334 37.9233 57.7891C51.0395 58.9034 62.8181 65.9485 75.6416 68.5479C76.3048 68.6828 76.7654 67.8023 76.133 67.4272C65.2335 61.0416 52.5365 59.1534 41.0882 54.09C52.8363 56.4021 63.8429 61.6042 75.591 64.0071C76.892 68.3321 78.2116 72.6638 78.6078 77.158ZM74.2968 59.5727C74.2568 59.526 74.2181 59.4846 74.1634 59.4472C70.5801 57.1323 66.6617 55.5646 62.7031 54.0635C65.3837 54.6248 68.0134 55.4823 70.7206 56.0142C71.3103 56.1278 71.8723 55.4261 71.3601 54.9416C69.69 53.3625 67.7662 52.3345 65.7356 51.4692C67.2713 51.6925 68.8044 51.9959 70.3602 52.1632C71.0767 52.2394 71.1624 51.3108 70.7075 50.965C70.6515 50.9223 70.5434 50.8529 70.414 50.7661C70.7076 50.5567 70.8532 50.1405 70.5264 49.8081C69.9742 49.2542 69.1963 48.9777 68.4397 49.2177C68.1287 49.3123 67.8458 49.6551 67.9711 49.9981C68.0471 50.2116 68.1564 50.3998 68.2791 50.5733C66.6847 50.3193 65.1142 50.0252 63.5037 49.934C64.4927 49.1484 65.639 48.9699 67.2788 49.2466C67.5336 49.2908 67.8152 49.2375 67.9501 48.9827C68.3895 47.5177 69.5184 47.3379 71.3368 48.4433C71.5849 48.6876 71.8838 48.6356 72.084 48.4609C72.6779 52.2026 73.3239 55.9256 74.2968 59.5727ZM70.8082 40.6026C71.2145 42.8657 71.5633 45.1489 71.9162 47.4254C71.0198 46.4697 69.8606 45.5287 68.518 46.2835C67.9268 46.6182 67.3312 48.0711 66.6027 47.9468C65.662 47.7904 64.7773 47.9489 63.8805 48.2408C63.0465 48.5114 62.4138 49.2024 61.8639 49.8387C61.8278 49.8761 61.7758 49.8947 61.7197 49.9201C61.709 49.9227 61.7024 49.9187 61.6917 49.9214C61.6196 49.928 61.5556 49.944 61.4982 49.964C60.859 49.9932 59.7157 49.4564 59.3474 49.3896C57.5195 49.0861 56.054 50.3933 55.0154 51.7526C48.0751 44.7585 35.9494 46.3171 34.5477 56.9194C33.6031 56.4974 32.7598 56.2997 31.6376 56.5969C31.0838 56.7408 30.1226 58.2283 29.5606 58.8846C29.3711 58.8979 29.2203 59.0206 29.1308 59.1847C27.7659 58.8053 27.1388 58.6783 26.7064 59.0812C26.154 58.9809 25.5883 58.8954 25.0279 58.8311C22.7349 56.3699 19.2324 56.1046 17.0888 57.9439C16.4285 57.4794 15.7868 56.9988 15.1438 56.5129C15.2345 56.5129 15.3426 56.5143 15.4614 56.513C15.7763 56.4797 16.0845 56.4425 16.3994 56.4092C16.6703 56.3813 16.7332 55.929 16.485 55.8208C15.8526 55.5364 15.2563 55.2146 14.68 54.8595C14.6361 54.5246 14.5935 54.195 14.5549 53.8587C15.2754 53.7922 16.0574 53.6764 16.5244 53.6845C16.8086 53.6873 16.9876 53.2457 16.6927 53.1095C15.8455 52.7369 15.1171 52.3177 14.3474 51.8011C14.326 51.7837 14.3127 51.7757 14.2927 51.7637C14.27 51.5822 14.2474 51.4008 14.2235 51.2139C14.5904 51.2301 15.1308 51.305 15.4791 51.269C15.778 51.2398 15.9115 50.8889 15.6434 50.7007C16.0276 50.9677 14.863 49.9599 13.9918 49.4459C13.9705 49.2924 13.9506 49.1443 13.9293 48.9908C14.5431 48.8376 15.157 48.6843 15.7721 48.5364C16.0123 48.4764 16.1139 48.0882 15.8577 47.9707C15.0546 47.6155 14.3355 47.1883 13.6284 46.7184C13.5951 46.4942 13.5672 46.2687 13.5406 46.0485C14.2892 45.9353 15.4274 45.7929 15.9038 45.8384C16.24 45.8679 16.3296 45.4089 16.0774 45.2394C15.0609 44.5745 14.0964 43.8457 13.1092 43.1395C13.1065 43.1288 13.1039 43.1181 13.1079 43.1115C13.7576 43.4426 15.3522 43.1295 16.1141 43.1378C16.4664 43.1406 16.5906 42.6843 16.2998 42.496C15.1792 41.7778 14.1386 41.0849 12.9792 40.5522C13.7746 40.399 14.5672 40.2124 15.3838 40.2354C15.7041 40.2461 15.915 39.8192 15.6602 39.5936C14.8305 38.8368 13.9995 38.0746 13.1697 37.3178C13.518 37.3499 13.8716 37.3807 14.2332 37.4209C14.7122 37.4771 14.7271 36.8099 14.3535 36.6537C13.4103 36.2597 12.6139 35.591 11.8095 34.9356C12.5714 34.9665 13.332 34.924 14.1273 34.7935C14.5129 34.7256 14.5158 34.1238 14.1422 34.0356C13.0414 33.7831 12.233 33.1343 11.3846 32.4842C11.3833 32.4562 11.3806 32.4229 11.3793 32.3948C11.8997 32.3216 12.4308 32.3138 12.9712 32.3887C13.2901 32.4168 13.5184 31.9458 13.2556 31.7336C12.8087 31.3745 10.8436 30.0222 12.1033 29.9119C12.2861 29.8946 12.4356 29.8119 12.4917 29.6278C12.7041 28.934 12.2626 28.3921 12.228 27.9811C12.2948 27.8397 12.3508 27.7009 12.4243 27.5635C12.8967 27.2074 13.0677 26.8699 13.1518 26.4803C13.3054 26.2775 13.4602 26.0801 13.6377 25.8826C16.9254 22.289 23.5171 21.9361 27.9689 20.734C28.1223 20.69 28.2197 20.6033 28.2718 20.4939C28.4746 20.4886 28.6829 20.3232 28.5962 20.0897C26.955 15.6965 28.0386 11.088 32.5253 9.02658C38.2425 6.39708 41.5005 11.929 42.7573 16.5542C42.828 16.8144 43.0441 16.9532 43.2789 16.9853C43.2041 17.4577 43.5628 18.0089 44.166 17.8583C50.7515 16.1858 59.7514 12.8274 64.418 19.7541C68.4191 25.6959 69.5761 33.7143 70.8082 40.6026Z" fill="white" fill-opacity="0.4"/>
<path d="M35.1479 11.4452C33.6721 11.6663 32.5096 12.6653 31.7633 13.9234C30.8661 15.4402 30.2794 18.473 31.2903 20.0238C31.513 20.3708 32.1415 20.3897 32.2391 19.9174C32.2511 19.852 32.2511 19.784 32.2565 19.7146C34.4021 19.7233 36.6225 19.6226 38.7055 19.1535C38.915 19.1069 39.1286 18.9175 39.1767 18.7013C39.7807 15.8287 39.2793 10.8221 35.1479 11.4452ZM37.9827 17.9617C36.0918 18.4055 34.2036 18.6784 32.2821 18.9086C32.2502 18.4403 32.177 17.9652 32.1838 17.4929C32.188 16.7376 32.339 16.0025 32.5861 15.2887C32.9734 14.1826 33.8437 13.1942 34.9754 12.8436C38.0126 11.9038 38.2956 15.8763 37.9827 17.9617Z" fill="white" fill-opacity="0.4"/>
</g>
<defs>
<clipPath id="clip0_18_36204">
<rect width="64.6551" height="161.412" fill="white" transform="translate(0 15.6613) rotate(-14.018)"/>
</clipPath>
</defs>
</svg>
