<svg width="502" height="57" viewBox="0 0 502 57" fill="none" xmlns="http://www.w3.org/2000/svg">
<rect x="0.5" y="0.5" width="501" height="56" rx="22.5" stroke="#4E8CDB"/>
<g clip-path="url(#clip0_18_1745)">
<path d="M136.762 30.7121L135.857 34.0907L132.549 34.1607C131.561 32.3271 131 30.2293 131 28C131 25.8443 131.524 23.8114 132.454 22.0214H132.454L135.399 22.5613L136.689 25.4886C136.419 26.2757 136.272 27.1207 136.272 28C136.272 28.9543 136.445 29.8686 136.762 30.7121Z" fill="#FBBB00"/>
<path d="M156.773 25.5714C156.922 26.3578 157 27.17 157 28C157 28.9307 156.902 29.8386 156.716 30.7143C156.083 33.6943 154.429 36.2964 152.139 38.1378L152.138 38.1371L148.429 37.9479L147.904 34.6707C149.424 33.7793 150.612 32.3843 151.237 30.7143H144.286V25.5714H156.773Z" fill="#518EF8"/>
<path d="M152.138 38.1371L152.139 38.1378C149.911 39.9285 147.081 41 144 41C139.049 41 134.745 38.2329 132.549 34.1607L136.762 30.7122C137.86 33.6421 140.686 35.7279 144 35.7279C145.424 35.7279 146.759 35.3428 147.904 34.6707L152.138 38.1371Z" fill="#28B446"/>
<path d="M152.298 17.9928L148.086 21.4407C146.901 20.7 145.501 20.2721 144 20.2721C140.611 20.2721 137.732 22.4535 136.689 25.4886L132.454 22.0214H132.454C134.617 17.85 138.976 15 144 15C147.154 15 150.046 16.1236 152.298 17.9928Z" fill="#F14336"/>
</g>
<path d="M217.273 32.9668V34.5H210.164V32.9668H217.273ZM210.535 20.2812V34.5H208.65V20.2812H210.535ZM218.68 29.334V29.1094C218.68 28.3477 218.79 27.6413 219.012 26.9902C219.233 26.3327 219.552 25.763 219.969 25.2812C220.385 24.793 220.89 24.4154 221.482 24.1484C222.075 23.875 222.739 23.7383 223.475 23.7383C224.217 23.7383 224.884 23.875 225.477 24.1484C226.076 24.4154 226.583 24.793 227 25.2812C227.423 25.763 227.745 26.3327 227.967 26.9902C228.188 27.6413 228.299 28.3477 228.299 29.1094V29.334C228.299 30.0957 228.188 30.8021 227.967 31.4531C227.745 32.1042 227.423 32.6738 227 33.1621C226.583 33.6439 226.079 34.0215 225.486 34.2949C224.9 34.5618 224.236 34.6953 223.494 34.6953C222.752 34.6953 222.085 34.5618 221.492 34.2949C220.9 34.0215 220.392 33.6439 219.969 33.1621C219.552 32.6738 219.233 32.1042 219.012 31.4531C218.79 30.8021 218.68 30.0957 218.68 29.334ZM220.486 29.1094V29.334C220.486 29.8613 220.548 30.3594 220.672 30.8281C220.796 31.2904 220.981 31.7005 221.229 32.0586C221.482 32.4167 221.798 32.6999 222.176 32.9082C222.553 33.11 222.993 33.2109 223.494 33.2109C223.989 33.2109 224.422 33.11 224.793 32.9082C225.171 32.6999 225.483 32.4167 225.73 32.0586C225.978 31.7005 226.163 31.2904 226.287 30.8281C226.417 30.3594 226.482 29.8613 226.482 29.334V29.1094C226.482 28.5885 226.417 28.097 226.287 27.6348C226.163 27.166 225.975 26.7526 225.721 26.3945C225.473 26.0299 225.161 25.7435 224.783 25.5352C224.412 25.3268 223.976 25.2227 223.475 25.2227C222.98 25.2227 222.544 25.3268 222.166 25.5352C221.795 25.7435 221.482 26.0299 221.229 26.3945C220.981 26.7526 220.796 27.166 220.672 27.6348C220.548 28.097 220.486 28.5885 220.486 29.1094ZM237.41 23.9336H239.051V34.2754C239.051 35.2064 238.862 36.0007 238.484 36.6582C238.107 37.3158 237.579 37.8138 236.902 38.1523C236.232 38.4974 235.457 38.6699 234.578 38.6699C234.214 38.6699 233.784 38.6113 233.289 38.4941C232.801 38.3835 232.319 38.1914 231.844 37.918C231.375 37.651 230.981 37.2897 230.662 36.834L231.609 35.7598C232.052 36.2936 232.514 36.6647 232.996 36.873C233.484 37.0814 233.966 37.1855 234.441 37.1855C235.014 37.1855 235.509 37.0781 235.926 36.8633C236.342 36.6484 236.665 36.3294 236.893 35.9062C237.127 35.4896 237.244 34.9753 237.244 34.3633V26.2578L237.41 23.9336ZM230.135 29.334V29.1289C230.135 28.3216 230.229 27.5892 230.418 26.9316C230.613 26.2676 230.89 25.6979 231.248 25.2227C231.613 24.7474 232.052 24.3828 232.566 24.1289C233.081 23.8685 233.66 23.7383 234.305 23.7383C234.969 23.7383 235.548 23.8555 236.043 24.0898C236.544 24.3177 236.967 24.653 237.312 25.0957C237.664 25.5319 237.941 26.0592 238.143 26.6777C238.344 27.2962 238.484 27.9961 238.562 28.7773V29.6758C238.491 30.4505 238.351 31.1471 238.143 31.7656C237.941 32.3841 237.664 32.9115 237.312 33.3477C236.967 33.7839 236.544 34.1191 236.043 34.3535C235.542 34.5814 234.956 34.6953 234.285 34.6953C233.654 34.6953 233.081 34.5618 232.566 34.2949C232.059 34.028 231.622 33.6536 231.258 33.1719C230.893 32.6901 230.613 32.1237 230.418 31.4727C230.229 30.8151 230.135 30.1022 230.135 29.334ZM231.941 29.1289V29.334C231.941 29.8613 231.993 30.3561 232.098 30.8184C232.208 31.2806 232.374 31.6875 232.596 32.0391C232.824 32.3906 233.113 32.6673 233.465 32.8691C233.816 33.0645 234.236 33.1621 234.725 33.1621C235.324 33.1621 235.818 33.0352 236.209 32.7812C236.6 32.5273 236.909 32.1921 237.137 31.7754C237.371 31.3587 237.553 30.9062 237.684 30.418V28.0645C237.612 27.7064 237.501 27.3613 237.352 27.0293C237.208 26.6908 237.02 26.3913 236.785 26.1309C236.557 25.8639 236.274 25.6523 235.936 25.4961C235.597 25.3398 235.2 25.2617 234.744 25.2617C234.249 25.2617 233.823 25.3659 233.465 25.5742C233.113 25.776 232.824 26.056 232.596 26.4141C232.374 26.7656 232.208 27.1758 232.098 27.6445C231.993 28.1068 231.941 28.6016 231.941 29.1289ZM248.719 23.9336V34.5H246.902V23.9336H248.719ZM246.766 21.1309C246.766 20.8379 246.854 20.5905 247.029 20.3887C247.212 20.1868 247.479 20.0859 247.83 20.0859C248.175 20.0859 248.439 20.1868 248.621 20.3887C248.81 20.5905 248.904 20.8379 248.904 21.1309C248.904 21.4108 248.81 21.6517 248.621 21.8535C248.439 22.0488 248.175 22.1465 247.83 22.1465C247.479 22.1465 247.212 22.0488 247.029 21.8535C246.854 21.6517 246.766 21.4108 246.766 21.1309ZM253.426 26.1895V34.5H251.619V23.9336H253.328L253.426 26.1895ZM252.996 28.8164L252.244 28.7871C252.251 28.0645 252.358 27.3971 252.566 26.7852C252.775 26.1667 253.068 25.6296 253.445 25.1738C253.823 24.7181 254.272 24.3665 254.793 24.1191C255.32 23.8652 255.903 23.7383 256.541 23.7383C257.062 23.7383 257.531 23.8099 257.947 23.9531C258.364 24.0898 258.719 24.3112 259.012 24.6172C259.311 24.9232 259.539 25.3203 259.695 25.8086C259.852 26.2904 259.93 26.8796 259.93 27.5762V34.5H258.113V27.5566C258.113 27.0033 258.032 26.5605 257.869 26.2285C257.706 25.89 257.469 25.6458 257.156 25.4961C256.844 25.3398 256.46 25.2617 256.004 25.2617C255.555 25.2617 255.145 25.3561 254.773 25.5449C254.409 25.7337 254.093 25.9941 253.826 26.3262C253.566 26.6582 253.361 27.0391 253.211 27.4688C253.068 27.8919 252.996 28.3411 252.996 28.8164ZM270.311 32.625L273.025 23.9336H274.217L273.982 25.6621L271.219 34.5H270.057L270.311 32.625ZM268.484 23.9336L270.799 32.7227L270.965 34.5H269.744L266.678 23.9336H268.484ZM276.814 32.6543L279.021 23.9336H280.818L277.752 34.5H276.541L276.814 32.6543ZM274.48 23.9336L277.137 32.4785L277.439 34.5H276.287L273.445 25.6426L273.211 23.9336H274.48ZM284.637 23.9336V34.5H282.82V23.9336H284.637ZM282.684 21.1309C282.684 20.8379 282.771 20.5905 282.947 20.3887C283.13 20.1868 283.396 20.0859 283.748 20.0859C284.093 20.0859 284.357 20.1868 284.539 20.3887C284.728 20.5905 284.822 20.8379 284.822 21.1309C284.822 21.4108 284.728 21.6517 284.539 21.8535C284.357 22.0488 284.093 22.1465 283.748 22.1465C283.396 22.1465 283.13 22.0488 282.947 21.8535C282.771 21.6517 282.684 21.4108 282.684 21.1309ZM291.961 23.9336V25.3203H286.248V23.9336H291.961ZM288.182 21.3652H289.988V31.8828C289.988 32.2409 290.044 32.5111 290.154 32.6934C290.265 32.8757 290.408 32.9961 290.584 33.0547C290.76 33.1133 290.949 33.1426 291.15 33.1426C291.3 33.1426 291.456 33.1296 291.619 33.1035C291.788 33.071 291.915 33.0449 292 33.0254L292.01 34.5C291.867 34.5456 291.678 34.5879 291.443 34.627C291.215 34.6725 290.939 34.6953 290.613 34.6953C290.171 34.6953 289.764 34.6074 289.393 34.4316C289.021 34.2559 288.725 33.9629 288.504 33.5527C288.289 33.1361 288.182 32.5762 288.182 31.873V21.3652ZM295.887 19.5V34.5H294.08V19.5H295.887ZM295.457 28.8164L294.705 28.7871C294.712 28.0645 294.819 27.3971 295.027 26.7852C295.236 26.1667 295.529 25.6296 295.906 25.1738C296.284 24.7181 296.733 24.3665 297.254 24.1191C297.781 23.8652 298.364 23.7383 299.002 23.7383C299.523 23.7383 299.992 23.8099 300.408 23.9531C300.825 24.0898 301.18 24.3112 301.473 24.6172C301.772 24.9232 302 25.3203 302.156 25.8086C302.312 26.2904 302.391 26.8796 302.391 27.5762V34.5H300.574V27.5566C300.574 27.0033 300.493 26.5605 300.33 26.2285C300.167 25.89 299.93 25.6458 299.617 25.4961C299.305 25.3398 298.921 25.2617 298.465 25.2617C298.016 25.2617 297.605 25.3561 297.234 25.5449C296.87 25.7337 296.554 25.9941 296.287 26.3262C296.027 26.6582 295.822 27.0391 295.672 27.4688C295.529 27.8919 295.457 28.3411 295.457 28.8164ZM316.902 23.9336H318.543V34.2754C318.543 35.2064 318.354 36.0007 317.977 36.6582C317.599 37.3158 317.072 37.8138 316.395 38.1523C315.724 38.4974 314.949 38.6699 314.07 38.6699C313.706 38.6699 313.276 38.6113 312.781 38.4941C312.293 38.3835 311.811 38.1914 311.336 37.918C310.867 37.651 310.473 37.2897 310.154 36.834L311.102 35.7598C311.544 36.2936 312.007 36.6647 312.488 36.873C312.977 37.0814 313.458 37.1855 313.934 37.1855C314.507 37.1855 315.001 37.0781 315.418 36.8633C315.835 36.6484 316.157 36.3294 316.385 35.9062C316.619 35.4896 316.736 34.9753 316.736 34.3633V26.2578L316.902 23.9336ZM309.627 29.334V29.1289C309.627 28.3216 309.721 27.5892 309.91 26.9316C310.105 26.2676 310.382 25.6979 310.74 25.2227C311.105 24.7474 311.544 24.3828 312.059 24.1289C312.573 23.8685 313.152 23.7383 313.797 23.7383C314.461 23.7383 315.04 23.8555 315.535 24.0898C316.036 24.3177 316.46 24.653 316.805 25.0957C317.156 25.5319 317.433 26.0592 317.635 26.6777C317.837 27.2962 317.977 27.9961 318.055 28.7773V29.6758C317.983 30.4505 317.843 31.1471 317.635 31.7656C317.433 32.3841 317.156 32.9115 316.805 33.3477C316.46 33.7839 316.036 34.1191 315.535 34.3535C315.034 34.5814 314.448 34.6953 313.777 34.6953C313.146 34.6953 312.573 34.5618 312.059 34.2949C311.551 34.028 311.115 33.6536 310.75 33.1719C310.385 32.6901 310.105 32.1237 309.91 31.4727C309.721 30.8151 309.627 30.1022 309.627 29.334ZM311.434 29.1289V29.334C311.434 29.8613 311.486 30.3561 311.59 30.8184C311.701 31.2806 311.867 31.6875 312.088 32.0391C312.316 32.3906 312.605 32.6673 312.957 32.8691C313.309 33.0645 313.729 33.1621 314.217 33.1621C314.816 33.1621 315.311 33.0352 315.701 32.7812C316.092 32.5273 316.401 32.1921 316.629 31.7754C316.863 31.3587 317.046 30.9062 317.176 30.418V28.0645C317.104 27.7064 316.993 27.3613 316.844 27.0293C316.701 26.6908 316.512 26.3913 316.277 26.1309C316.049 25.8639 315.766 25.6523 315.428 25.4961C315.089 25.3398 314.692 25.2617 314.236 25.2617C313.742 25.2617 313.315 25.3659 312.957 25.5742C312.605 25.776 312.316 26.056 312.088 26.4141C311.867 26.7656 311.701 27.1758 311.59 27.6445C311.486 28.1068 311.434 28.6016 311.434 29.1289ZM320.809 29.334V29.1094C320.809 28.3477 320.919 27.6413 321.141 26.9902C321.362 26.3327 321.681 25.763 322.098 25.2812C322.514 24.793 323.019 24.4154 323.611 24.1484C324.204 23.875 324.868 23.7383 325.604 23.7383C326.346 23.7383 327.013 23.875 327.605 24.1484C328.204 24.4154 328.712 24.793 329.129 25.2812C329.552 25.763 329.874 26.3327 330.096 26.9902C330.317 27.6413 330.428 28.3477 330.428 29.1094V29.334C330.428 30.0957 330.317 30.8021 330.096 31.4531C329.874 32.1042 329.552 32.6738 329.129 33.1621C328.712 33.6439 328.208 34.0215 327.615 34.2949C327.029 34.5618 326.365 34.6953 325.623 34.6953C324.881 34.6953 324.214 34.5618 323.621 34.2949C323.029 34.0215 322.521 33.6439 322.098 33.1621C321.681 32.6738 321.362 32.1042 321.141 31.4531C320.919 30.8021 320.809 30.0957 320.809 29.334ZM322.615 29.1094V29.334C322.615 29.8613 322.677 30.3594 322.801 30.8281C322.924 31.2904 323.11 31.7005 323.357 32.0586C323.611 32.4167 323.927 32.6999 324.305 32.9082C324.682 33.11 325.122 33.2109 325.623 33.2109C326.118 33.2109 326.551 33.11 326.922 32.9082C327.299 32.6999 327.612 32.4167 327.859 32.0586C328.107 31.7005 328.292 31.2904 328.416 30.8281C328.546 30.3594 328.611 29.8613 328.611 29.334V29.1094C328.611 28.5885 328.546 28.097 328.416 27.6348C328.292 27.166 328.104 26.7526 327.85 26.3945C327.602 26.0299 327.29 25.7435 326.912 25.5352C326.541 25.3268 326.105 25.2227 325.604 25.2227C325.109 25.2227 324.673 25.3268 324.295 25.5352C323.924 25.7435 323.611 26.0299 323.357 26.3945C323.11 26.7526 322.924 27.166 322.801 27.6348C322.677 28.097 322.615 28.5885 322.615 29.1094ZM332.215 29.334V29.1094C332.215 28.3477 332.326 27.6413 332.547 26.9902C332.768 26.3327 333.087 25.763 333.504 25.2812C333.921 24.793 334.425 24.4154 335.018 24.1484C335.61 23.875 336.274 23.7383 337.01 23.7383C337.752 23.7383 338.419 23.875 339.012 24.1484C339.611 24.4154 340.118 24.793 340.535 25.2812C340.958 25.763 341.281 26.3327 341.502 26.9902C341.723 27.6413 341.834 28.3477 341.834 29.1094V29.334C341.834 30.0957 341.723 30.8021 341.502 31.4531C341.281 32.1042 340.958 32.6738 340.535 33.1621C340.118 33.6439 339.614 34.0215 339.021 34.2949C338.436 34.5618 337.771 34.6953 337.029 34.6953C336.287 34.6953 335.62 34.5618 335.027 34.2949C334.435 34.0215 333.927 33.6439 333.504 33.1621C333.087 32.6738 332.768 32.1042 332.547 31.4531C332.326 30.8021 332.215 30.0957 332.215 29.334ZM334.021 29.1094V29.334C334.021 29.8613 334.083 30.3594 334.207 30.8281C334.331 31.2904 334.516 31.7005 334.764 32.0586C335.018 32.4167 335.333 32.6999 335.711 32.9082C336.089 33.11 336.528 33.2109 337.029 33.2109C337.524 33.2109 337.957 33.11 338.328 32.9082C338.706 32.6999 339.018 32.4167 339.266 32.0586C339.513 31.7005 339.699 31.2904 339.822 30.8281C339.952 30.3594 340.018 29.8613 340.018 29.334V29.1094C340.018 28.5885 339.952 28.097 339.822 27.6348C339.699 27.166 339.51 26.7526 339.256 26.3945C339.008 26.0299 338.696 25.7435 338.318 25.5352C337.947 25.3268 337.511 25.2227 337.01 25.2227C336.515 25.2227 336.079 25.3268 335.701 25.5352C335.33 25.7435 335.018 26.0299 334.764 26.3945C334.516 26.7526 334.331 27.166 334.207 27.6348C334.083 28.097 334.021 28.5885 334.021 29.1094ZM350.945 23.9336H352.586V34.2754C352.586 35.2064 352.397 36.0007 352.02 36.6582C351.642 37.3158 351.115 37.8138 350.438 38.1523C349.767 38.4974 348.992 38.6699 348.113 38.6699C347.749 38.6699 347.319 38.6113 346.824 38.4941C346.336 38.3835 345.854 38.1914 345.379 37.918C344.91 37.651 344.516 37.2897 344.197 36.834L345.145 35.7598C345.587 36.2936 346.049 36.6647 346.531 36.873C347.02 37.0814 347.501 37.1855 347.977 37.1855C348.549 37.1855 349.044 37.0781 349.461 36.8633C349.878 36.6484 350.2 36.3294 350.428 35.9062C350.662 35.4896 350.779 34.9753 350.779 34.3633V26.2578L350.945 23.9336ZM343.67 29.334V29.1289C343.67 28.3216 343.764 27.5892 343.953 26.9316C344.148 26.2676 344.425 25.6979 344.783 25.2227C345.148 24.7474 345.587 24.3828 346.102 24.1289C346.616 23.8685 347.195 23.7383 347.84 23.7383C348.504 23.7383 349.083 23.8555 349.578 24.0898C350.079 24.3177 350.503 24.653 350.848 25.0957C351.199 25.5319 351.476 26.0592 351.678 26.6777C351.88 27.2962 352.02 27.9961 352.098 28.7773V29.6758C352.026 30.4505 351.886 31.1471 351.678 31.7656C351.476 32.3841 351.199 32.9115 350.848 33.3477C350.503 33.7839 350.079 34.1191 349.578 34.3535C349.077 34.5814 348.491 34.6953 347.82 34.6953C347.189 34.6953 346.616 34.5618 346.102 34.2949C345.594 34.028 345.158 33.6536 344.793 33.1719C344.428 32.6901 344.148 32.1237 343.953 31.4727C343.764 30.8151 343.67 30.1022 343.67 29.334ZM345.477 29.1289V29.334C345.477 29.8613 345.529 30.3561 345.633 30.8184C345.743 31.2806 345.91 31.6875 346.131 32.0391C346.359 32.3906 346.648 32.6673 347 32.8691C347.352 33.0645 347.771 33.1621 348.26 33.1621C348.859 33.1621 349.354 33.0352 349.744 32.7812C350.135 32.5273 350.444 32.1921 350.672 31.7754C350.906 31.3587 351.089 30.9062 351.219 30.418V28.0645C351.147 27.7064 351.036 27.3613 350.887 27.0293C350.743 26.6908 350.555 26.3913 350.32 26.1309C350.092 25.8639 349.809 25.6523 349.471 25.4961C349.132 25.3398 348.735 25.2617 348.279 25.2617C347.785 25.2617 347.358 25.3659 347 25.5742C346.648 25.776 346.359 26.056 346.131 26.4141C345.91 26.7656 345.743 27.1758 345.633 27.6445C345.529 28.1068 345.477 28.6016 345.477 29.1289ZM357.293 19.5V34.5H355.477V19.5H357.293ZM364.578 34.6953C363.842 34.6953 363.175 34.5716 362.576 34.3242C361.984 34.0703 361.473 33.7155 361.043 33.2598C360.62 32.804 360.294 32.2637 360.066 31.6387C359.839 31.0137 359.725 30.3301 359.725 29.5879V29.1777C359.725 28.3184 359.852 27.5534 360.105 26.8828C360.359 26.2057 360.704 25.6328 361.141 25.1641C361.577 24.6953 362.072 24.3405 362.625 24.0996C363.178 23.8587 363.751 23.7383 364.344 23.7383C365.099 23.7383 365.75 23.8685 366.297 24.1289C366.85 24.3893 367.303 24.7539 367.654 25.2227C368.006 25.6849 368.266 26.2318 368.436 26.8633C368.605 27.4883 368.689 28.1719 368.689 28.9141V29.7246H360.799V28.25H366.883V28.1133C366.857 27.6445 366.759 27.1888 366.59 26.7461C366.427 26.3034 366.167 25.9388 365.809 25.6523C365.451 25.3659 364.962 25.2227 364.344 25.2227C363.934 25.2227 363.556 25.3105 363.211 25.4863C362.866 25.6556 362.57 25.9095 362.322 26.248C362.075 26.5866 361.883 27 361.746 27.4883C361.609 27.9766 361.541 28.5397 361.541 29.1777V29.5879C361.541 30.0892 361.609 30.5612 361.746 31.0039C361.889 31.4401 362.094 31.8242 362.361 32.1562C362.635 32.4883 362.964 32.7487 363.348 32.9375C363.738 33.1263 364.181 33.2207 364.676 33.2207C365.314 33.2207 365.854 33.0905 366.297 32.8301C366.74 32.5697 367.127 32.2214 367.459 31.7852L368.553 32.6543C368.325 32.9993 368.035 33.3281 367.684 33.6406C367.332 33.9531 366.899 34.207 366.385 34.4023C365.877 34.5977 365.275 34.6953 364.578 34.6953Z" fill="#444545"/>
<defs>
<clipPath id="clip0_18_1745">
<rect width="26" height="26" fill="white" transform="translate(131 15)"/>
</clipPath>
</defs>
</svg>
