<svg width="155" height="79" viewBox="0 0 155 79" fill="none" xmlns="http://www.w3.org/2000/svg">
<g clip-path="url(#clip0_18_36208)">
<path d="M154.241 50.8856C147.474 49.7286 140.122 48.799 133.302 50.1432C132.905 36.8083 133.799 23.3262 131.185 10.1651C130.983 9.15526 129.538 9.28901 129.27 10.1651C124.646 24.9579 124.835 40.6335 121.515 55.6738C120.91 48.0166 122.086 40.0183 118.417 33.0298C117.92 32.0802 116.677 32.6352 116.583 33.5247C116.099 38.0321 114.99 42.3389 113.498 46.5788C112.591 42.5194 112.349 38.3197 111.133 34.3205C110.871 33.4645 109.399 33.3107 109.231 34.3205C107.901 42.4057 106.886 50.5445 105.092 58.5361C102.773 39.3362 110.138 18.4041 101.013 0.488197C100.616 -0.287558 99.4269 -0.0601816 99.2051 0.722261C97.1354 8.17888 97.1959 15.8027 97.337 23.48C97.4042 27.2651 97.4109 31.0369 97.1757 34.8154C97.0346 37.0825 96.6784 39.3161 96.2349 41.5364C95.7309 44.0576 94.7297 43.6563 92.4785 43.6563C88.8297 43.6563 84.9926 43.2082 81.5521 44.6528C79.0187 45.7161 77.5873 48.2573 76.6466 50.8922C75.605 43.4691 75.8536 35.8988 74.1602 28.5558C73.9788 27.7801 72.8163 27.6263 72.44 28.3351C70.135 32.7155 68.9859 37.4703 68.3677 42.3723C68.0116 38.2127 67.138 34.1801 65.0884 30.4417C64.7121 29.7529 63.5698 29.88 63.395 30.6624C62.3938 35.1096 62.4811 39.8377 60.5861 44.0643C58.2544 49.2672 51.6286 45.2881 47.4085 45.7428C46.8642 45.803 46.5484 46.1173 46.4879 46.659C45.9772 51.0059 45.2514 55.3261 44.4652 59.6262C45.8764 40.0985 47.8655 20.5843 46.7029 0.989763C46.6425 -0.00668124 45.2918 -0.193933 44.9759 0.755699C38.2426 20.8785 33.4581 41.5297 30.4812 62.4951C30.75 50.7251 30.9449 38.9349 27.6589 27.526C27.4103 26.6699 26.3216 26.7836 26.0327 27.526C23.0155 35.2835 21.4632 43.342 21.2885 51.6412C14.6022 52.0693 7.10287 53.7478 0.598063 51.9622C-3.86406e-06 51.7951 -0.248638 52.7113 0.342708 52.8851C7.24399 54.9115 15.0189 53.0657 22.0949 53.2529C22.5518 53.2663 22.9214 52.8651 22.9281 52.4237C23.0088 44.9203 24.2721 37.6375 26.7047 30.5889C30.4409 46.124 28.1696 62.3279 28.5862 78.144C28.6198 79.3076 30.2595 79.2608 30.367 78.144C32.8601 53.5673 37.7588 29.3851 45.1842 5.83155C46.0242 28.7498 42.8256 51.5944 41.7571 74.4658C41.7101 75.469 43.3565 75.7097 43.5312 74.7066C45.0835 65.6383 47.086 56.6502 48.2149 47.515C52.6836 47.4548 57.7436 50.4642 61.2245 46.4718C63.9998 43.2885 64.1611 38.313 64.7054 33.9928C68.4484 43.5828 65.6999 55.0185 67.0372 65.0097C67.1985 66.1934 68.7978 66.2335 68.912 65.0097C69.92 54.2026 68.6432 42.0647 72.8835 31.7993C74.2006 39.5702 73.8175 47.5418 75.4975 55.286C75.6991 56.2088 77.0968 56.1687 77.3253 55.286C78.3131 51.3938 79.5227 46.9667 83.8839 45.8298C87.8015 44.8066 92.4449 45.6358 96.4567 45.5021C96.8935 45.4887 97.2765 45.2145 97.3907 44.7932C101.114 31.4248 97.6528 17.4344 100.435 3.99247C104.171 13.2012 103.667 23.694 103.237 33.4444C102.794 43.4958 101.806 53.7612 103.949 63.6922C104.158 64.6619 105.602 64.6017 105.851 63.6922C107.968 55.8544 109.103 47.8427 110.333 39.8377C110.904 43.2684 111.274 46.7393 112.389 50.0496C112.712 51.0193 113.935 50.9457 114.291 50.0496C115.951 45.8298 117.241 41.5832 118.021 37.1694C120.42 44.7196 118.565 53.3599 120.305 61.0707C120.527 62.0404 121.958 61.9802 122.214 61.0707C126.454 45.997 126.165 30.114 129.989 14.9801C131.702 26.9976 130.903 39.2626 131.339 51.3604C131.366 52.0224 131.958 52.4772 132.603 52.3234C139.376 50.6916 146.916 51.6947 153.683 52.8985C155.007 53.1393 155.571 51.1129 154.241 50.8856Z" fill="white" fill-opacity="0.4"/>
</g>
<defs>
<clipPath id="clip0_18_36208">
<rect width="155" height="79" fill="white"/>
</clipPath>
</defs>
</svg>
