<svg width="116" height="116" viewBox="0 0 116 116" fill="none" xmlns="http://www.w3.org/2000/svg">
<g clip-path="url(#clip0_188_988)">
<path d="M88.3362 115.061H27.1233C12.2539 115.061 0.199341 103.006 0.199341 88.1369V26.9239C0.199341 12.0546 12.2539 0 27.1233 0H88.3362C103.206 0 115.26 12.0546 115.26 26.9239V88.1369C115.26 103.006 103.206 115.061 88.3362 115.061Z" fill="white"/>
<path d="M48.3322 23.3137H28.0314V91.7369H48.3322V23.3137Z" fill="#4E8CDB"/>
<path d="M96.4045 91.4577L68.263 91.4715L37.3132 60.5217L37.5271 32.5812L96.4045 91.4577Z" fill="#4E8CDB"/>
<path d="M48.3321 43.385L68.5379 23.3137H96.9651L48.3321 71.5855L28.0276 51.2635L28.0313 23.3137L48.3321 43.385Z" fill="#4DD4B2"/>
</g>
<defs>
<clipPath id="clip0_188_988">
<rect width="115.061" height="115.061" fill="white" transform="translate(0.199341)"/>
</clipPath>
</defs>
</svg>
