<svg width="48" height="48" viewBox="0 0 48 48" fill="none" xmlns="http://www.w3.org/2000/svg">
<path d="M31.8147 22.7839C32.5766 29.8221 35.5678 31.9491 35.5678 31.9491H12C12 31.9491 15.928 29.1559 15.928 19.3796C15.928 17.1572 16.7556 15.0258 18.2289 13.4543C19.7022 11.8828 21.7004 11 23.7839 11C24.2255 11 24.6633 11.0397 25.0932 11.1172" stroke="#4E8CDB" stroke-width="2" stroke-linecap="round" stroke-linejoin="round"/>
<path d="M32.9487 18.8559C35.1181 18.8559 36.8767 17.0973 36.8767 14.928C36.8767 12.7586 35.1181 11 32.9487 11C30.7793 11 29.0208 12.7586 29.0208 14.928C29.0208 17.0973 30.7793 18.8559 32.9487 18.8559Z" fill="#DC1D1D" stroke="#DC1D1D" stroke-width="2" stroke-linecap="round" stroke-linejoin="round"/>
<path d="M26.0467 35.8772C25.8165 36.2741 25.4862 36.6035 25.0886 36.8323C24.6911 37.0613 24.2404 37.1819 23.7816 37.1819C23.3228 37.1819 22.8721 37.0613 22.4746 36.8323C22.0771 36.6035 21.7467 36.2741 21.5165 35.8772" stroke="#4E8CDB" stroke-width="2" stroke-linecap="round" stroke-linejoin="round"/>
</svg>
