<svg width="50" height="50" viewBox="0 0 50 50" fill="none" xmlns="http://www.w3.org/2000/svg">
<rect opacity="0.1" x="0.684326" y="0.452675" width="49.2632" height="49.2632" rx="10.9474" fill="white"/>
<path d="M35.2647 20.3544C35.0123 19.4164 34.2728 18.6771 33.335 18.4245C31.6216 17.9556 24.7682 17.9556 24.7682 17.9556C24.7682 17.9556 17.9149 17.9556 16.2016 18.4067C15.2818 18.6591 14.5243 19.4166 14.2719 20.3544C13.821 22.0676 13.821 25.6206 13.821 25.6206C13.821 25.6206 13.821 29.1915 14.2719 30.8868C14.5245 31.8245 15.2638 32.564 16.2017 32.8166C17.933 33.2855 24.7684 33.2855 24.7684 33.2855C24.7684 33.2855 31.6216 33.2855 33.335 32.8345C34.2729 32.5821 35.0123 31.8426 35.2648 30.9048C35.7157 29.1915 35.7157 25.6386 35.7157 25.6386C35.7157 25.6386 35.7337 22.0676 35.2647 20.3544Z" fill="white"/>
<path d="M22.5854 28.9032L28.2845 25.6208L22.5854 22.3384V28.9032Z" fill="#2E2E3E"/>
</svg>
