<svg width="27" height="29" viewBox="0 0 27 29" fill="none" xmlns="http://www.w3.org/2000/svg">
<path d="M20.8147 12.7839C21.5766 19.8221 24.5678 21.9491 24.5678 21.9491H1C1 21.9491 4.92796 19.1559 4.92796 9.37965C4.92796 7.15722 5.75563 5.02583 7.22891 3.45435C8.70218 1.88285 10.7004 1 12.7839 1C13.2255 1 13.6633 1.03967 14.0932 1.11717" stroke="#4E8CDB" stroke-width="2" stroke-linecap="round" stroke-linejoin="round"/>
<path d="M21.9487 8.85592C24.1181 8.85592 25.8767 7.09731 25.8767 4.92796C25.8767 2.75861 24.1181 1 21.9487 1C19.7793 1 18.0208 2.75861 18.0208 4.92796C18.0208 7.09731 19.7793 8.85592 21.9487 8.85592Z" fill="#DC1D1D" stroke="#DC1D1D" stroke-width="2" stroke-linecap="round" stroke-linejoin="round"/>
<path d="M15.0467 25.8772C14.8165 26.2741 14.4862 26.6035 14.0886 26.8323C13.6911 27.0613 13.2404 27.1819 12.7816 27.1819C12.3228 27.1819 11.8721 27.0613 11.4746 26.8323C11.0771 26.6035 10.7467 26.2741 10.5165 25.8772" stroke="#4E8CDB" stroke-width="2" stroke-linecap="round" stroke-linejoin="round"/>
</svg>
